0
SECTION
2
HEADER
9
$INSUNITS
70
4
0
ENDSEC
0
SECTION
2
TABLES
0
TABLE
2
LTYPE
0
LTYPE
72
65
70
64
2
CONTINUOUS
3
______
73
0
40
0
0
ENDTAB
0
TABLE
2
LAYER
0
ENDTAB
0
ENDSEC
0
SECTION
2
ENTITIES
0
LINE
8
front_outsideCutPath
10
0
20
138.9375
11
0
21
161.0625
0
LINE
8
front_outsideCutPath
10
0
20
138.9375
11
3
21
138.9375
0
LINE
8
front_outsideCutPath
10
3
20
138.9375
11
3
21
127.3125
0
LINE
8
front_outsideCutPath
10
3
20
127.3125
11
0
21
127.3125
0
LINE
8
front_outsideCutPath
10
0
20
127.3125
11
0
21
115.6875
0
LINE
8
front_outsideCutPath
10
0
20
115.6875
11
3
21
115.6875
0
LINE
8
front_outsideCutPath
10
3
20
115.6875
11
3
21
104.0625
0
LINE
8
front_outsideCutPath
10
3
20
104.0625
11
0
21
104.0625
0
LINE
8
front_outsideCutPath
10
0
20
104.0625
11
0
21
92.4375
0
LINE
8
front_outsideCutPath
10
0
20
92.4375
11
3
21
92.4375
0
LINE
8
front_outsideCutPath
10
3
20
92.4375
11
3
21
80.8125
0
LINE
8
front_outsideCutPath
10
3
20
80.8125
11
0
21
80.8125
0
LINE
8
front_outsideCutPath
10
0
20
80.8125
11
0
21
69.1875
0
LINE
8
front_outsideCutPath
10
0
20
69.1875
11
3
21
69.1875
0
LINE
8
front_outsideCutPath
10
3
20
69.1875
11
3
21
57.5625
0
LINE
8
front_outsideCutPath
10
3
20
57.5625
11
0
21
57.5625
0
LINE
8
front_outsideCutPath
10
0
20
57.5625
11
0
21
45.9375
0
LINE
8
front_outsideCutPath
10
0
20
45.9375
11
3
21
45.9375
0
LINE
8
front_outsideCutPath
10
3
20
45.9375
11
3
21
34.3125
0
LINE
8
front_outsideCutPath
10
3
20
34.3125
11
0
21
34.3125
0
LINE
8
front_outsideCutPath
10
0
20
34.3125
11
0
21
22.6875
0
LINE
8
front_outsideCutPath
10
0
20
22.6875
11
3
21
22.6875
0
LINE
8
front_outsideCutPath
10
3
20
22.6875
11
3
21
11.0625
0
LINE
8
front_outsideCutPath
10
3
20
11.0625
11
0
21
11.0625
0
LINE
8
front_outsideCutPath
10
0
20
11.0625
11
0
21
0
0
LINE
8
front_outsideCutPath
10
0
20
0
11
9.3125
21
0
0
LINE
8
front_outsideCutPath
10
9.3125
20
0
11
9.3125
21
3
0
LINE
8
front_outsideCutPath
10
9.3125
20
3
11
20.9375
21
3
0
LINE
8
front_outsideCutPath
10
20.9375
20
3
11
20.9375
21
0
0
LINE
8
front_outsideCutPath
10
20.9375
20
0
11
32.5625
21
0
0
LINE
8
front_outsideCutPath
10
32.5625
20
0
11
32.5625
21
3
0
LINE
8
front_outsideCutPath
10
32.5625
20
3
11
44.1875
21
3
0
LINE
8
front_outsideCutPath
10
44.1875
20
3
11
44.1875
21
0
0
LINE
8
front_outsideCutPath
10
44.1875
20
0
11
55.8125
21
0
0
LINE
8
front_outsideCutPath
10
55.8125
20
0
11
55.8125
21
3
0
LINE
8
front_outsideCutPath
10
55.8125
20
3
11
67.4375
21
3
0
LINE
8
front_outsideCutPath
10
67.4375
20
3
11
67.4375
21
0
0
LINE
8
front_outsideCutPath
10
67.4375
20
0
11
79.0625
21
0
0
LINE
8
front_outsideCutPath
10
79.0625
20
0
11
79.0625
21
3
0
LINE
8
front_outsideCutPath
10
79.0625
20
3
11
90.6875
21
3
0
LINE
8
front_outsideCutPath
10
90.6875
20
3
11
90.6875
21
0
0
LINE
8
front_outsideCutPath
10
90.6875
20
0
11
100
21
0
0
LINE
8
front_outsideCutPath
10
100
20
0
11
100
21
22.6875
0
LINE
8
front_outsideCutPath
10
97
20
11.0625
11
103
21
11.0625
0
LINE
8
front_outsideCutPath
10
97
20
11.0625
11
97
21
22.6875
0
LINE
8
front_outsideCutPath
10
97
20
22.6875
11
103
21
22.6875
0
LINE
8
front_outsideCutPath
10
100
20
22.6875
11
100
21
45.9375
0
LINE
8
front_outsideCutPath
10
97
20
34.3125
11
103
21
34.3125
0
LINE
8
front_outsideCutPath
10
97
20
34.3125
11
97
21
45.9375
0
LINE
8
front_outsideCutPath
10
97
20
45.9375
11
103
21
45.9375
0
LINE
8
front_outsideCutPath
10
100
20
45.9375
11
100
21
69.1875
0
LINE
8
front_outsideCutPath
10
97
20
57.5625
11
103
21
57.5625
0
LINE
8
front_outsideCutPath
10
97
20
57.5625
11
97
21
69.1875
0
LINE
8
front_outsideCutPath
10
97
20
69.1875
11
103
21
69.1875
0
LINE
8
front_outsideCutPath
10
100
20
69.1875
11
100
21
92.4375
0
LINE
8
front_outsideCutPath
10
97
20
80.8125
11
103
21
80.8125
0
LINE
8
front_outsideCutPath
10
97
20
80.8125
11
97
21
92.4375
0
LINE
8
front_outsideCutPath
10
97
20
92.4375
11
103
21
92.4375
0
LINE
8
front_outsideCutPath
10
100
20
92.4375
11
100
21
115.6875
0
LINE
8
front_outsideCutPath
10
97
20
104.0625
11
103
21
104.0625
0
LINE
8
front_outsideCutPath
10
97
20
104.0625
11
97
21
115.6875
0
LINE
8
front_outsideCutPath
10
97
20
115.6875
11
103
21
115.6875
0
LINE
8
front_outsideCutPath
10
100
20
115.6875
11
100
21
138.9375
0
LINE
8
front_outsideCutPath
10
97
20
127.3125
11
103
21
127.3125
0
LINE
8
front_outsideCutPath
10
97
20
127.3125
11
97
21
138.9375
0
LINE
8
front_outsideCutPath
10
97
20
138.9375
11
103
21
138.9375
0
LINE
8
front_outsideCutPath
10
100
20
138.9375
11
100
21
172.6875
0
LINE
8
front_outsideCutPath
10
90.6875
20
150
11
100
21
150
0
LINE
8
front_outsideCutPath
10
90.6875
20
147
11
90.6875
21
153
0
LINE
8
front_outsideCutPath
10
90.6875
20
147
11
79.0625
21
147
0
LINE
8
front_outsideCutPath
10
79.0625
20
147
11
79.0625
21
153
0
LINE
8
front_outsideCutPath
10
67.4375
20
150
11
79.0625
21
150
0
LINE
8
front_outsideCutPath
10
67.4375
20
147
11
67.4375
21
153
0
LINE
8
front_outsideCutPath
10
67.4375
20
147
11
55.8125
21
147
0
LINE
8
front_outsideCutPath
10
55.8125
20
147
11
55.8125
21
153
0
LINE
8
front_outsideCutPath
10
44.1875
20
150
11
55.8125
21
150
0
LINE
8
front_outsideCutPath
10
44.1875
20
147
11
44.1875
21
153
0
LINE
8
front_outsideCutPath
10
44.1875
20
147
11
32.5625
21
147
0
LINE
8
front_outsideCutPath
10
32.5625
20
147
11
32.5625
21
153
0
LINE
8
front_outsideCutPath
10
20.9375
20
150
11
32.5625
21
150
0
LINE
8
front_outsideCutPath
10
20.9375
20
147
11
20.9375
21
153
0
LINE
8
front_outsideCutPath
10
20.9375
20
147
11
9.3125
21
147
0
LINE
8
front_outsideCutPath
10
9.3125
20
147
11
9.3125
21
153
0
LINE
8
front_outsideCutPath
10
0
20
150
11
9.3125
21
150
0
LINE
8
left_outsideCutPath
10
103
20
138.9375
11
103
21
161.0625
0
LINE
8
left_outsideCutPath
10
103
20
127.3125
11
103
21
115.6875
0
LINE
8
left_outsideCutPath
10
103
20
104.0625
11
103
21
92.4375
0
LINE
8
left_outsideCutPath
10
103
20
80.8125
11
103
21
69.1875
0
LINE
8
left_outsideCutPath
10
103
20
57.5625
11
103
21
45.9375
0
LINE
8
left_outsideCutPath
10
103
20
34.3125
11
103
21
22.6875
0
LINE
8
left_outsideCutPath
10
103
20
11.0625
11
103
21
0
0
LINE
8
left_outsideCutPath
10
103
20
0
11
109.3125
21
0
0
LINE
8
left_outsideCutPath
10
109.3125
20
0
11
109.3125
21
3
0
LINE
8
left_outsideCutPath
10
109.3125
20
3
11
120.9375
21
3
0
LINE
8
left_outsideCutPath
10
120.9375
20
3
11
120.9375
21
0
0
LINE
8
left_outsideCutPath
10
120.9375
20
0
11
132.5625
21
0
0
LINE
8
left_outsideCutPath
10
132.5625
20
0
11
132.5625
21
3
0
LINE
8
left_outsideCutPath
10
132.5625
20
3
11
144.1875
21
3
0
LINE
8
left_outsideCutPath
10
144.1875
20
3
11
144.1875
21
0
0
LINE
8
left_outsideCutPath
10
144.1875
20
0
11
155.8125
21
0
0
LINE
8
left_outsideCutPath
10
155.8125
20
0
11
155.8125
21
3
0
LINE
8
left_outsideCutPath
10
155.8125
20
3
11
167.4375
21
3
0
LINE
8
left_outsideCutPath
10
167.4375
20
3
11
167.4375
21
0
0
LINE
8
left_outsideCutPath
10
167.4375
20
0
11
179.0625
21
0
0
LINE
8
left_outsideCutPath
10
179.0625
20
0
11
179.0625
21
3
0
LINE
8
left_outsideCutPath
10
179.0625
20
3
11
190.6875
21
3
0
LINE
8
left_outsideCutPath
10
190.6875
20
3
11
190.6875
21
0
0
LINE
8
left_outsideCutPath
10
190.6875
20
0
11
197
21
0
0
LINE
8
left_outsideCutPath
10
197
20
0
11
197
21
11.0625
0
LINE
8
left_outsideCutPath
10
197
20
11.0625
11
200
21
11.0625
0
LINE
8
left_outsideCutPath
10
200
20
9.3125
11
200
21
22.6875
0
LINE
8
left_outsideCutPath
10
200
20
22.6875
11
197
21
22.6875
0
LINE
8
left_outsideCutPath
10
197
20
22.6875
11
197
21
34.3125
0
LINE
8
left_outsideCutPath
10
197
20
34.3125
11
200
21
34.3125
0
LINE
8
left_outsideCutPath
10
200
20
32.5625
11
200
21
45.9375
0
LINE
8
left_outsideCutPath
10
200
20
45.9375
11
197
21
45.9375
0
LINE
8
left_outsideCutPath
10
197
20
45.9375
11
197
21
57.5625
0
LINE
8
left_outsideCutPath
10
197
20
57.5625
11
200
21
57.5625
0
LINE
8
left_outsideCutPath
10
200
20
55.8125
11
200
21
69.1875
0
LINE
8
left_outsideCutPath
10
200
20
69.1875
11
197
21
69.1875
0
LINE
8
left_outsideCutPath
10
197
20
69.1875
11
197
21
80.8125
0
LINE
8
left_outsideCutPath
10
197
20
80.8125
11
200
21
80.8125
0
LINE
8
left_outsideCutPath
10
200
20
79.0625
11
200
21
92.4375
0
LINE
8
left_outsideCutPath
10
200
20
92.4375
11
197
21
92.4375
0
LINE
8
left_outsideCutPath
10
197
20
92.4375
11
197
21
104.0625
0
LINE
8
left_outsideCutPath
10
197
20
104.0625
11
200
21
104.0625
0
LINE
8
left_outsideCutPath
10
200
20
104.0625
11
200
21
120.9375
0
LINE
8
left_outsideCutPath
10
200
20
115.6875
11
197
21
115.6875
0
LINE
8
left_outsideCutPath
10
197
20
115.6875
11
197
21
127.3125
0
LINE
8
left_outsideCutPath
10
197
20
127.3125
11
200
21
127.3125
0
LINE
8
left_outsideCutPath
10
200
20
127.3125
11
200
21
144.1875
0
LINE
8
left_outsideCutPath
10
200
20
138.9375
11
197
21
138.9375
0
LINE
8
left_outsideCutPath
10
197
20
138.9375
11
197
21
161.0625
0
LINE
8
left_outsideCutPath
10
190.6875
20
150
11
197
21
150
0
LINE
8
left_outsideCutPath
10
190.6875
20
147
11
190.6875
21
153
0
LINE
8
left_outsideCutPath
10
190.6875
20
147
11
179.0625
21
147
0
LINE
8
left_outsideCutPath
10
179.0625
20
147
11
179.0625
21
153
0
LINE
8
left_outsideCutPath
10
167.4375
20
150
11
179.0625
21
150
0
LINE
8
left_outsideCutPath
10
167.4375
20
147
11
167.4375
21
153
0
LINE
8
left_outsideCutPath
10
167.4375
20
147
11
155.8125
21
147
0
LINE
8
left_outsideCutPath
10
155.8125
20
147
11
155.8125
21
153
0
LINE
8
left_outsideCutPath
10
144.1875
20
150
11
155.8125
21
150
0
LINE
8
left_outsideCutPath
10
144.1875
20
147
11
144.1875
21
153
0
LINE
8
left_outsideCutPath
10
144.1875
20
147
11
132.5625
21
147
0
LINE
8
left_outsideCutPath
10
132.5625
20
147
11
132.5625
21
153
0
LINE
8
left_outsideCutPath
10
120.9375
20
150
11
132.5625
21
150
0
LINE
8
left_outsideCutPath
10
120.9375
20
147
11
120.9375
21
153
0
LINE
8
left_outsideCutPath
10
120.9375
20
147
11
109.3125
21
147
0
LINE
8
left_outsideCutPath
10
109.3125
20
147
11
109.3125
21
153
0
LINE
8
left_outsideCutPath
10
103
20
150
11
109.3125
21
150
0
LINE
8
top_outsideCutPath
10
203
20
97
11
203
21
90.6875
0
LINE
8
top_outsideCutPath
10
203
20
90.6875
11
200
21
90.6875
0
LINE
8
top_outsideCutPath
10
200
20
79.0625
11
203
21
79.0625
0
LINE
8
top_outsideCutPath
10
203
20
79.0625
11
203
21
67.4375
0
LINE
8
top_outsideCutPath
10
203
20
67.4375
11
200
21
67.4375
0
LINE
8
top_outsideCutPath
10
200
20
55.8125
11
203
21
55.8125
0
LINE
8
top_outsideCutPath
10
203
20
55.8125
11
203
21
44.1875
0
LINE
8
top_outsideCutPath
10
203
20
44.1875
11
200
21
44.1875
0
LINE
8
top_outsideCutPath
10
200
20
32.5625
11
203
21
32.5625
0
LINE
8
top_outsideCutPath
10
203
20
32.5625
11
203
21
20.9375
0
LINE
8
top_outsideCutPath
10
203
20
20.9375
11
200
21
20.9375
0
LINE
8
top_outsideCutPath
10
200
20
9.3125
11
203
21
9.3125
0
LINE
8
top_outsideCutPath
10
203
20
9.3125
11
203
21
3
0
LINE
8
top_outsideCutPath
10
203
20
3
11
209.3125
21
3
0
LINE
8
top_outsideCutPath
10
209.3125
20
3
11
209.3125
21
0
0
LINE
8
top_outsideCutPath
10
209.3125
20
0
11
220.9375
21
0
0
LINE
8
top_outsideCutPath
10
220.9375
20
0
11
220.9375
21
3
0
LINE
8
top_outsideCutPath
10
220.9375
20
3
11
232.5625
21
3
0
LINE
8
top_outsideCutPath
10
232.5625
20
3
11
232.5625
21
0
0
LINE
8
top_outsideCutPath
10
232.5625
20
0
11
244.1875
21
0
0
LINE
8
top_outsideCutPath
10
244.1875
20
0
11
244.1875
21
3
0
LINE
8
top_outsideCutPath
10
244.1875
20
3
11
255.8125
21
3
0
LINE
8
top_outsideCutPath
10
255.8125
20
3
11
255.8125
21
0
0
LINE
8
top_outsideCutPath
10
255.8125
20
0
11
267.4375
21
0
0
LINE
8
top_outsideCutPath
10
267.4375
20
0
11
267.4375
21
3
0
LINE
8
top_outsideCutPath
10
267.4375
20
3
11
279.0625
21
3
0
LINE
8
top_outsideCutPath
10
279.0625
20
3
11
279.0625
21
0
0
LINE
8
top_outsideCutPath
10
279.0625
20
0
11
290.6875
21
0
0
LINE
8
top_outsideCutPath
10
290.6875
20
0
11
290.6875
21
3
0
LINE
8
top_outsideCutPath
10
290.6875
20
3
11
297
21
3
0
LINE
8
top_outsideCutPath
10
297
20
3
11
297
21
9.3125
0
LINE
8
top_outsideCutPath
10
297
20
9.3125
11
300
21
9.3125
0
LINE
8
top_outsideCutPath
10
300
20
9.3125
11
300
21
20.9375
0
LINE
8
top_outsideCutPath
10
300
20
20.9375
11
297
21
20.9375
0
LINE
8
top_outsideCutPath
10
297
20
20.9375
11
297
21
32.5625
0
LINE
8
top_outsideCutPath
10
297
20
32.5625
11
300
21
32.5625
0
LINE
8
top_outsideCutPath
10
300
20
32.5625
11
300
21
44.1875
0
LINE
8
top_outsideCutPath
10
300
20
44.1875
11
297
21
44.1875
0
LINE
8
top_outsideCutPath
10
297
20
44.1875
11
297
21
55.8125
0
LINE
8
top_outsideCutPath
10
297
20
55.8125
11
300
21
55.8125
0
LINE
8
top_outsideCutPath
10
300
20
55.8125
11
300
21
67.4375
0
LINE
8
top_outsideCutPath
10
300
20
67.4375
11
297
21
67.4375
0
LINE
8
top_outsideCutPath
10
297
20
67.4375
11
297
21
79.0625
0
LINE
8
top_outsideCutPath
10
297
20
79.0625
11
300
21
79.0625
0
LINE
8
top_outsideCutPath
10
300
20
79.0625
11
300
21
90.6875
0
LINE
8
top_outsideCutPath
10
300
20
90.6875
11
297
21
90.6875
0
LINE
8
top_outsideCutPath
10
297
20
90.6875
11
297
21
97
0
LINE
8
top_outsideCutPath
10
297
20
97
11
290.6875
21
97
0
LINE
8
top_outsideCutPath
10
290.6875
20
97
11
290.6875
21
103
0
LINE
8
top_outsideCutPath
10
279.0625
20
100
11
290.6875
21
100
0
LINE
8
top_outsideCutPath
10
279.0625
20
97
11
279.0625
21
103
0
LINE
8
top_outsideCutPath
10
279.0625
20
97
11
267.4375
21
97
0
LINE
8
top_outsideCutPath
10
267.4375
20
97
11
267.4375
21
103
0
LINE
8
top_outsideCutPath
10
255.8125
20
100
11
267.4375
21
100
0
LINE
8
top_outsideCutPath
10
255.8125
20
97
11
255.8125
21
103
0
LINE
8
top_outsideCutPath
10
255.8125
20
97
11
244.1875
21
97
0
LINE
8
top_outsideCutPath
10
244.1875
20
97
11
244.1875
21
103
0
LINE
8
top_outsideCutPath
10
232.5625
20
100
11
244.1875
21
100
0
LINE
8
top_outsideCutPath
10
232.5625
20
97
11
232.5625
21
103
0
LINE
8
top_outsideCutPath
10
232.5625
20
97
11
220.9375
21
97
0
LINE
8
top_outsideCutPath
10
220.9375
20
97
11
220.9375
21
103
0
LINE
8
top_outsideCutPath
10
209.3125
20
100
11
220.9375
21
100
0
LINE
8
top_outsideCutPath
10
209.3125
20
97
11
209.3125
21
103
0
LINE
8
top_outsideCutPath
10
209.3125
20
97
11
203
21
97
0
LINE
8
back_outsideCutPath
10
0
20
300
11
0
21
288.9375
0
LINE
8
back_outsideCutPath
10
0
20
288.9375
11
3
21
288.9375
0
LINE
8
back_outsideCutPath
10
3
20
288.9375
11
3
21
277.3125
0
LINE
8
back_outsideCutPath
10
3
20
277.3125
11
0
21
277.3125
0
LINE
8
back_outsideCutPath
10
0
20
277.3125
11
0
21
265.6875
0
LINE
8
back_outsideCutPath
10
0
20
265.6875
11
3
21
265.6875
0
LINE
8
back_outsideCutPath
10
3
20
265.6875
11
3
21
254.0625
0
LINE
8
back_outsideCutPath
10
3
20
254.0625
11
0
21
254.0625
0
LINE
8
back_outsideCutPath
10
0
20
254.0625
11
0
21
242.4375
0
LINE
8
back_outsideCutPath
10
0
20
242.4375
11
3
21
242.4375
0
LINE
8
back_outsideCutPath
10
3
20
242.4375
11
3
21
230.8125
0
LINE
8
back_outsideCutPath
10
3
20
230.8125
11
0
21
230.8125
0
LINE
8
back_outsideCutPath
10
0
20
230.8125
11
0
21
219.1875
0
LINE
8
back_outsideCutPath
10
0
20
219.1875
11
3
21
219.1875
0
LINE
8
back_outsideCutPath
10
3
20
219.1875
11
3
21
207.5625
0
LINE
8
back_outsideCutPath
10
3
20
207.5625
11
0
21
207.5625
0
LINE
8
back_outsideCutPath
10
0
20
207.5625
11
0
21
195.9375
0
LINE
8
back_outsideCutPath
10
0
20
195.9375
11
3
21
195.9375
0
LINE
8
back_outsideCutPath
10
3
20
195.9375
11
3
21
184.3125
0
LINE
8
back_outsideCutPath
10
3
20
184.3125
11
0
21
184.3125
0
LINE
8
back_outsideCutPath
10
0
20
184.3125
11
0
21
172.6875
0
LINE
8
back_outsideCutPath
10
0
20
172.6875
11
3
21
172.6875
0
LINE
8
back_outsideCutPath
10
3
20
172.6875
11
3
21
161.0625
0
LINE
8
back_outsideCutPath
10
3
20
161.0625
11
0
21
161.0625
0
LINE
8
back_outsideCutPath
10
9.3125
20
153
11
20.9375
21
153
0
LINE
8
back_outsideCutPath
10
32.5625
20
153
11
44.1875
21
153
0
LINE
8
back_outsideCutPath
10
55.8125
20
153
11
67.4375
21
153
0
LINE
8
back_outsideCutPath
10
79.0625
20
153
11
90.6875
21
153
0
LINE
8
back_outsideCutPath
10
97
20
161.0625
11
103
21
161.0625
0
LINE
8
back_outsideCutPath
10
97
20
161.0625
11
97
21
172.6875
0
LINE
8
back_outsideCutPath
10
97
20
172.6875
11
103
21
172.6875
0
LINE
8
back_outsideCutPath
10
100
20
172.6875
11
100
21
195.9375
0
LINE
8
back_outsideCutPath
10
97
20
184.3125
11
103
21
184.3125
0
LINE
8
back_outsideCutPath
10
97
20
184.3125
11
97
21
195.9375
0
LINE
8
back_outsideCutPath
10
97
20
195.9375
11
103
21
195.9375
0
LINE
8
back_outsideCutPath
10
100
20
195.9375
11
100
21
219.1875
0
LINE
8
back_outsideCutPath
10
97
20
207.5625
11
103
21
207.5625
0
LINE
8
back_outsideCutPath
10
97
20
207.5625
11
97
21
219.1875
0
LINE
8
back_outsideCutPath
10
97
20
219.1875
11
103
21
219.1875
0
LINE
8
back_outsideCutPath
10
100
20
219.1875
11
100
21
242.4375
0
LINE
8
back_outsideCutPath
10
97
20
230.8125
11
103
21
230.8125
0
LINE
8
back_outsideCutPath
10
97
20
230.8125
11
97
21
242.4375
0
LINE
8
back_outsideCutPath
10
97
20
242.4375
11
103
21
242.4375
0
LINE
8
back_outsideCutPath
10
100
20
242.4375
11
100
21
265.6875
0
LINE
8
back_outsideCutPath
10
97
20
254.0625
11
103
21
254.0625
0
LINE
8
back_outsideCutPath
10
97
20
254.0625
11
97
21
265.6875
0
LINE
8
back_outsideCutPath
10
97
20
265.6875
11
103
21
265.6875
0
LINE
8
back_outsideCutPath
10
100
20
265.6875
11
100
21
288.9375
0
LINE
8
back_outsideCutPath
10
97
20
277.3125
11
103
21
277.3125
0
LINE
8
back_outsideCutPath
10
97
20
277.3125
11
97
21
288.9375
0
LINE
8
back_outsideCutPath
10
97
20
288.9375
11
103
21
288.9375
0
LINE
8
back_outsideCutPath
10
100
20
288.9375
11
100
21
300
0
LINE
8
back_outsideCutPath
10
100
20
300
11
90.6875
21
300
0
LINE
8
back_outsideCutPath
10
90.6875
20
300
11
90.6875
21
297
0
LINE
8
back_outsideCutPath
10
90.6875
20
297
11
79.0625
21
297
0
LINE
8
back_outsideCutPath
10
79.0625
20
297
11
79.0625
21
300
0
LINE
8
back_outsideCutPath
10
79.0625
20
300
11
67.4375
21
300
0
LINE
8
back_outsideCutPath
10
67.4375
20
300
11
67.4375
21
297
0
LINE
8
back_outsideCutPath
10
67.4375
20
297
11
55.8125
21
297
0
LINE
8
back_outsideCutPath
10
55.8125
20
297
11
55.8125
21
300
0
LINE
8
back_outsideCutPath
10
55.8125
20
300
11
44.1875
21
300
0
LINE
8
back_outsideCutPath
10
44.1875
20
300
11
44.1875
21
297
0
LINE
8
back_outsideCutPath
10
44.1875
20
297
11
32.5625
21
297
0
LINE
8
back_outsideCutPath
10
32.5625
20
297
11
32.5625
21
300
0
LINE
8
back_outsideCutPath
10
32.5625
20
300
11
20.9375
21
300
0
LINE
8
back_outsideCutPath
10
20.9375
20
300
11
20.9375
21
297
0
LINE
8
back_outsideCutPath
10
20.9375
20
297
11
9.3125
21
297
0
LINE
8
back_outsideCutPath
10
9.3125
20
297
11
9.3125
21
300
0
LINE
8
back_outsideCutPath
10
9.3125
20
300
11
0
21
300
0
LINE
8
right_outsideCutPath
10
103
20
300
11
103
21
288.9375
0
LINE
8
right_outsideCutPath
10
103
20
277.3125
11
103
21
265.6875
0
LINE
8
right_outsideCutPath
10
103
20
254.0625
11
103
21
242.4375
0
LINE
8
right_outsideCutPath
10
103
20
230.8125
11
103
21
219.1875
0
LINE
8
right_outsideCutPath
10
103
20
207.5625
11
103
21
195.9375
0
LINE
8
right_outsideCutPath
10
103
20
184.3125
11
103
21
172.6875
0
LINE
8
right_outsideCutPath
10
109.3125
20
153
11
120.9375
21
153
0
LINE
8
right_outsideCutPath
10
132.5625
20
153
11
144.1875
21
153
0
LINE
8
right_outsideCutPath
10
155.8125
20
153
11
167.4375
21
153
0
LINE
8
right_outsideCutPath
10
179.0625
20
153
11
190.6875
21
153
0
LINE
8
right_outsideCutPath
10
197
20
161.0625
11
200
21
161.0625
0
LINE
8
right_outsideCutPath
10
200
20
155.8125
11
200
21
172.6875
0
LINE
8
right_outsideCutPath
10
200
20
172.6875
11
197
21
172.6875
0
LINE
8
right_outsideCutPath
10
197
20
172.6875
11
197
21
184.3125
0
LINE
8
right_outsideCutPath
10
197
20
184.3125
11
200
21
184.3125
0
LINE
8
right_outsideCutPath
10
200
20
179.0625
11
200
21
195.9375
0
LINE
8
right_outsideCutPath
10
200
20
195.9375
11
197
21
195.9375
0
LINE
8
right_outsideCutPath
10
197
20
195.9375
11
197
21
207.5625
0
LINE
8
right_outsideCutPath
10
197
20
207.5625
11
200
21
207.5625
0
LINE
8
right_outsideCutPath
10
200
20
207.5625
11
200
21
219.1875
0
LINE
8
right_outsideCutPath
10
200
20
219.1875
11
197
21
219.1875
0
LINE
8
right_outsideCutPath
10
197
20
219.1875
11
197
21
230.8125
0
LINE
8
right_outsideCutPath
10
197
20
230.8125
11
200
21
230.8125
0
LINE
8
right_outsideCutPath
10
200
20
230.8125
11
200
21
242.4375
0
LINE
8
right_outsideCutPath
10
200
20
242.4375
11
197
21
242.4375
0
LINE
8
right_outsideCutPath
10
197
20
242.4375
11
197
21
254.0625
0
LINE
8
right_outsideCutPath
10
197
20
254.0625
11
200
21
254.0625
0
LINE
8
right_outsideCutPath
10
200
20
254.0625
11
200
21
265.6875
0
LINE
8
right_outsideCutPath
10
200
20
265.6875
11
197
21
265.6875
0
LINE
8
right_outsideCutPath
10
197
20
265.6875
11
197
21
277.3125
0
LINE
8
right_outsideCutPath
10
197
20
277.3125
11
200
21
277.3125
0
LINE
8
right_outsideCutPath
10
200
20
277.3125
11
200
21
288.9375
0
LINE
8
right_outsideCutPath
10
200
20
288.9375
11
197
21
288.9375
0
LINE
8
right_outsideCutPath
10
197
20
288.9375
11
197
21
300
0
LINE
8
right_outsideCutPath
10
197
20
300
11
190.6875
21
300
0
LINE
8
right_outsideCutPath
10
190.6875
20
300
11
190.6875
21
297
0
LINE
8
right_outsideCutPath
10
190.6875
20
297
11
179.0625
21
297
0
LINE
8
right_outsideCutPath
10
179.0625
20
297
11
179.0625
21
300
0
LINE
8
right_outsideCutPath
10
179.0625
20
300
11
167.4375
21
300
0
LINE
8
right_outsideCutPath
10
167.4375
20
300
11
167.4375
21
297
0
LINE
8
right_outsideCutPath
10
167.4375
20
297
11
155.8125
21
297
0
LINE
8
right_outsideCutPath
10
155.8125
20
297
11
155.8125
21
300
0
LINE
8
right_outsideCutPath
10
155.8125
20
300
11
144.1875
21
300
0
LINE
8
right_outsideCutPath
10
144.1875
20
300
11
144.1875
21
297
0
LINE
8
right_outsideCutPath
10
144.1875
20
297
11
132.5625
21
297
0
LINE
8
right_outsideCutPath
10
132.5625
20
297
11
132.5625
21
300
0
LINE
8
right_outsideCutPath
10
132.5625
20
300
11
120.9375
21
300
0
LINE
8
right_outsideCutPath
10
120.9375
20
300
11
120.9375
21
297
0
LINE
8
right_outsideCutPath
10
120.9375
20
297
11
109.3125
21
297
0
LINE
8
right_outsideCutPath
10
109.3125
20
297
11
109.3125
21
300
0
LINE
8
right_outsideCutPath
10
109.3125
20
300
11
103
21
300
0
LINE
8
bottom_outsideCutPath
10
203
20
197
11
203
21
190.6875
0
LINE
8
bottom_outsideCutPath
10
203
20
190.6875
11
200
21
190.6875
0
LINE
8
bottom_outsideCutPath
10
200
20
179.0625
11
203
21
179.0625
0
LINE
8
bottom_outsideCutPath
10
203
20
179.0625
11
203
21
167.4375
0
LINE
8
bottom_outsideCutPath
10
203
20
167.4375
11
200
21
167.4375
0
LINE
8
bottom_outsideCutPath
10
200
20
155.8125
11
203
21
155.8125
0
LINE
8
bottom_outsideCutPath
10
203
20
155.8125
11
203
21
144.1875
0
LINE
8
bottom_outsideCutPath
10
203
20
144.1875
11
200
21
144.1875
0
LINE
8
bottom_outsideCutPath
10
200
20
132.5625
11
203
21
132.5625
0
LINE
8
bottom_outsideCutPath
10
203
20
132.5625
11
203
21
120.9375
0
LINE
8
bottom_outsideCutPath
10
203
20
120.9375
11
200
21
120.9375
0
LINE
8
bottom_outsideCutPath
10
200
20
109.3125
11
203
21
109.3125
0
LINE
8
bottom_outsideCutPath
10
203
20
109.3125
11
203
21
103
0
LINE
8
bottom_outsideCutPath
10
203
20
103
11
209.3125
21
103
0
LINE
8
bottom_outsideCutPath
10
220.9375
20
103
11
232.5625
21
103
0
LINE
8
bottom_outsideCutPath
10
244.1875
20
103
11
255.8125
21
103
0
LINE
8
bottom_outsideCutPath
10
267.4375
20
103
11
279.0625
21
103
0
LINE
8
bottom_outsideCutPath
10
290.6875
20
103
11
297
21
103
0
LINE
8
bottom_outsideCutPath
10
297
20
103
11
297
21
109.3125
0
LINE
8
bottom_outsideCutPath
10
297
20
109.3125
11
300
21
109.3125
0
LINE
8
bottom_outsideCutPath
10
300
20
109.3125
11
300
21
120.9375
0
LINE
8
bottom_outsideCutPath
10
300
20
120.9375
11
297
21
120.9375
0
LINE
8
bottom_outsideCutPath
10
297
20
120.9375
11
297
21
132.5625
0
LINE
8
bottom_outsideCutPath
10
297
20
132.5625
11
300
21
132.5625
0
LINE
8
bottom_outsideCutPath
10
300
20
132.5625
11
300
21
144.1875
0
LINE
8
bottom_outsideCutPath
10
300
20
144.1875
11
297
21
144.1875
0
LINE
8
bottom_outsideCutPath
10
297
20
144.1875
11
297
21
155.8125
0
LINE
8
bottom_outsideCutPath
10
297
20
155.8125
11
300
21
155.8125
0
LINE
8
bottom_outsideCutPath
10
300
20
155.8125
11
300
21
167.4375
0
LINE
8
bottom_outsideCutPath
10
300
20
167.4375
11
297
21
167.4375
0
LINE
8
bottom_outsideCutPath
10
297
20
167.4375
11
297
21
179.0625
0
LINE
8
bottom_outsideCutPath
10
297
20
179.0625
11
300
21
179.0625
0
LINE
8
bottom_outsideCutPath
10
300
20
179.0625
11
300
21
190.6875
0
LINE
8
bottom_outsideCutPath
10
300
20
190.6875
11
297
21
190.6875
0
LINE
8
bottom_outsideCutPath
10
297
20
190.6875
11
297
21
197
0
LINE
8
bottom_outsideCutPath
10
297
20
197
11
290.6875
21
197
0
LINE
8
bottom_outsideCutPath
10
290.6875
20
197
11
290.6875
21
200
0
LINE
8
bottom_outsideCutPath
10
290.6875
20
200
11
279.0625
21
200
0
LINE
8
bottom_outsideCutPath
10
279.0625
20
200
11
279.0625
21
197
0
LINE
8
bottom_outsideCutPath
10
279.0625
20
197
11
267.4375
21
197
0
LINE
8
bottom_outsideCutPath
10
267.4375
20
197
11
267.4375
21
200
0
LINE
8
bottom_outsideCutPath
10
267.4375
20
200
11
255.8125
21
200
0
LINE
8
bottom_outsideCutPath
10
255.8125
20
200
11
255.8125
21
197
0
LINE
8
bottom_outsideCutPath
10
255.8125
20
197
11
244.1875
21
197
0
LINE
8
bottom_outsideCutPath
10
244.1875
20
197
11
244.1875
21
200
0
LINE
8
bottom_outsideCutPath
10
244.1875
20
200
11
232.5625
21
200
0
LINE
8
bottom_outsideCutPath
10
232.5625
20
200
11
232.5625
21
197
0
LINE
8
bottom_outsideCutPath
10
232.5625
20
197
11
220.9375
21
197
0
LINE
8
bottom_outsideCutPath
10
220.9375
20
197
11
220.9375
21
200
0
LINE
8
bottom_outsideCutPath
10
220.9375
20
200
11
209.3125
21
200
0
LINE
8
bottom_outsideCutPath
10
209.3125
20
200
11
209.3125
21
197
0
LINE
8
bottom_outsideCutPath
10
209.3125
20
197
11
203
21
197
0
ENDSEC
0
EOF