0
SECTION
2
HEADER
9
$INSUNITS
70
4
0
ENDSEC
0
SECTION
2
TABLES
0
TABLE
2
LTYPE
0
LTYPE
72
65
70
64
2
CONTINUOUS
3
______
73
0
40
0
0
ENDTAB
0
TABLE
2
LAYER
0
ENDTAB
0
ENDSEC
0
SECTION
2
ENTITIES
0
LINE
8
front_outsideCutPath
10
0
20
41.875
11
0
21
51.375
0
LINE
8
front_outsideCutPath
10
0
20
41.875
11
3
21
41.875
0
LINE
8
front_outsideCutPath
10
3
20
41.875
11
3
21
35.125
0
LINE
8
front_outsideCutPath
10
3
20
35.125
11
0
21
35.125
0
LINE
8
front_outsideCutPath
10
0
20
35.125
11
0
21
28.375
0
LINE
8
front_outsideCutPath
10
0
20
28.375
11
3
21
28.375
0
LINE
8
front_outsideCutPath
10
3
20
28.375
11
3
21
21.625
0
LINE
8
front_outsideCutPath
10
3
20
21.625
11
0
21
21.625
0
LINE
8
front_outsideCutPath
10
0
20
21.625
11
0
21
14.875
0
LINE
8
front_outsideCutPath
10
0
20
14.875
11
3
21
14.875
0
LINE
8
front_outsideCutPath
10
3
20
14.875
11
3
21
8.125
0
LINE
8
front_outsideCutPath
10
3
20
8.125
11
0
21
8.125
0
LINE
8
front_outsideCutPath
10
0
20
8.125
11
0
21
1.375
0
LINE
8
front_outsideCutPath
10
0
20
1.375
11
0
21
0
0
LINE
8
front_outsideCutPath
10
0
20
0
11
8.125
21
0
0
LINE
8
front_outsideCutPath
10
8.125
20
0
11
8.125
21
3
0
LINE
8
front_outsideCutPath
10
8.125
20
3
11
14.875
21
3
0
LINE
8
front_outsideCutPath
10
14.875
20
3
11
14.875
21
0
0
LINE
8
front_outsideCutPath
10
14.875
20
0
11
21.625
21
0
0
LINE
8
front_outsideCutPath
10
21.625
20
0
11
21.625
21
3
0
LINE
8
front_outsideCutPath
10
21.625
20
3
11
28.375
21
3
0
LINE
8
front_outsideCutPath
10
28.375
20
3
11
28.375
21
0
0
LINE
8
front_outsideCutPath
10
28.375
20
0
11
35.125
21
0
0
LINE
8
front_outsideCutPath
10
35.125
20
0
11
35.125
21
3
0
LINE
8
front_outsideCutPath
10
35.125
20
3
11
41.875
21
3
0
LINE
8
front_outsideCutPath
10
41.875
20
3
11
41.875
21
0
0
LINE
8
front_outsideCutPath
10
41.875
20
0
11
48.625
21
0
0
LINE
8
front_outsideCutPath
10
48.625
20
0
11
50
21
0
0
LINE
8
front_outsideCutPath
10
50
20
0
11
50
21
14.875
0
LINE
8
front_outsideCutPath
10
47
20
8.125
11
53
21
8.125
0
LINE
8
front_outsideCutPath
10
47
20
8.125
11
47
21
14.875
0
LINE
8
front_outsideCutPath
10
47
20
14.875
11
53
21
14.875
0
LINE
8
front_outsideCutPath
10
50
20
14.875
11
50
21
28.375
0
LINE
8
front_outsideCutPath
10
47
20
21.625
11
53
21
21.625
0
LINE
8
front_outsideCutPath
10
47
20
21.625
11
47
21
28.375
0
LINE
8
front_outsideCutPath
10
47
20
28.375
11
53
21
28.375
0
LINE
8
front_outsideCutPath
10
50
20
28.375
11
50
21
41.875
0
LINE
8
front_outsideCutPath
10
47
20
35.125
11
53
21
35.125
0
LINE
8
front_outsideCutPath
10
47
20
35.125
11
47
21
41.875
0
LINE
8
front_outsideCutPath
10
47
20
41.875
11
53
21
41.875
0
LINE
8
front_outsideCutPath
10
50
20
41.875
11
50
21
48.625
0
LINE
8
front_outsideCutPath
10
50
20
48.625
11
50
21
64.875
0
LINE
8
front_outsideCutPath
10
41.875
20
50
11
50
21
50
0
LINE
8
front_outsideCutPath
10
41.875
20
47
11
41.875
21
53
0
LINE
8
front_outsideCutPath
10
41.875
20
47
11
35.125
21
47
0
LINE
8
front_outsideCutPath
10
35.125
20
47
11
35.125
21
53
0
LINE
8
front_outsideCutPath
10
28.375
20
50
11
35.125
21
50
0
LINE
8
front_outsideCutPath
10
28.375
20
47
11
28.375
21
53
0
LINE
8
front_outsideCutPath
10
28.375
20
47
11
21.625
21
47
0
LINE
8
front_outsideCutPath
10
21.625
20
47
11
21.625
21
53
0
LINE
8
front_outsideCutPath
10
14.875
20
50
11
21.625
21
50
0
LINE
8
front_outsideCutPath
10
14.875
20
47
11
14.875
21
53
0
LINE
8
front_outsideCutPath
10
14.875
20
47
11
8.125
21
47
0
LINE
8
front_outsideCutPath
10
8.125
20
47
11
8.125
21
53
0
LINE
8
front_outsideCutPath
10
0
20
50
11
8.125
21
50
0
LINE
8
front_outsideCutPath
10
1.375
20
50
11
0
21
50
0
LINE
8
left_outsideCutPath
10
53
20
41.875
11
53
21
51.375
0
LINE
8
left_outsideCutPath
10
53
20
35.125
11
53
21
28.375
0
LINE
8
left_outsideCutPath
10
53
20
21.625
11
53
21
14.875
0
LINE
8
left_outsideCutPath
10
53
20
8.125
11
53
21
1.375
0
LINE
8
left_outsideCutPath
10
53
20
1.375
11
53
21
0
0
LINE
8
left_outsideCutPath
10
53
20
0
11
58.125
21
0
0
LINE
8
left_outsideCutPath
10
58.125
20
0
11
58.125
21
3
0
LINE
8
left_outsideCutPath
10
58.125
20
3
11
64.875
21
3
0
LINE
8
left_outsideCutPath
10
64.875
20
3
11
64.875
21
0
0
LINE
8
left_outsideCutPath
10
64.875
20
0
11
71.625
21
0
0
LINE
8
left_outsideCutPath
10
71.625
20
0
11
71.625
21
3
0
LINE
8
left_outsideCutPath
10
71.625
20
3
11
78.375
21
3
0
LINE
8
left_outsideCutPath
10
78.375
20
3
11
78.375
21
0
0
LINE
8
left_outsideCutPath
10
78.375
20
0
11
85.125
21
0
0
LINE
8
left_outsideCutPath
10
85.125
20
0
11
85.125
21
3
0
LINE
8
left_outsideCutPath
10
85.125
20
3
11
91.875
21
3
0
LINE
8
left_outsideCutPath
10
91.875
20
3
11
91.875
21
0
0
LINE
8
left_outsideCutPath
10
91.875
20
0
11
97
21
0
0
LINE
8
left_outsideCutPath
10
97
20
0
11
97
21
8.125
0
LINE
8
left_outsideCutPath
10
97
20
8.125
11
103
21
8.125
0
LINE
8
left_outsideCutPath
10
100
20
8.125
11
100
21
14.875
0
LINE
8
left_outsideCutPath
10
97
20
14.875
11
103
21
14.875
0
LINE
8
left_outsideCutPath
10
97
20
14.875
11
97
21
21.625
0
LINE
8
left_outsideCutPath
10
97
20
21.625
11
103
21
21.625
0
LINE
8
left_outsideCutPath
10
100
20
21.625
11
100
21
28.375
0
LINE
8
left_outsideCutPath
10
97
20
28.375
11
103
21
28.375
0
LINE
8
left_outsideCutPath
10
97
20
28.375
11
97
21
35.125
0
LINE
8
left_outsideCutPath
10
97
20
35.125
11
103
21
35.125
0
LINE
8
left_outsideCutPath
10
100
20
35.125
11
100
21
41.875
0
LINE
8
left_outsideCutPath
10
97
20
41.875
11
103
21
41.875
0
LINE
8
left_outsideCutPath
10
97
20
41.875
11
97
21
48.625
0
LINE
8
left_outsideCutPath
10
97
20
48.625
11
97
21
58.125
0
LINE
8
left_outsideCutPath
10
91.875
20
50
11
97
21
50
0
LINE
8
left_outsideCutPath
10
91.875
20
47
11
91.875
21
53
0
LINE
8
left_outsideCutPath
10
91.875
20
47
11
85.125
21
47
0
LINE
8
left_outsideCutPath
10
85.125
20
47
11
85.125
21
53
0
LINE
8
left_outsideCutPath
10
78.375
20
50
11
85.125
21
50
0
LINE
8
left_outsideCutPath
10
78.375
20
47
11
78.375
21
53
0
LINE
8
left_outsideCutPath
10
78.375
20
47
11
71.625
21
47
0
LINE
8
left_outsideCutPath
10
71.625
20
47
11
71.625
21
53
0
LINE
8
left_outsideCutPath
10
64.875
20
50
11
71.625
21
50
0
LINE
8
left_outsideCutPath
10
64.875
20
47
11
64.875
21
53
0
LINE
8
left_outsideCutPath
10
64.875
20
47
11
58.125
21
47
0
LINE
8
left_outsideCutPath
10
58.125
20
47
11
58.125
21
53
0
LINE
8
left_outsideCutPath
10
53
20
50
11
58.125
21
50
0
LINE
8
top_outsideCutPath
10
103
20
47
11
103
21
41.875
0
LINE
8
top_outsideCutPath
10
103
20
35.125
11
103
21
28.375
0
LINE
8
top_outsideCutPath
10
103
20
21.625
11
103
21
14.875
0
LINE
8
top_outsideCutPath
10
103
20
8.125
11
103
21
3
0
LINE
8
top_outsideCutPath
10
103
20
3
11
108.125
21
3
0
LINE
8
top_outsideCutPath
10
108.125
20
3
11
108.125
21
0
0
LINE
8
top_outsideCutPath
10
108.125
20
0
11
114.875
21
0
0
LINE
8
top_outsideCutPath
10
114.875
20
0
11
114.875
21
3
0
LINE
8
top_outsideCutPath
10
114.875
20
3
11
121.625
21
3
0
LINE
8
top_outsideCutPath
10
121.625
20
3
11
121.625
21
0
0
LINE
8
top_outsideCutPath
10
121.625
20
0
11
128.375
21
0
0
LINE
8
top_outsideCutPath
10
128.375
20
0
11
128.375
21
3
0
LINE
8
top_outsideCutPath
10
128.375
20
3
11
135.125
21
3
0
LINE
8
top_outsideCutPath
10
135.125
20
3
11
135.125
21
0
0
LINE
8
top_outsideCutPath
10
135.125
20
0
11
141.875
21
0
0
LINE
8
top_outsideCutPath
10
141.875
20
0
11
141.875
21
3
0
LINE
8
top_outsideCutPath
10
141.875
20
3
11
147
21
3
0
LINE
8
top_outsideCutPath
10
147
20
3
11
147
21
8.125
0
LINE
8
top_outsideCutPath
10
147
20
8.125
11
150
21
8.125
0
LINE
8
top_outsideCutPath
10
150
20
8.125
11
150
21
14.875
0
LINE
8
top_outsideCutPath
10
150
20
14.875
11
147
21
14.875
0
LINE
8
top_outsideCutPath
10
147
20
14.875
11
147
21
21.625
0
LINE
8
top_outsideCutPath
10
147
20
21.625
11
150
21
21.625
0
LINE
8
top_outsideCutPath
10
150
20
21.625
11
150
21
28.375
0
LINE
8
top_outsideCutPath
10
150
20
28.375
11
147
21
28.375
0
LINE
8
top_outsideCutPath
10
147
20
28.375
11
147
21
35.125
0
LINE
8
top_outsideCutPath
10
147
20
35.125
11
150
21
35.125
0
LINE
8
top_outsideCutPath
10
150
20
35.125
11
150
21
41.875
0
LINE
8
top_outsideCutPath
10
150
20
41.875
11
147
21
41.875
0
LINE
8
top_outsideCutPath
10
147
20
41.875
11
147
21
47
0
LINE
8
top_outsideCutPath
10
147
20
47
11
141.875
21
47
0
LINE
8
top_outsideCutPath
10
141.875
20
47
11
141.875
21
53
0
LINE
8
top_outsideCutPath
10
135.125
20
50
11
141.875
21
50
0
LINE
8
top_outsideCutPath
10
135.125
20
47
11
135.125
21
53
0
LINE
8
top_outsideCutPath
10
135.125
20
47
11
128.375
21
47
0
LINE
8
top_outsideCutPath
10
128.375
20
47
11
128.375
21
53
0
LINE
8
top_outsideCutPath
10
121.625
20
50
11
128.375
21
50
0
LINE
8
top_outsideCutPath
10
121.625
20
47
11
121.625
21
53
0
LINE
8
top_outsideCutPath
10
121.625
20
47
11
114.875
21
47
0
LINE
8
top_outsideCutPath
10
114.875
20
47
11
114.875
21
53
0
LINE
8
top_outsideCutPath
10
108.125
20
50
11
114.875
21
50
0
LINE
8
top_outsideCutPath
10
108.125
20
47
11
108.125
21
53
0
LINE
8
top_outsideCutPath
10
108.125
20
47
11
103
21
47
0
LINE
8
back_outsideCutPath
10
0
20
100
11
0
21
91.875
0
LINE
8
back_outsideCutPath
10
0
20
91.875
11
3
21
91.875
0
LINE
8
back_outsideCutPath
10
3
20
91.875
11
3
21
85.125
0
LINE
8
back_outsideCutPath
10
3
20
85.125
11
0
21
85.125
0
LINE
8
back_outsideCutPath
10
0
20
85.125
11
0
21
78.375
0
LINE
8
back_outsideCutPath
10
0
20
78.375
11
3
21
78.375
0
LINE
8
back_outsideCutPath
10
3
20
78.375
11
3
21
71.625
0
LINE
8
back_outsideCutPath
10
3
20
71.625
11
0
21
71.625
0
LINE
8
back_outsideCutPath
10
0
20
71.625
11
0
21
64.875
0
LINE
8
back_outsideCutPath
10
0
20
64.875
11
3
21
64.875
0
LINE
8
back_outsideCutPath
10
3
20
64.875
11
3
21
58.125
0
LINE
8
back_outsideCutPath
10
3
20
58.125
11
0
21
58.125
0
LINE
8
back_outsideCutPath
10
0
20
58.125
11
0
21
51.375
0
LINE
8
back_outsideCutPath
10
8.125
20
53
11
14.875
21
53
0
LINE
8
back_outsideCutPath
10
21.625
20
53
11
28.375
21
53
0
LINE
8
back_outsideCutPath
10
35.125
20
53
11
41.875
21
53
0
LINE
8
back_outsideCutPath
10
47
20
58.125
11
53
21
58.125
0
LINE
8
back_outsideCutPath
10
47
20
58.125
11
47
21
64.875
0
LINE
8
back_outsideCutPath
10
47
20
64.875
11
53
21
64.875
0
LINE
8
back_outsideCutPath
10
50
20
64.875
11
50
21
78.375
0
LINE
8
back_outsideCutPath
10
47
20
71.625
11
53
21
71.625
0
LINE
8
back_outsideCutPath
10
47
20
71.625
11
47
21
78.375
0
LINE
8
back_outsideCutPath
10
47
20
78.375
11
53
21
78.375
0
LINE
8
back_outsideCutPath
10
50
20
78.375
11
50
21
91.875
0
LINE
8
back_outsideCutPath
10
47
20
85.125
11
53
21
85.125
0
LINE
8
back_outsideCutPath
10
47
20
85.125
11
47
21
91.875
0
LINE
8
back_outsideCutPath
10
47
20
91.875
11
53
21
91.875
0
LINE
8
back_outsideCutPath
10
50
20
91.875
11
50
21
98.625
0
LINE
8
back_outsideCutPath
10
50
20
98.625
11
50
21
100
0
LINE
8
back_outsideCutPath
10
50
20
100
11
41.875
21
100
0
LINE
8
back_outsideCutPath
10
41.875
20
100
11
41.875
21
97
0
LINE
8
back_outsideCutPath
10
41.875
20
97
11
35.125
21
97
0
LINE
8
back_outsideCutPath
10
35.125
20
97
11
35.125
21
100
0
LINE
8
back_outsideCutPath
10
35.125
20
100
11
28.375
21
100
0
LINE
8
back_outsideCutPath
10
28.375
20
100
11
28.375
21
97
0
LINE
8
back_outsideCutPath
10
28.375
20
97
11
21.625
21
97
0
LINE
8
back_outsideCutPath
10
21.625
20
97
11
21.625
21
100
0
LINE
8
back_outsideCutPath
10
21.625
20
100
11
14.875
21
100
0
LINE
8
back_outsideCutPath
10
14.875
20
100
11
14.875
21
97
0
LINE
8
back_outsideCutPath
10
14.875
20
97
11
8.125
21
97
0
LINE
8
back_outsideCutPath
10
8.125
20
97
11
8.125
21
100
0
LINE
8
back_outsideCutPath
10
8.125
20
100
11
1.375
21
100
0
LINE
8
back_outsideCutPath
10
1.375
20
100
11
0
21
100
0
LINE
8
right_outsideCutPath
10
53
20
100
11
53
21
91.875
0
LINE
8
right_outsideCutPath
10
53
20
85.125
11
53
21
78.375
0
LINE
8
right_outsideCutPath
10
53
20
71.625
11
53
21
64.875
0
LINE
8
right_outsideCutPath
10
53
20
58.125
11
53
21
51.375
0
LINE
8
right_outsideCutPath
10
58.125
20
53
11
64.875
21
53
0
LINE
8
right_outsideCutPath
10
71.625
20
53
11
78.375
21
53
0
LINE
8
right_outsideCutPath
10
85.125
20
53
11
91.875
21
53
0
LINE
8
right_outsideCutPath
10
97
20
58.125
11
103
21
58.125
0
LINE
8
right_outsideCutPath
10
100
20
58.125
11
100
21
64.875
0
LINE
8
right_outsideCutPath
10
97
20
64.875
11
103
21
64.875
0
LINE
8
right_outsideCutPath
10
97
20
64.875
11
97
21
71.625
0
LINE
8
right_outsideCutPath
10
97
20
71.625
11
103
21
71.625
0
LINE
8
right_outsideCutPath
10
100
20
71.625
11
100
21
78.375
0
LINE
8
right_outsideCutPath
10
97
20
78.375
11
103
21
78.375
0
LINE
8
right_outsideCutPath
10
97
20
78.375
11
97
21
85.125
0
LINE
8
right_outsideCutPath
10
97
20
85.125
11
103
21
85.125
0
LINE
8
right_outsideCutPath
10
100
20
85.125
11
100
21
91.875
0
LINE
8
right_outsideCutPath
10
97
20
91.875
11
103
21
91.875
0
LINE
8
right_outsideCutPath
10
97
20
91.875
11
97
21
98.625
0
LINE
8
right_outsideCutPath
10
97
20
98.625
11
97
21
100
0
LINE
8
right_outsideCutPath
10
97
20
100
11
91.875
21
100
0
LINE
8
right_outsideCutPath
10
91.875
20
100
11
91.875
21
97
0
LINE
8
right_outsideCutPath
10
91.875
20
97
11
85.125
21
97
0
LINE
8
right_outsideCutPath
10
85.125
20
97
11
85.125
21
100
0
LINE
8
right_outsideCutPath
10
85.125
20
100
11
78.375
21
100
0
LINE
8
right_outsideCutPath
10
78.375
20
100
11
78.375
21
97
0
LINE
8
right_outsideCutPath
10
78.375
20
97
11
71.625
21
97
0
LINE
8
right_outsideCutPath
10
71.625
20
97
11
71.625
21
100
0
LINE
8
right_outsideCutPath
10
71.625
20
100
11
64.875
21
100
0
LINE
8
right_outsideCutPath
10
64.875
20
100
11
64.875
21
97
0
LINE
8
right_outsideCutPath
10
64.875
20
97
11
58.125
21
97
0
LINE
8
right_outsideCutPath
10
58.125
20
97
11
58.125
21
100
0
LINE
8
right_outsideCutPath
10
58.125
20
100
11
53
21
100
0
LINE
8
bottom_outsideCutPath
10
103
20
97
11
103
21
91.875
0
LINE
8
bottom_outsideCutPath
10
103
20
85.125
11
103
21
78.375
0
LINE
8
bottom_outsideCutPath
10
103
20
71.625
11
103
21
64.875
0
LINE
8
bottom_outsideCutPath
10
103
20
58.125
11
103
21
53
0
LINE
8
bottom_outsideCutPath
10
103
20
53
11
108.125
21
53
0
LINE
8
bottom_outsideCutPath
10
114.875
20
53
11
121.625
21
53
0
LINE
8
bottom_outsideCutPath
10
128.375
20
53
11
135.125
21
53
0
LINE
8
bottom_outsideCutPath
10
141.875
20
53
11
147
21
53
0
LINE
8
bottom_outsideCutPath
10
147
20
53
11
147
21
58.125
0
LINE
8
bottom_outsideCutPath
10
147
20
58.125
11
150
21
58.125
0
LINE
8
bottom_outsideCutPath
10
150
20
58.125
11
150
21
64.875
0
LINE
8
bottom_outsideCutPath
10
150
20
64.875
11
147
21
64.875
0
LINE
8
bottom_outsideCutPath
10
147
20
64.875
11
147
21
71.625
0
LINE
8
bottom_outsideCutPath
10
147
20
71.625
11
150
21
71.625
0
LINE
8
bottom_outsideCutPath
10
150
20
71.625
11
150
21
78.375
0
LINE
8
bottom_outsideCutPath
10
150
20
78.375
11
147
21
78.375
0
LINE
8
bottom_outsideCutPath
10
147
20
78.375
11
147
21
85.125
0
LINE
8
bottom_outsideCutPath
10
147
20
85.125
11
150
21
85.125
0
LINE
8
bottom_outsideCutPath
10
150
20
85.125
11
150
21
91.875
0
LINE
8
bottom_outsideCutPath
10
150
20
91.875
11
147
21
91.875
0
LINE
8
bottom_outsideCutPath
10
147
20
91.875
11
147
21
97
0
LINE
8
bottom_outsideCutPath
10
147
20
97
11
141.875
21
97
0
LINE
8
bottom_outsideCutPath
10
141.875
20
97
11
141.875
21
100
0
LINE
8
bottom_outsideCutPath
10
141.875
20
100
11
135.125
21
100
0
LINE
8
bottom_outsideCutPath
10
135.125
20
100
11
135.125
21
97
0
LINE
8
bottom_outsideCutPath
10
135.125
20
97
11
128.375
21
97
0
LINE
8
bottom_outsideCutPath
10
128.375
20
97
11
128.375
21
100
0
LINE
8
bottom_outsideCutPath
10
128.375
20
100
11
121.625
21
100
0
LINE
8
bottom_outsideCutPath
10
121.625
20
100
11
121.625
21
97
0
LINE
8
bottom_outsideCutPath
10
121.625
20
97
11
114.875
21
97
0
LINE
8
bottom_outsideCutPath
10
114.875
20
97
11
114.875
21
100
0
LINE
8
bottom_outsideCutPath
10
114.875
20
100
11
108.125
21
100
0
LINE
8
bottom_outsideCutPath
10
108.125
20
100
11
108.125
21
97
0
LINE
8
bottom_outsideCutPath
10
108.125
20
97
11
103
21
97
0
ENDSEC
0
EOF