0
SECTION
2
HEADER
9
$INSUNITS
70
4
0
ENDSEC
0
SECTION
2
TABLES
0
TABLE
2
LTYPE
0
LTYPE
72
65
70
64
2
CONTINUOUS
3
______
73
0
40
0
0
ENDTAB
0
TABLE
2
LAYER
0
ENDTAB
0
ENDSEC
0
SECTION
2
ENTITIES
0
LINE
8
front_outsideCutPath
10
0
20
38.5
11
0
21
52.5
0
LINE
8
front_outsideCutPath
10
0
20
38.5
11
3
21
38.5
0
LINE
8
front_outsideCutPath
10
3
20
38.5
11
3
21
29.5
0
LINE
8
front_outsideCutPath
10
3
20
29.5
11
0
21
29.5
0
LINE
8
front_outsideCutPath
10
0
20
29.5
11
0
21
20.5
0
LINE
8
front_outsideCutPath
10
0
20
20.5
11
3
21
20.5
0
LINE
8
front_outsideCutPath
10
3
20
20.5
11
3
21
11.5
0
LINE
8
front_outsideCutPath
10
3
20
11.5
11
0
21
11.5
0
LINE
8
front_outsideCutPath
10
0
20
11.5
11
0
21
2.5
0
LINE
8
front_outsideCutPath
10
0
20
2.5
11
0
21
0
0
LINE
8
front_outsideCutPath
10
0
20
0
11
8
21
0
0
LINE
8
front_outsideCutPath
10
8
20
0
11
8
21
3
0
LINE
8
front_outsideCutPath
10
8
20
3
11
17
21
3
0
LINE
8
front_outsideCutPath
10
17
20
3
11
17
21
0
0
LINE
8
front_outsideCutPath
10
17
20
0
11
25
21
0
0
LINE
8
front_outsideCutPath
10
25
20
0
11
25
21
20.5
0
LINE
8
front_outsideCutPath
10
22
20
11.5
11
28
21
11.5
0
LINE
8
front_outsideCutPath
10
22
20
11.5
11
22
21
20.5
0
LINE
8
front_outsideCutPath
10
22
20
20.5
11
28
21
20.5
0
LINE
8
front_outsideCutPath
10
25
20
20.5
11
25
21
38.5
0
LINE
8
front_outsideCutPath
10
22
20
29.5
11
28
21
29.5
0
LINE
8
front_outsideCutPath
10
22
20
29.5
11
22
21
38.5
0
LINE
8
front_outsideCutPath
10
22
20
38.5
11
28
21
38.5
0
LINE
8
front_outsideCutPath
10
25
20
38.5
11
25
21
47.5
0
LINE
8
front_outsideCutPath
10
25
20
47.5
11
25
21
70.5
0
LINE
8
front_outsideCutPath
10
17
20
50
11
25
21
50
0
LINE
8
front_outsideCutPath
10
17
20
47
11
17
21
53
0
LINE
8
front_outsideCutPath
10
17
20
47
11
8
21
47
0
LINE
8
front_outsideCutPath
10
8
20
47
11
8
21
53
0
LINE
8
front_outsideCutPath
10
0
20
50
11
8
21
50
0
LINE
8
left_outsideCutPath
10
28
20
38.5
11
28
21
52.5
0
LINE
8
left_outsideCutPath
10
28
20
29.5
11
28
21
20.5
0
LINE
8
left_outsideCutPath
10
28
20
11.5
11
28
21
2.5
0
LINE
8
left_outsideCutPath
10
28
20
2.5
11
28
21
0
0
LINE
8
left_outsideCutPath
10
28
20
0
11
33
21
0
0
LINE
8
left_outsideCutPath
10
33
20
0
11
33
21
3
0
LINE
8
left_outsideCutPath
10
33
20
3
11
42
21
3
0
LINE
8
left_outsideCutPath
10
42
20
3
11
42
21
0
0
LINE
8
left_outsideCutPath
10
42
20
0
11
47
21
0
0
LINE
8
left_outsideCutPath
10
47
20
0
11
47
21
11.5
0
LINE
8
left_outsideCutPath
10
47
20
11.5
11
50
21
11.5
0
LINE
8
left_outsideCutPath
10
50
20
8
11
50
21
20.5
0
LINE
8
left_outsideCutPath
10
50
20
20.5
11
47
21
20.5
0
LINE
8
left_outsideCutPath
10
47
20
20.5
11
47
21
29.5
0
LINE
8
left_outsideCutPath
10
47
20
29.5
11
50
21
29.5
0
LINE
8
left_outsideCutPath
10
50
20
29.5
11
50
21
42
0
LINE
8
left_outsideCutPath
10
50
20
38.5
11
47
21
38.5
0
LINE
8
left_outsideCutPath
10
47
20
38.5
11
47
21
47.5
0
LINE
8
left_outsideCutPath
10
47
20
47.5
11
47
21
61.5
0
LINE
8
left_outsideCutPath
10
42
20
50
11
47
21
50
0
LINE
8
left_outsideCutPath
10
42
20
47
11
42
21
53
0
LINE
8
left_outsideCutPath
10
42
20
47
11
33
21
47
0
LINE
8
left_outsideCutPath
10
33
20
47
11
33
21
53
0
LINE
8
left_outsideCutPath
10
28
20
50
11
33
21
50
0
LINE
8
top_outsideCutPath
10
53
20
22
11
53
21
17
0
LINE
8
top_outsideCutPath
10
53
20
17
11
50
21
17
0
LINE
8
top_outsideCutPath
10
50
20
8
11
53
21
8
0
LINE
8
top_outsideCutPath
10
53
20
8
11
53
21
3
0
LINE
8
top_outsideCutPath
10
53
20
3
11
58
21
3
0
LINE
8
top_outsideCutPath
10
58
20
3
11
58
21
0
0
LINE
8
top_outsideCutPath
10
58
20
0
11
67
21
0
0
LINE
8
top_outsideCutPath
10
67
20
0
11
67
21
3
0
LINE
8
top_outsideCutPath
10
67
20
3
11
72
21
3
0
LINE
8
top_outsideCutPath
10
72
20
3
11
72
21
8
0
LINE
8
top_outsideCutPath
10
72
20
8
11
75
21
8
0
LINE
8
top_outsideCutPath
10
75
20
8
11
75
21
17
0
LINE
8
top_outsideCutPath
10
75
20
17
11
72
21
17
0
LINE
8
top_outsideCutPath
10
72
20
17
11
72
21
22
0
LINE
8
top_outsideCutPath
10
72
20
22
11
67
21
22
0
LINE
8
top_outsideCutPath
10
67
20
22
11
67
21
28
0
LINE
8
top_outsideCutPath
10
58
20
25
11
67
21
25
0
LINE
8
top_outsideCutPath
10
58
20
22
11
58
21
28
0
LINE
8
top_outsideCutPath
10
58
20
22
11
53
21
22
0
LINE
8
back_outsideCutPath
10
0
20
100
11
0
21
88.5
0
LINE
8
back_outsideCutPath
10
0
20
88.5
11
3
21
88.5
0
LINE
8
back_outsideCutPath
10
3
20
88.5
11
3
21
79.5
0
LINE
8
back_outsideCutPath
10
3
20
79.5
11
0
21
79.5
0
LINE
8
back_outsideCutPath
10
0
20
79.5
11
0
21
70.5
0
LINE
8
back_outsideCutPath
10
0
20
70.5
11
3
21
70.5
0
LINE
8
back_outsideCutPath
10
3
20
70.5
11
3
21
61.5
0
LINE
8
back_outsideCutPath
10
3
20
61.5
11
0
21
61.5
0
LINE
8
back_outsideCutPath
10
0
20
61.5
11
0
21
52.5
0
LINE
8
back_outsideCutPath
10
8
20
53
11
17
21
53
0
LINE
8
back_outsideCutPath
10
22
20
61.5
11
28
21
61.5
0
LINE
8
back_outsideCutPath
10
22
20
61.5
11
22
21
70.5
0
LINE
8
back_outsideCutPath
10
22
20
70.5
11
28
21
70.5
0
LINE
8
back_outsideCutPath
10
25
20
70.5
11
25
21
88.5
0
LINE
8
back_outsideCutPath
10
22
20
79.5
11
28
21
79.5
0
LINE
8
back_outsideCutPath
10
22
20
79.5
11
22
21
88.5
0
LINE
8
back_outsideCutPath
10
22
20
88.5
11
28
21
88.5
0
LINE
8
back_outsideCutPath
10
25
20
88.5
11
25
21
97.5
0
LINE
8
back_outsideCutPath
10
25
20
97.5
11
25
21
100
0
LINE
8
back_outsideCutPath
10
25
20
100
11
17
21
100
0
LINE
8
back_outsideCutPath
10
17
20
100
11
17
21
97
0
LINE
8
back_outsideCutPath
10
17
20
97
11
8
21
97
0
LINE
8
back_outsideCutPath
10
8
20
97
11
8
21
100
0
LINE
8
back_outsideCutPath
10
8
20
100
11
0
21
100
0
LINE
8
right_outsideCutPath
10
28
20
100
11
28
21
88.5
0
LINE
8
right_outsideCutPath
10
28
20
79.5
11
28
21
70.5
0
LINE
8
right_outsideCutPath
10
28
20
61.5
11
28
21
52.5
0
LINE
8
right_outsideCutPath
10
33
20
53
11
42
21
53
0
LINE
8
right_outsideCutPath
10
47
20
61.5
11
50
21
61.5
0
LINE
8
right_outsideCutPath
10
50
20
61.5
11
50
21
70.5
0
LINE
8
right_outsideCutPath
10
50
20
70.5
11
47
21
70.5
0
LINE
8
right_outsideCutPath
10
47
20
70.5
11
47
21
79.5
0
LINE
8
right_outsideCutPath
10
47
20
79.5
11
50
21
79.5
0
LINE
8
right_outsideCutPath
10
50
20
79.5
11
50
21
88.5
0
LINE
8
right_outsideCutPath
10
50
20
88.5
11
47
21
88.5
0
LINE
8
right_outsideCutPath
10
47
20
88.5
11
47
21
97.5
0
LINE
8
right_outsideCutPath
10
47
20
97.5
11
47
21
100
0
LINE
8
right_outsideCutPath
10
47
20
100
11
42
21
100
0
LINE
8
right_outsideCutPath
10
42
20
100
11
42
21
97
0
LINE
8
right_outsideCutPath
10
42
20
97
11
33
21
97
0
LINE
8
right_outsideCutPath
10
33
20
97
11
33
21
100
0
LINE
8
right_outsideCutPath
10
33
20
100
11
28
21
100
0
LINE
8
bottom_outsideCutPath
10
53
20
47
11
53
21
42
0
LINE
8
bottom_outsideCutPath
10
53
20
42
11
50
21
42
0
LINE
8
bottom_outsideCutPath
10
50
20
33
11
53
21
33
0
LINE
8
bottom_outsideCutPath
10
53
20
33
11
53
21
28
0
LINE
8
bottom_outsideCutPath
10
53
20
28
11
58
21
28
0
LINE
8
bottom_outsideCutPath
10
67
20
28
11
72
21
28
0
LINE
8
bottom_outsideCutPath
10
72
20
28
11
72
21
33
0
LINE
8
bottom_outsideCutPath
10
72
20
33
11
75
21
33
0
LINE
8
bottom_outsideCutPath
10
75
20
33
11
75
21
42
0
LINE
8
bottom_outsideCutPath
10
75
20
42
11
72
21
42
0
LINE
8
bottom_outsideCutPath
10
72
20
42
11
72
21
47
0
LINE
8
bottom_outsideCutPath
10
72
20
47
11
67
21
47
0
LINE
8
bottom_outsideCutPath
10
67
20
47
11
67
21
50
0
LINE
8
bottom_outsideCutPath
10
67
20
50
11
58
21
50
0
LINE
8
bottom_outsideCutPath
10
58
20
50
11
58
21
47
0
LINE
8
bottom_outsideCutPath
10
58
20
47
11
53
21
47
0
ENDSEC
0
EOF