0
SECTION
2
HEADER
9
$INSUNITS
70
4
0
ENDSEC
0
SECTION
2
TABLES
0
TABLE
2
LTYPE
0
LTYPE
72
65
70
64
2
CONTINUOUS
3
______
73
0
40
0
0
ENDTAB
0
TABLE
2
LAYER
0
ENDTAB
0
ENDSEC
0
SECTION
2
ENTITIES
0
LINE
8
side1_outsideCutPath
10
5.1961524
20
28
11
5.1961524
21
21.3125
0
LINE
8
side1_outsideCutPath
10
5.1961524
20
21.3125
11
0
21
21.3125
0
LINE
8
side1_outsideCutPath
10
0
20
21.3125
11
0
21
9.6875
0
LINE
8
side1_outsideCutPath
10
0
20
9.6875
11
5.1961524
21
9.6875
0
LINE
8
side1_outsideCutPath
10
5.1961524
20
9.6875
11
5.1961524
21
3
0
LINE
8
side1_outsideCutPath
10
5.1961524
20
3
11
7.6772367
21
3
0
LINE
8
side1_outsideCutPath
10
7.6772367
20
3
11
7.6772367
21
0
0
LINE
8
side1_outsideCutPath
10
7.6772367
20
0
11
19.3022367
21
0
0
LINE
8
side1_outsideCutPath
10
19.3022367
20
0
11
19.3022367
21
3
0
LINE
8
side1_outsideCutPath
10
19.3022367
20
3
11
30.9272367
21
3
0
LINE
8
side1_outsideCutPath
10
30.9272367
20
3
11
30.9272367
21
0
0
LINE
8
side1_outsideCutPath
10
30.9272367
20
0
11
42.5522367
21
0
0
LINE
8
side1_outsideCutPath
10
42.5522367
20
0
11
42.5522367
21
3
0
LINE
8
side1_outsideCutPath
10
42.5522367
20
3
11
50.2294734
21
3
0
LINE
8
side1_outsideCutPath
10
50.2294734
20
3
11
50.2294734
21
21.3125
0
LINE
8
side1_outsideCutPath
10
45.033321
20
9.6875
11
55.4256258
21
9.6875
0
LINE
8
side1_outsideCutPath
10
45.033321
20
9.6875
11
45.033321
21
21.3125
0
LINE
8
side1_outsideCutPath
10
45.033321
20
21.3125
11
55.4256258
21
21.3125
0
LINE
8
side1_outsideCutPath
10
50.2294734
20
21.3125
11
50.2294734
21
28
0
LINE
8
side1_outsideCutPath
10
50.2294734
20
28
11
42.5522367
21
28
0
LINE
8
side1_outsideCutPath
10
42.5522367
20
28
11
42.5522367
21
34
0
LINE
8
side1_outsideCutPath
10
30.9272367
20
31
11
42.5522367
21
31
0
LINE
8
side1_outsideCutPath
10
30.9272367
20
28
11
30.9272367
21
34
0
LINE
8
side1_outsideCutPath
10
30.9272367
20
28
11
19.3022367
21
28
0
LINE
8
side1_outsideCutPath
10
19.3022367
20
28
11
19.3022367
21
34
0
LINE
8
side1_outsideCutPath
10
7.6772367
20
31
11
19.3022367
21
31
0
LINE
8
side1_outsideCutPath
10
7.6772367
20
28
11
7.6772367
21
34
0
LINE
8
side1_outsideCutPath
10
7.6772367
20
28
11
5.1961524
21
28
0
LINE
8
side0_outsideCutPath
10
5.1961524
20
59
11
5.1961524
21
52.3125
0
LINE
8
side0_outsideCutPath
10
5.1961524
20
52.3125
11
0
21
52.3125
0
LINE
8
side0_outsideCutPath
10
0
20
52.3125
11
0
21
40.6875
0
LINE
8
side0_outsideCutPath
10
0
20
40.6875
11
5.1961524
21
40.6875
0
LINE
8
side0_outsideCutPath
10
5.1961524
20
40.6875
11
5.1961524
21
34
0
LINE
8
side0_outsideCutPath
10
5.1961524
20
34
11
7.6772367
21
34
0
LINE
8
side0_outsideCutPath
10
19.3022367
20
34
11
30.9272367
21
34
0
LINE
8
side0_outsideCutPath
10
42.5522367
20
34
11
50.2294734
21
34
0
LINE
8
side0_outsideCutPath
10
50.2294734
20
34
11
50.2294734
21
40.6875
0
LINE
8
side0_outsideCutPath
10
50.2294734
20
40.6875
11
45.033321
21
40.6875
0
LINE
8
side0_outsideCutPath
10
45.033321
20
40.6875
11
45.033321
21
52.3125
0
LINE
8
side0_outsideCutPath
10
45.033321
20
52.3125
11
50.2294734
21
52.3125
0
LINE
8
side0_outsideCutPath
10
50.2294734
20
52.3125
11
50.2294734
21
59
0
LINE
8
side0_outsideCutPath
10
50.2294734
20
59
11
42.5522367
21
59
0
LINE
8
side0_outsideCutPath
10
42.5522367
20
59
11
42.5522367
21
62
0
LINE
8
side0_outsideCutPath
10
21.0342875
20
62
11
42.5522367
21
62
0
LINE
8
side0_outsideCutPath
10
30.9272367
20
62
11
30.9272367
21
59
0
LINE
8
side0_outsideCutPath
10
30.9272367
20
59
11
19.3022367
21
59
0
LINE
8
side0_outsideCutPath
10
19.3022367
20
59
11
19.3022367
21
62
0
LINE
8
side0_outsideCutPath
10
0
20
62
11
19.3022367
21
62
0
LINE
8
side0_outsideCutPath
10
7.6772367
20
62
11
7.6772367
21
59
0
LINE
8
side0_outsideCutPath
10
7.6772367
20
59
11
5.1961524
21
59
0
LINE
8
side2_outsideCutPath
10
55.4256258
20
28
11
55.4256258
21
21.3125
0
LINE
8
side2_outsideCutPath
10
55.4256258
20
9.6875
11
55.4256258
21
3
0
LINE
8
side2_outsideCutPath
10
55.4256258
20
3
11
57.9067101
21
3
0
LINE
8
side2_outsideCutPath
10
57.9067101
20
3
11
57.9067101
21
0
0
LINE
8
side2_outsideCutPath
10
57.9067101
20
0
11
69.5317101
21
0
0
LINE
8
side2_outsideCutPath
10
69.5317101
20
0
11
69.5317101
21
3
0
LINE
8
side2_outsideCutPath
10
69.5317101
20
3
11
81.1567101
21
3
0
LINE
8
side2_outsideCutPath
10
81.1567101
20
3
11
81.1567101
21
0
0
LINE
8
side2_outsideCutPath
10
81.1567101
20
0
11
92.7817101
21
0
0
LINE
8
side2_outsideCutPath
10
92.7817101
20
0
11
92.7817101
21
3
0
LINE
8
side2_outsideCutPath
10
92.7817101
20
3
11
100.4589468
21
3
0
LINE
8
side2_outsideCutPath
10
100.4589468
20
3
11
100.4589468
21
9.6875
0
LINE
8
side2_outsideCutPath
10
100.4589468
20
9.6875
11
95.2627944
21
9.6875
0
LINE
8
side2_outsideCutPath
10
95.2627944
20
9.6875
11
95.2627944
21
21.3125
0
LINE
8
side2_outsideCutPath
10
95.2627944
20
21.3125
11
100.4589468
21
21.3125
0
LINE
8
side2_outsideCutPath
10
100.4589468
20
21.3125
11
100.4589468
21
28
0
LINE
8
side2_outsideCutPath
10
100.4589468
20
28
11
92.7817101
21
28
0
LINE
8
side2_outsideCutPath
10
92.7817101
20
28
11
92.7817101
21
31
0
LINE
8
side2_outsideCutPath
10
74.7278626
20
31
11
92.7817101
21
31
0
LINE
8
side2_outsideCutPath
10
81.1567101
20
31
11
81.1567101
21
28
0
LINE
8
side2_outsideCutPath
10
81.1567101
20
28
11
69.5317101
21
28
0
LINE
8
side2_outsideCutPath
10
69.5317101
20
28
11
69.5317101
21
31
0
LINE
8
side2_outsideCutPath
10
53.693575
20
31
11
69.5317101
21
31
0
LINE
8
side2_outsideCutPath
10
57.9067101
20
31
11
57.9067101
21
28
0
LINE
8
side2_outsideCutPath
10
57.9067101
20
28
11
55.4256258
21
28
0
LINE
8
top_outsideCutPath
10
26.8467875
20
108.5
11
31.5514313
21
100.351318
0
LINE
8
top_outsideCutPath
10
31.5514313
20
100.351318
11
28.9533551
21
98.851318
0
LINE
8
top_outsideCutPath
10
28.9533551
20
98.851318
11
34.7658551
21
88.7837727
0
LINE
8
top_outsideCutPath
10
34.7658551
20
88.7837727
11
37.3639313
21
90.2837727
0
LINE
8
top_outsideCutPath
10
37.3639313
20
90.2837727
11
43.1764313
21
80.2162273
0
LINE
8
top_outsideCutPath
10
43.1764313
20
80.2162273
11
40.5783551
21
78.7162273
0
LINE
8
top_outsideCutPath
10
40.5783551
20
78.7162273
11
46.3908551
21
68.648682
0
LINE
8
top_outsideCutPath
10
46.3908551
20
68.648682
11
48.9889313
21
70.148682
0
LINE
8
top_outsideCutPath
10
48.9889313
20
70.148682
11
53.693575
21
62
0
LINE
8
top_outsideCutPath
10
53.693575
20
62
11
44.2842875
21
62
0
LINE
8
top_outsideCutPath
10
44.2842875
20
62
11
44.2842875
21
65
0
LINE
8
top_outsideCutPath
10
44.2842875
20
65
11
32.6592875
21
65
0
LINE
8
top_outsideCutPath
10
32.6592875
20
65
11
32.6592875
21
62
0
LINE
8
top_outsideCutPath
10
21.0342875
20
62
11
21.0342875
21
65
0
LINE
8
top_outsideCutPath
10
21.0342875
20
65
11
9.4092875
21
65
0
LINE
8
top_outsideCutPath
10
9.4092875
20
65
11
9.4092875
21
62
0
LINE
8
top_outsideCutPath
10
0
20
62
11
4.7046438
21
70.148682
0
LINE
8
top_outsideCutPath
10
4.7046438
20
70.148682
11
7.30272
21
68.648682
0
LINE
8
top_outsideCutPath
10
7.30272
20
68.648682
11
13.11522
21
78.7162273
0
LINE
8
top_outsideCutPath
10
13.11522
20
78.7162273
11
10.5171438
21
80.2162273
0
LINE
8
top_outsideCutPath
10
10.5171438
20
80.2162273
11
16.3296438
21
90.2837727
0
LINE
8
top_outsideCutPath
10
16.3296438
20
90.2837727
11
18.92772
21
88.7837727
0
LINE
8
top_outsideCutPath
10
18.92772
20
88.7837727
11
24.74022
21
98.851318
0
LINE
8
top_outsideCutPath
10
24.74022
20
98.851318
11
22.1421438
21
100.351318
0
LINE
8
top_outsideCutPath
10
22.1421438
20
100.351318
11
26.8467875
21
108.5
0
LINE
8
bottom_outsideCutPath
10
80.5403626
20
77.5
11
85.2450063
21
69.351318
0
LINE
8
bottom_outsideCutPath
10
85.2450063
20
69.351318
11
82.6469301
21
67.851318
0
LINE
8
bottom_outsideCutPath
10
82.6469301
20
67.851318
11
88.4594301
21
57.7837727
0
LINE
8
bottom_outsideCutPath
10
88.4594301
20
57.7837727
11
91.0575063
21
59.2837727
0
LINE
8
bottom_outsideCutPath
10
91.0575063
20
59.2837727
11
96.8700063
21
49.2162273
0
LINE
8
bottom_outsideCutPath
10
96.8700063
20
49.2162273
11
94.2719301
21
47.7162273
0
LINE
8
bottom_outsideCutPath
10
94.2719301
20
47.7162273
11
100.0844301
21
37.648682
0
LINE
8
bottom_outsideCutPath
10
100.0844301
20
37.648682
11
102.6825063
21
39.148682
0
LINE
8
bottom_outsideCutPath
10
102.6825063
20
39.148682
11
107.3871501
21
31
0
LINE
8
bottom_outsideCutPath
10
107.3871501
20
31
11
97.9778626
21
31
0
LINE
8
bottom_outsideCutPath
10
97.9778626
20
31
11
97.9778626
21
34
0
LINE
8
bottom_outsideCutPath
10
97.9778626
20
34
11
86.3528626
21
34
0
LINE
8
bottom_outsideCutPath
10
86.3528626
20
34
11
86.3528626
21
31
0
LINE
8
bottom_outsideCutPath
10
74.7278626
20
31
11
74.7278626
21
34
0
LINE
8
bottom_outsideCutPath
10
74.7278626
20
34
11
63.1028626
21
34
0
LINE
8
bottom_outsideCutPath
10
63.1028626
20
34
11
63.1028626
21
31
0
LINE
8
bottom_outsideCutPath
10
53.693575
20
31
11
58.3982188
21
39.148682
0
LINE
8
bottom_outsideCutPath
10
58.3982188
20
39.148682
11
60.996295
21
37.648682
0
LINE
8
bottom_outsideCutPath
10
60.996295
20
37.648682
11
66.808795
21
47.7162273
0
LINE
8
bottom_outsideCutPath
10
66.808795
20
47.7162273
11
64.2107188
21
49.2162273
0
LINE
8
bottom_outsideCutPath
10
64.2107188
20
49.2162273
11
70.0232188
21
59.2837727
0
LINE
8
bottom_outsideCutPath
10
70.0232188
20
59.2837727
11
72.621295
21
57.7837727
0
LINE
8
bottom_outsideCutPath
10
72.621295
20
57.7837727
11
78.433795
21
67.851318
0
LINE
8
bottom_outsideCutPath
10
78.433795
20
67.851318
11
75.8357188
21
69.351318
0
LINE
8
bottom_outsideCutPath
10
75.8357188
20
69.351318
11
80.5403626
21
77.5
0
ENDSEC
0
EOF