0
SECTION
2
HEADER
9
$INSUNITS
70
4
0
ENDSEC
0
SECTION
2
TABLES
0
TABLE
2
LTYPE
0
LTYPE
72
65
70
64
2
CONTINUOUS
3
______
73
0
40
0
0
ENDTAB
0
TABLE
2
LAYER
0
ENDTAB
0
ENDSEC
0
SECTION
2
ENTITIES
0
LINE
8
front_outsideCutPath
10
0
20
17.375
11
0
21
32.625
0
LINE
8
front_outsideCutPath
10
0
20
17.375
11
3
21
17.375
0
LINE
8
front_outsideCutPath
10
3
20
17.375
11
3
21
7.625
0
LINE
8
front_outsideCutPath
10
3
20
7.625
11
0
21
7.625
0
LINE
8
front_outsideCutPath
10
0
20
7.625
11
0
21
0
0
LINE
8
front_outsideCutPath
10
0
20
0
11
11.625
21
0
0
LINE
8
front_outsideCutPath
10
11.625
20
0
11
11.625
21
3
0
LINE
8
front_outsideCutPath
10
11.625
20
3
11
21.375
21
3
0
LINE
8
front_outsideCutPath
10
21.375
20
3
11
21.375
21
0
0
LINE
8
front_outsideCutPath
10
21.375
20
0
11
31.125
21
0
0
LINE
8
front_outsideCutPath
10
31.125
20
0
11
31.125
21
3
0
LINE
8
front_outsideCutPath
10
31.125
20
3
11
40.875
21
3
0
LINE
8
front_outsideCutPath
10
40.875
20
3
11
40.875
21
0
0
LINE
8
front_outsideCutPath
10
40.875
20
0
11
50.625
21
0
0
LINE
8
front_outsideCutPath
10
50.625
20
0
11
50.625
21
3
0
LINE
8
front_outsideCutPath
10
50.625
20
3
11
60.375
21
3
0
LINE
8
front_outsideCutPath
10
60.375
20
3
11
60.375
21
0
0
LINE
8
front_outsideCutPath
10
60.375
20
0
11
70.125
21
0
0
LINE
8
front_outsideCutPath
10
70.125
20
0
11
70.125
21
3
0
LINE
8
front_outsideCutPath
10
70.125
20
3
11
79.875
21
3
0
LINE
8
front_outsideCutPath
10
79.875
20
3
11
79.875
21
0
0
LINE
8
front_outsideCutPath
10
79.875
20
0
11
89.625
21
0
0
LINE
8
front_outsideCutPath
10
89.625
20
0
11
89.625
21
3
0
LINE
8
front_outsideCutPath
10
89.625
20
3
11
99.375
21
3
0
LINE
8
front_outsideCutPath
10
99.375
20
3
11
99.375
21
0
0
LINE
8
front_outsideCutPath
10
99.375
20
0
11
109.125
21
0
0
LINE
8
front_outsideCutPath
10
109.125
20
0
11
109.125
21
3
0
LINE
8
front_outsideCutPath
10
109.125
20
3
11
118.875
21
3
0
LINE
8
front_outsideCutPath
10
118.875
20
3
11
118.875
21
0
0
LINE
8
front_outsideCutPath
10
118.875
20
0
11
128.625
21
0
0
LINE
8
front_outsideCutPath
10
128.625
20
0
11
128.625
21
3
0
LINE
8
front_outsideCutPath
10
128.625
20
3
11
138.375
21
3
0
LINE
8
front_outsideCutPath
10
138.375
20
3
11
138.375
21
0
0
LINE
8
front_outsideCutPath
10
138.375
20
0
11
150
21
0
0
LINE
8
front_outsideCutPath
10
150
20
0
11
150
21
17.375
0
LINE
8
front_outsideCutPath
10
147
20
7.625
11
153
21
7.625
0
LINE
8
front_outsideCutPath
10
147
20
7.625
11
147
21
17.375
0
LINE
8
front_outsideCutPath
10
147
20
17.375
11
153
21
17.375
0
LINE
8
front_outsideCutPath
10
150
20
17.375
11
150
21
42.375
0
LINE
8
front_outsideCutPath
10
138.375
20
25
11
150
21
25
0
LINE
8
front_outsideCutPath
10
138.375
20
22
11
138.375
21
28
0
LINE
8
front_outsideCutPath
10
138.375
20
22
11
128.625
21
22
0
LINE
8
front_outsideCutPath
10
128.625
20
22
11
128.625
21
28
0
LINE
8
front_outsideCutPath
10
118.875
20
25
11
128.625
21
25
0
LINE
8
front_outsideCutPath
10
118.875
20
22
11
118.875
21
28
0
LINE
8
front_outsideCutPath
10
118.875
20
22
11
109.125
21
22
0
LINE
8
front_outsideCutPath
10
109.125
20
22
11
109.125
21
28
0
LINE
8
front_outsideCutPath
10
99.375
20
25
11
109.125
21
25
0
LINE
8
front_outsideCutPath
10
99.375
20
22
11
99.375
21
28
0
LINE
8
front_outsideCutPath
10
99.375
20
22
11
89.625
21
22
0
LINE
8
front_outsideCutPath
10
89.625
20
22
11
89.625
21
28
0
LINE
8
front_outsideCutPath
10
79.875
20
25
11
89.625
21
25
0
LINE
8
front_outsideCutPath
10
79.875
20
22
11
79.875
21
28
0
LINE
8
front_outsideCutPath
10
79.875
20
22
11
70.125
21
22
0
LINE
8
front_outsideCutPath
10
70.125
20
22
11
70.125
21
28
0
LINE
8
front_outsideCutPath
10
60.375
20
25
11
70.125
21
25
0
LINE
8
front_outsideCutPath
10
60.375
20
22
11
60.375
21
28
0
LINE
8
front_outsideCutPath
10
60.375
20
22
11
50.625
21
22
0
LINE
8
front_outsideCutPath
10
50.625
20
22
11
50.625
21
28
0
LINE
8
front_outsideCutPath
10
40.875
20
25
11
50.625
21
25
0
LINE
8
front_outsideCutPath
10
40.875
20
22
11
40.875
21
28
0
LINE
8
front_outsideCutPath
10
40.875
20
22
11
31.125
21
22
0
LINE
8
front_outsideCutPath
10
31.125
20
22
11
31.125
21
28
0
LINE
8
front_outsideCutPath
10
21.375
20
25
11
31.125
21
25
0
LINE
8
front_outsideCutPath
10
21.375
20
22
11
21.375
21
28
0
LINE
8
front_outsideCutPath
10
21.375
20
22
11
11.625
21
22
0
LINE
8
front_outsideCutPath
10
11.625
20
22
11
11.625
21
28
0
LINE
8
front_outsideCutPath
10
0
20
25
11
11.625
21
25
0
LINE
8
left_outsideCutPath
10
153
20
17.375
11
153
21
32.625
0
LINE
8
left_outsideCutPath
10
153
20
7.625
11
153
21
0
0
LINE
8
left_outsideCutPath
10
153
20
0
11
157.625
21
0
0
LINE
8
left_outsideCutPath
10
157.625
20
0
11
157.625
21
3
0
LINE
8
left_outsideCutPath
10
157.625
20
3
11
167.375
21
3
0
LINE
8
left_outsideCutPath
10
167.375
20
3
11
167.375
21
0
0
LINE
8
left_outsideCutPath
10
167.375
20
0
11
172
21
0
0
LINE
8
left_outsideCutPath
10
172
20
0
11
172
21
7.625
0
LINE
8
left_outsideCutPath
10
172
20
7.625
11
178
21
7.625
0
LINE
8
left_outsideCutPath
10
175
20
7.625
11
175
21
17.375
0
LINE
8
left_outsideCutPath
10
172
20
17.375
11
178
21
17.375
0
LINE
8
left_outsideCutPath
10
172
20
17.375
11
172
21
32.625
0
LINE
8
left_outsideCutPath
10
167.375
20
25
11
172
21
25
0
LINE
8
left_outsideCutPath
10
167.375
20
22
11
167.375
21
28
0
LINE
8
left_outsideCutPath
10
167.375
20
22
11
157.625
21
22
0
LINE
8
left_outsideCutPath
10
157.625
20
22
11
157.625
21
28
0
LINE
8
left_outsideCutPath
10
153
20
25
11
157.625
21
25
0
LINE
8
top_outsideCutPath
10
178
20
22
11
178
21
17.375
0
LINE
8
top_outsideCutPath
10
178
20
7.625
11
178
21
3
0
LINE
8
top_outsideCutPath
10
178
20
3
11
186.625
21
3
0
LINE
8
top_outsideCutPath
10
186.625
20
3
11
186.625
21
0
0
LINE
8
top_outsideCutPath
10
186.625
20
0
11
196.375
21
0
0
LINE
8
top_outsideCutPath
10
196.375
20
0
11
196.375
21
3
0
LINE
8
top_outsideCutPath
10
196.375
20
3
11
206.125
21
3
0
LINE
8
top_outsideCutPath
10
206.125
20
3
11
206.125
21
0
0
LINE
8
top_outsideCutPath
10
206.125
20
0
11
215.875
21
0
0
LINE
8
top_outsideCutPath
10
215.875
20
0
11
215.875
21
3
0
LINE
8
top_outsideCutPath
10
215.875
20
3
11
225.625
21
3
0
LINE
8
top_outsideCutPath
10
225.625
20
3
11
225.625
21
0
0
LINE
8
top_outsideCutPath
10
225.625
20
0
11
235.375
21
0
0
LINE
8
top_outsideCutPath
10
235.375
20
0
11
235.375
21
3
0
LINE
8
top_outsideCutPath
10
235.375
20
3
11
245.125
21
3
0
LINE
8
top_outsideCutPath
10
245.125
20
3
11
245.125
21
0
0
LINE
8
top_outsideCutPath
10
245.125
20
0
11
254.875
21
0
0
LINE
8
top_outsideCutPath
10
254.875
20
0
11
254.875
21
3
0
LINE
8
top_outsideCutPath
10
254.875
20
3
11
264.625
21
3
0
LINE
8
top_outsideCutPath
10
264.625
20
3
11
264.625
21
0
0
LINE
8
top_outsideCutPath
10
264.625
20
0
11
274.375
21
0
0
LINE
8
top_outsideCutPath
10
274.375
20
0
11
274.375
21
3
0
LINE
8
top_outsideCutPath
10
274.375
20
3
11
284.125
21
3
0
LINE
8
top_outsideCutPath
10
284.125
20
3
11
284.125
21
0
0
LINE
8
top_outsideCutPath
10
284.125
20
0
11
293.875
21
0
0
LINE
8
top_outsideCutPath
10
293.875
20
0
11
293.875
21
3
0
LINE
8
top_outsideCutPath
10
293.875
20
3
11
303.625
21
3
0
LINE
8
top_outsideCutPath
10
303.625
20
3
11
303.625
21
0
0
LINE
8
top_outsideCutPath
10
303.625
20
0
11
313.375
21
0
0
LINE
8
top_outsideCutPath
10
313.375
20
0
11
313.375
21
3
0
LINE
8
top_outsideCutPath
10
313.375
20
3
11
322
21
3
0
LINE
8
top_outsideCutPath
10
322
20
3
11
322
21
7.625
0
LINE
8
top_outsideCutPath
10
322
20
7.625
11
325
21
7.625
0
LINE
8
top_outsideCutPath
10
325
20
7.625
11
325
21
17.375
0
LINE
8
top_outsideCutPath
10
325
20
17.375
11
322
21
17.375
0
LINE
8
top_outsideCutPath
10
322
20
17.375
11
322
21
22
0
LINE
8
top_outsideCutPath
10
322
20
22
11
313.375
21
22
0
LINE
8
top_outsideCutPath
10
313.375
20
22
11
313.375
21
28
0
LINE
8
top_outsideCutPath
10
303.625
20
25
11
313.375
21
25
0
LINE
8
top_outsideCutPath
10
303.625
20
22
11
303.625
21
28
0
LINE
8
top_outsideCutPath
10
303.625
20
22
11
293.875
21
22
0
LINE
8
top_outsideCutPath
10
293.875
20
22
11
293.875
21
28
0
LINE
8
top_outsideCutPath
10
284.125
20
25
11
293.875
21
25
0
LINE
8
top_outsideCutPath
10
284.125
20
22
11
284.125
21
28
0
LINE
8
top_outsideCutPath
10
284.125
20
22
11
274.375
21
22
0
LINE
8
top_outsideCutPath
10
274.375
20
22
11
274.375
21
28
0
LINE
8
top_outsideCutPath
10
264.625
20
25
11
274.375
21
25
0
LINE
8
top_outsideCutPath
10
264.625
20
22
11
264.625
21
28
0
LINE
8
top_outsideCutPath
10
264.625
20
22
11
254.875
21
22
0
LINE
8
top_outsideCutPath
10
254.875
20
22
11
254.875
21
28
0
LINE
8
top_outsideCutPath
10
245.125
20
25
11
254.875
21
25
0
LINE
8
top_outsideCutPath
10
245.125
20
22
11
245.125
21
28
0
LINE
8
top_outsideCutPath
10
245.125
20
22
11
235.375
21
22
0
LINE
8
top_outsideCutPath
10
235.375
20
22
11
235.375
21
28
0
LINE
8
top_outsideCutPath
10
225.625
20
25
11
235.375
21
25
0
LINE
8
top_outsideCutPath
10
225.625
20
22
11
225.625
21
28
0
LINE
8
top_outsideCutPath
10
225.625
20
22
11
215.875
21
22
0
LINE
8
top_outsideCutPath
10
215.875
20
22
11
215.875
21
28
0
LINE
8
top_outsideCutPath
10
206.125
20
25
11
215.875
21
25
0
LINE
8
top_outsideCutPath
10
206.125
20
22
11
206.125
21
28
0
LINE
8
top_outsideCutPath
10
206.125
20
22
11
196.375
21
22
0
LINE
8
top_outsideCutPath
10
196.375
20
22
11
196.375
21
28
0
LINE
8
top_outsideCutPath
10
186.625
20
25
11
196.375
21
25
0
LINE
8
top_outsideCutPath
10
186.625
20
22
11
186.625
21
28
0
LINE
8
top_outsideCutPath
10
186.625
20
22
11
178
21
22
0
LINE
8
back_outsideCutPath
10
0
20
50
11
0
21
42.375
0
LINE
8
back_outsideCutPath
10
0
20
42.375
11
3
21
42.375
0
LINE
8
back_outsideCutPath
10
3
20
42.375
11
3
21
32.625
0
LINE
8
back_outsideCutPath
10
3
20
32.625
11
0
21
32.625
0
LINE
8
back_outsideCutPath
10
11.625
20
28
11
21.375
21
28
0
LINE
8
back_outsideCutPath
10
31.125
20
28
11
40.875
21
28
0
LINE
8
back_outsideCutPath
10
50.625
20
28
11
60.375
21
28
0
LINE
8
back_outsideCutPath
10
70.125
20
28
11
79.875
21
28
0
LINE
8
back_outsideCutPath
10
89.625
20
28
11
99.375
21
28
0
LINE
8
back_outsideCutPath
10
109.125
20
28
11
118.875
21
28
0
LINE
8
back_outsideCutPath
10
128.625
20
28
11
138.375
21
28
0
LINE
8
back_outsideCutPath
10
147
20
32.625
11
153
21
32.625
0
LINE
8
back_outsideCutPath
10
147
20
32.625
11
147
21
42.375
0
LINE
8
back_outsideCutPath
10
147
20
42.375
11
153
21
42.375
0
LINE
8
back_outsideCutPath
10
150
20
42.375
11
150
21
50
0
LINE
8
back_outsideCutPath
10
150
20
50
11
138.375
21
50
0
LINE
8
back_outsideCutPath
10
138.375
20
50
11
138.375
21
47
0
LINE
8
back_outsideCutPath
10
138.375
20
47
11
128.625
21
47
0
LINE
8
back_outsideCutPath
10
128.625
20
47
11
128.625
21
50
0
LINE
8
back_outsideCutPath
10
128.625
20
50
11
118.875
21
50
0
LINE
8
back_outsideCutPath
10
118.875
20
50
11
118.875
21
47
0
LINE
8
back_outsideCutPath
10
118.875
20
47
11
109.125
21
47
0
LINE
8
back_outsideCutPath
10
109.125
20
47
11
109.125
21
50
0
LINE
8
back_outsideCutPath
10
109.125
20
50
11
99.375
21
50
0
LINE
8
back_outsideCutPath
10
99.375
20
50
11
99.375
21
47
0
LINE
8
back_outsideCutPath
10
99.375
20
47
11
89.625
21
47
0
LINE
8
back_outsideCutPath
10
89.625
20
47
11
89.625
21
50
0
LINE
8
back_outsideCutPath
10
89.625
20
50
11
79.875
21
50
0
LINE
8
back_outsideCutPath
10
79.875
20
50
11
79.875
21
47
0
LINE
8
back_outsideCutPath
10
79.875
20
47
11
70.125
21
47
0
LINE
8
back_outsideCutPath
10
70.125
20
47
11
70.125
21
50
0
LINE
8
back_outsideCutPath
10
70.125
20
50
11
60.375
21
50
0
LINE
8
back_outsideCutPath
10
60.375
20
50
11
60.375
21
47
0
LINE
8
back_outsideCutPath
10
60.375
20
47
11
50.625
21
47
0
LINE
8
back_outsideCutPath
10
50.625
20
47
11
50.625
21
50
0
LINE
8
back_outsideCutPath
10
50.625
20
50
11
40.875
21
50
0
LINE
8
back_outsideCutPath
10
40.875
20
50
11
40.875
21
47
0
LINE
8
back_outsideCutPath
10
40.875
20
47
11
31.125
21
47
0
LINE
8
back_outsideCutPath
10
31.125
20
47
11
31.125
21
50
0
LINE
8
back_outsideCutPath
10
31.125
20
50
11
21.375
21
50
0
LINE
8
back_outsideCutPath
10
21.375
20
50
11
21.375
21
47
0
LINE
8
back_outsideCutPath
10
21.375
20
47
11
11.625
21
47
0
LINE
8
back_outsideCutPath
10
11.625
20
47
11
11.625
21
50
0
LINE
8
back_outsideCutPath
10
11.625
20
50
11
0
21
50
0
LINE
8
right_outsideCutPath
10
153
20
50
11
153
21
42.375
0
LINE
8
right_outsideCutPath
10
157.625
20
28
11
167.375
21
28
0
LINE
8
right_outsideCutPath
10
172
20
32.625
11
178
21
32.625
0
LINE
8
right_outsideCutPath
10
175
20
32.625
11
175
21
42.375
0
LINE
8
right_outsideCutPath
10
172
20
42.375
11
178
21
42.375
0
LINE
8
right_outsideCutPath
10
172
20
42.375
11
172
21
50
0
LINE
8
right_outsideCutPath
10
172
20
50
11
167.375
21
50
0
LINE
8
right_outsideCutPath
10
167.375
20
50
11
167.375
21
47
0
LINE
8
right_outsideCutPath
10
167.375
20
47
11
157.625
21
47
0
LINE
8
right_outsideCutPath
10
157.625
20
47
11
157.625
21
50
0
LINE
8
right_outsideCutPath
10
157.625
20
50
11
153
21
50
0
LINE
8
bottom_outsideCutPath
10
178
20
47
11
178
21
42.375
0
LINE
8
bottom_outsideCutPath
10
178
20
32.625
11
178
21
28
0
LINE
8
bottom_outsideCutPath
10
178
20
28
11
186.625
21
28
0
LINE
8
bottom_outsideCutPath
10
196.375
20
28
11
206.125
21
28
0
LINE
8
bottom_outsideCutPath
10
215.875
20
28
11
225.625
21
28
0
LINE
8
bottom_outsideCutPath
10
235.375
20
28
11
245.125
21
28
0
LINE
8
bottom_outsideCutPath
10
254.875
20
28
11
264.625
21
28
0
LINE
8
bottom_outsideCutPath
10
274.375
20
28
11
284.125
21
28
0
LINE
8
bottom_outsideCutPath
10
293.875
20
28
11
303.625
21
28
0
LINE
8
bottom_outsideCutPath
10
313.375
20
28
11
322
21
28
0
LINE
8
bottom_outsideCutPath
10
322
20
28
11
322
21
32.625
0
LINE
8
bottom_outsideCutPath
10
322
20
32.625
11
325
21
32.625
0
LINE
8
bottom_outsideCutPath
10
325
20
32.625
11
325
21
42.375
0
LINE
8
bottom_outsideCutPath
10
325
20
42.375
11
322
21
42.375
0
LINE
8
bottom_outsideCutPath
10
322
20
42.375
11
322
21
47
0
LINE
8
bottom_outsideCutPath
10
322
20
47
11
313.375
21
47
0
LINE
8
bottom_outsideCutPath
10
313.375
20
47
11
313.375
21
50
0
LINE
8
bottom_outsideCutPath
10
313.375
20
50
11
303.625
21
50
0
LINE
8
bottom_outsideCutPath
10
303.625
20
50
11
303.625
21
47
0
LINE
8
bottom_outsideCutPath
10
303.625
20
47
11
293.875
21
47
0
LINE
8
bottom_outsideCutPath
10
293.875
20
47
11
293.875
21
50
0
LINE
8
bottom_outsideCutPath
10
293.875
20
50
11
284.125
21
50
0
LINE
8
bottom_outsideCutPath
10
284.125
20
50
11
284.125
21
47
0
LINE
8
bottom_outsideCutPath
10
284.125
20
47
11
274.375
21
47
0
LINE
8
bottom_outsideCutPath
10
274.375
20
47
11
274.375
21
50
0
LINE
8
bottom_outsideCutPath
10
274.375
20
50
11
264.625
21
50
0
LINE
8
bottom_outsideCutPath
10
264.625
20
50
11
264.625
21
47
0
LINE
8
bottom_outsideCutPath
10
264.625
20
47
11
254.875
21
47
0
LINE
8
bottom_outsideCutPath
10
254.875
20
47
11
254.875
21
50
0
LINE
8
bottom_outsideCutPath
10
254.875
20
50
11
245.125
21
50
0
LINE
8
bottom_outsideCutPath
10
245.125
20
50
11
245.125
21
47
0
LINE
8
bottom_outsideCutPath
10
245.125
20
47
11
235.375
21
47
0
LINE
8
bottom_outsideCutPath
10
235.375
20
47
11
235.375
21
50
0
LINE
8
bottom_outsideCutPath
10
235.375
20
50
11
225.625
21
50
0
LINE
8
bottom_outsideCutPath
10
225.625
20
50
11
225.625
21
47
0
LINE
8
bottom_outsideCutPath
10
225.625
20
47
11
215.875
21
47
0
LINE
8
bottom_outsideCutPath
10
215.875
20
47
11
215.875
21
50
0
LINE
8
bottom_outsideCutPath
10
215.875
20
50
11
206.125
21
50
0
LINE
8
bottom_outsideCutPath
10
206.125
20
50
11
206.125
21
47
0
LINE
8
bottom_outsideCutPath
10
206.125
20
47
11
196.375
21
47
0
LINE
8
bottom_outsideCutPath
10
196.375
20
47
11
196.375
21
50
0
LINE
8
bottom_outsideCutPath
10
196.375
20
50
11
186.625
21
50
0
LINE
8
bottom_outsideCutPath
10
186.625
20
50
11
186.625
21
47
0
LINE
8
bottom_outsideCutPath
10
186.625
20
47
11
178
21
47
0
ENDSEC
0
EOF