0
SECTION
2
HEADER
9
$INSUNITS
70
4
0
ENDSEC
0
SECTION
2
TABLES
0
TABLE
2
LTYPE
0
LTYPE
72
65
70
64
2
CONTINUOUS
3
______
73
0
40
0
0
ENDTAB
0
TABLE
2
LAYER
0
ENDTAB
0
ENDSEC
0
SECTION
2
ENTITIES
0
LINE
8
front_outsideCutPath
10
0
20
203
11
0
21
180.625
0
LINE
8
front_outsideCutPath
10
0
20
180.625
11
6
21
180.625
0
LINE
8
front_outsideCutPath
10
6
20
180.625
11
6
21
163.375
0
LINE
8
front_outsideCutPath
10
6
20
163.375
11
0
21
163.375
0
LINE
8
front_outsideCutPath
10
0
20
163.375
11
0
21
146.125
0
LINE
8
front_outsideCutPath
10
0
20
146.125
11
6
21
146.125
0
LINE
8
front_outsideCutPath
10
6
20
146.125
11
6
21
128.875
0
LINE
8
front_outsideCutPath
10
6
20
128.875
11
0
21
128.875
0
LINE
8
front_outsideCutPath
10
0
20
128.875
11
0
21
111.625
0
LINE
8
front_outsideCutPath
10
0
20
111.625
11
6
21
111.625
0
LINE
8
front_outsideCutPath
10
6
20
111.625
11
6
21
94.375
0
LINE
8
front_outsideCutPath
10
6
20
94.375
11
0
21
94.375
0
LINE
8
front_outsideCutPath
10
0
20
94.375
11
0
21
77.125
0
LINE
8
front_outsideCutPath
10
0
20
77.125
11
6
21
77.125
0
LINE
8
front_outsideCutPath
10
6
20
77.125
11
6
21
59.875
0
LINE
8
front_outsideCutPath
10
6
20
59.875
11
0
21
59.875
0
LINE
8
front_outsideCutPath
10
0
20
59.875
11
0
21
42.625
0
LINE
8
front_outsideCutPath
10
0
20
42.625
11
6
21
42.625
0
LINE
8
front_outsideCutPath
10
6
20
42.625
11
6
21
25.375
0
LINE
8
front_outsideCutPath
10
6
20
25.375
11
0
21
25.375
0
LINE
8
front_outsideCutPath
10
0
20
25.375
11
0
21
8.125
0
LINE
8
front_outsideCutPath
10
0
20
8.125
11
0
21
3
0
LINE
8
front_outsideCutPath
10
0
20
3
11
14.625
21
3
0
LINE
8
front_outsideCutPath
10
14.625
20
3
11
14.625
21
9
0
LINE
8
front_outsideCutPath
10
14.625
20
9
11
31.875
21
9
0
LINE
8
front_outsideCutPath
10
31.875
20
9
11
31.875
21
3
0
LINE
8
front_outsideCutPath
10
31.875
20
3
11
49.125
21
3
0
LINE
8
front_outsideCutPath
10
49.125
20
3
11
49.125
21
9
0
LINE
8
front_outsideCutPath
10
49.125
20
9
11
66.375
21
9
0
LINE
8
front_outsideCutPath
10
66.375
20
9
11
66.375
21
3
0
LINE
8
front_outsideCutPath
10
66.375
20
3
11
83.625
21
3
0
LINE
8
front_outsideCutPath
10
83.625
20
3
11
83.625
21
9
0
LINE
8
front_outsideCutPath
10
83.625
20
9
11
100.875
21
9
0
LINE
8
front_outsideCutPath
10
100.875
20
9
11
100.875
21
3
0
LINE
8
front_outsideCutPath
10
100.875
20
3
11
118.125
21
3
0
LINE
8
front_outsideCutPath
10
118.125
20
3
11
118.125
21
9
0
LINE
8
front_outsideCutPath
10
118.125
20
9
11
135.375
21
9
0
LINE
8
front_outsideCutPath
10
135.375
20
9
11
135.375
21
3
0
LINE
8
front_outsideCutPath
10
135.375
20
3
11
150
21
3
0
LINE
8
front_outsideCutPath
10
150
20
3
11
150
21
25.375
0
LINE
8
front_outsideCutPath
10
150
20
25.375
11
144
21
25.375
0
LINE
8
front_outsideCutPath
10
144
20
25.375
11
144
21
42.625
0
LINE
8
front_outsideCutPath
10
144
20
42.625
11
150
21
42.625
0
LINE
8
front_outsideCutPath
10
150
20
42.625
11
150
21
59.875
0
LINE
8
front_outsideCutPath
10
150
20
59.875
11
144
21
59.875
0
LINE
8
front_outsideCutPath
10
144
20
59.875
11
144
21
77.125
0
LINE
8
front_outsideCutPath
10
144
20
77.125
11
150
21
77.125
0
LINE
8
front_outsideCutPath
10
150
20
77.125
11
150
21
94.375
0
LINE
8
front_outsideCutPath
10
150
20
94.375
11
144
21
94.375
0
LINE
8
front_outsideCutPath
10
144
20
94.375
11
144
21
111.625
0
LINE
8
front_outsideCutPath
10
144
20
111.625
11
150
21
111.625
0
LINE
8
front_outsideCutPath
10
150
20
111.625
11
150
21
128.875
0
LINE
8
front_outsideCutPath
10
150
20
128.875
11
144
21
128.875
0
LINE
8
front_outsideCutPath
10
144
20
128.875
11
144
21
146.125
0
LINE
8
front_outsideCutPath
10
144
20
146.125
11
150
21
146.125
0
LINE
8
front_outsideCutPath
10
150
20
146.125
11
150
21
163.375
0
LINE
8
front_outsideCutPath
10
150
20
163.375
11
144
21
163.375
0
LINE
8
front_outsideCutPath
10
144
20
163.375
11
144
21
180.625
0
LINE
8
front_outsideCutPath
10
144
20
180.625
11
150
21
180.625
0
LINE
8
front_outsideCutPath
10
150
20
180.625
11
150
21
197.875
0
LINE
8
front_outsideCutPath
10
150
20
197.875
11
150
21
203
0
LINE
8
front_outsideCutPath
10
150
20
203
11
135.375
21
203
0
LINE
8
front_outsideCutPath
10
135.375
20
203
11
135.375
21
197
0
LINE
8
front_outsideCutPath
10
135.375
20
197
11
118.125
21
197
0
LINE
8
front_outsideCutPath
10
118.125
20
197
11
118.125
21
203
0
LINE
8
front_outsideCutPath
10
118.125
20
203
11
100.875
21
203
0
LINE
8
front_outsideCutPath
10
100.875
20
203
11
100.875
21
197
0
LINE
8
front_outsideCutPath
10
100.875
20
197
11
83.625
21
197
0
LINE
8
front_outsideCutPath
10
83.625
20
197
11
83.625
21
203
0
LINE
8
front_outsideCutPath
10
83.625
20
203
11
66.375
21
203
0
LINE
8
front_outsideCutPath
10
66.375
20
203
11
66.375
21
197
0
LINE
8
front_outsideCutPath
10
66.375
20
197
11
49.125
21
197
0
LINE
8
front_outsideCutPath
10
49.125
20
197
11
49.125
21
203
0
LINE
8
front_outsideCutPath
10
49.125
20
203
11
31.875
21
203
0
LINE
8
front_outsideCutPath
10
31.875
20
203
11
31.875
21
197
0
LINE
8
front_outsideCutPath
10
31.875
20
197
11
14.625
21
197
0
LINE
8
front_outsideCutPath
10
14.625
20
197
11
14.625
21
203
0
LINE
8
front_outsideCutPath
10
14.625
20
203
11
0
21
203
0
LINE
8
left_outsideCutPath
10
159
20
203
11
159
21
180.625
0
LINE
8
left_outsideCutPath
10
159
20
180.625
11
153
21
180.625
0
LINE
8
left_outsideCutPath
10
153
20
180.625
11
153
21
163.375
0
LINE
8
left_outsideCutPath
10
153
20
163.375
11
159
21
163.375
0
LINE
8
left_outsideCutPath
10
159
20
163.375
11
159
21
146.125
0
LINE
8
left_outsideCutPath
10
159
20
146.125
11
153
21
146.125
0
LINE
8
left_outsideCutPath
10
153
20
146.125
11
153
21
128.875
0
LINE
8
left_outsideCutPath
10
153
20
128.875
11
159
21
128.875
0
LINE
8
left_outsideCutPath
10
159
20
128.875
11
159
21
111.625
0
LINE
8
left_outsideCutPath
10
159
20
111.625
11
153
21
111.625
0
LINE
8
left_outsideCutPath
10
153
20
111.625
11
153
21
94.375
0
LINE
8
left_outsideCutPath
10
153
20
94.375
11
159
21
94.375
0
LINE
8
left_outsideCutPath
10
159
20
94.375
11
159
21
77.125
0
LINE
8
left_outsideCutPath
10
159
20
77.125
11
153
21
77.125
0
LINE
8
left_outsideCutPath
10
153
20
77.125
11
153
21
59.875
0
LINE
8
left_outsideCutPath
10
153
20
59.875
11
159
21
59.875
0
LINE
8
left_outsideCutPath
10
159
20
59.875
11
159
21
42.625
0
LINE
8
left_outsideCutPath
10
159
20
42.625
11
153
21
42.625
0
LINE
8
left_outsideCutPath
10
153
20
42.625
11
153
21
25.375
0
LINE
8
left_outsideCutPath
10
153
20
25.375
11
159
21
25.375
0
LINE
8
left_outsideCutPath
10
159
20
25.375
11
159
21
8.125
0
LINE
8
left_outsideCutPath
10
159
20
8.125
11
159
21
3
0
LINE
8
left_outsideCutPath
10
159
20
3
11
173.625
21
3
0
LINE
8
left_outsideCutPath
10
173.625
20
3
11
173.625
21
9
0
LINE
8
left_outsideCutPath
10
173.625
20
9
11
190.875
21
9
0
LINE
8
left_outsideCutPath
10
190.875
20
9
11
190.875
21
3
0
LINE
8
left_outsideCutPath
10
190.875
20
3
11
208.125
21
3
0
LINE
8
left_outsideCutPath
10
208.125
20
3
11
208.125
21
9
0
LINE
8
left_outsideCutPath
10
208.125
20
9
11
225.375
21
9
0
LINE
8
left_outsideCutPath
10
225.375
20
9
11
225.375
21
3
0
LINE
8
left_outsideCutPath
10
225.375
20
3
11
242.625
21
3
0
LINE
8
left_outsideCutPath
10
242.625
20
3
11
242.625
21
9
0
LINE
8
left_outsideCutPath
10
242.625
20
9
11
259.875
21
9
0
LINE
8
left_outsideCutPath
10
259.875
20
9
11
259.875
21
3
0
LINE
8
left_outsideCutPath
10
259.875
20
3
11
277.125
21
3
0
LINE
8
left_outsideCutPath
10
277.125
20
3
11
277.125
21
9
0
LINE
8
left_outsideCutPath
10
277.125
20
9
11
294.375
21
9
0
LINE
8
left_outsideCutPath
10
294.375
20
9
11
294.375
21
3
0
LINE
8
left_outsideCutPath
10
294.375
20
3
11
311.625
21
3
0
LINE
8
left_outsideCutPath
10
311.625
20
3
11
311.625
21
9
0
LINE
8
left_outsideCutPath
10
311.625
20
9
11
328.875
21
9
0
LINE
8
left_outsideCutPath
10
328.875
20
9
11
328.875
21
3
0
LINE
8
left_outsideCutPath
10
328.875
20
3
11
346.125
21
3
0
LINE
8
left_outsideCutPath
10
346.125
20
3
11
346.125
21
9
0
LINE
8
left_outsideCutPath
10
346.125
20
9
11
363.375
21
9
0
LINE
8
left_outsideCutPath
10
363.375
20
9
11
363.375
21
3
0
LINE
8
left_outsideCutPath
10
363.375
20
3
11
380.625
21
3
0
LINE
8
left_outsideCutPath
10
380.625
20
3
11
380.625
21
9
0
LINE
8
left_outsideCutPath
10
380.625
20
9
11
397.875
21
9
0
LINE
8
left_outsideCutPath
10
397.875
20
9
11
397.875
21
3
0
LINE
8
left_outsideCutPath
10
397.875
20
3
11
415.125
21
3
0
LINE
8
left_outsideCutPath
10
415.125
20
3
11
415.125
21
9
0
LINE
8
left_outsideCutPath
10
415.125
20
9
11
432.375
21
9
0
LINE
8
left_outsideCutPath
10
432.375
20
9
11
432.375
21
3
0
LINE
8
left_outsideCutPath
10
432.375
20
3
11
447
21
3
0
LINE
8
left_outsideCutPath
10
447
20
3
11
447
21
25.375
0
LINE
8
left_outsideCutPath
10
447
20
25.375
11
453
21
25.375
0
LINE
8
left_outsideCutPath
10
453
20
25.375
11
453
21
42.625
0
LINE
8
left_outsideCutPath
10
453
20
42.625
11
447
21
42.625
0
LINE
8
left_outsideCutPath
10
447
20
42.625
11
447
21
59.875
0
LINE
8
left_outsideCutPath
10
447
20
59.875
11
453
21
59.875
0
LINE
8
left_outsideCutPath
10
453
20
59.875
11
453
21
77.125
0
LINE
8
left_outsideCutPath
10
453
20
77.125
11
447
21
77.125
0
LINE
8
left_outsideCutPath
10
447
20
77.125
11
447
21
94.375
0
LINE
8
left_outsideCutPath
10
447
20
94.375
11
453
21
94.375
0
LINE
8
left_outsideCutPath
10
453
20
94.375
11
453
21
111.625
0
LINE
8
left_outsideCutPath
10
453
20
111.625
11
447
21
111.625
0
LINE
8
left_outsideCutPath
10
447
20
111.625
11
447
21
128.875
0
LINE
8
left_outsideCutPath
10
447
20
128.875
11
453
21
128.875
0
LINE
8
left_outsideCutPath
10
453
20
128.875
11
453
21
146.125
0
LINE
8
left_outsideCutPath
10
453
20
146.125
11
447
21
146.125
0
LINE
8
left_outsideCutPath
10
447
20
146.125
11
447
21
163.375
0
LINE
8
left_outsideCutPath
10
447
20
163.375
11
453
21
163.375
0
LINE
8
left_outsideCutPath
10
453
20
163.375
11
453
21
180.625
0
LINE
8
left_outsideCutPath
10
453
20
180.625
11
447
21
180.625
0
LINE
8
left_outsideCutPath
10
447
20
180.625
11
447
21
197.875
0
LINE
8
left_outsideCutPath
10
447
20
197.875
11
447
21
203
0
LINE
8
left_outsideCutPath
10
447
20
203
11
432.375
21
203
0
LINE
8
left_outsideCutPath
10
432.375
20
203
11
432.375
21
197
0
LINE
8
left_outsideCutPath
10
432.375
20
197
11
415.125
21
197
0
LINE
8
left_outsideCutPath
10
415.125
20
197
11
415.125
21
203
0
LINE
8
left_outsideCutPath
10
415.125
20
203
11
397.875
21
203
0
LINE
8
left_outsideCutPath
10
397.875
20
203
11
397.875
21
197
0
LINE
8
left_outsideCutPath
10
397.875
20
197
11
380.625
21
197
0
LINE
8
left_outsideCutPath
10
380.625
20
197
11
380.625
21
203
0
LINE
8
left_outsideCutPath
10
380.625
20
203
11
363.375
21
203
0
LINE
8
left_outsideCutPath
10
363.375
20
203
11
363.375
21
197
0
LINE
8
left_outsideCutPath
10
363.375
20
197
11
346.125
21
197
0
LINE
8
left_outsideCutPath
10
346.125
20
197
11
346.125
21
203
0
LINE
8
left_outsideCutPath
10
346.125
20
203
11
328.875
21
203
0
LINE
8
left_outsideCutPath
10
328.875
20
203
11
328.875
21
197
0
LINE
8
left_outsideCutPath
10
328.875
20
197
11
311.625
21
197
0
LINE
8
left_outsideCutPath
10
311.625
20
197
11
311.625
21
203
0
LINE
8
left_outsideCutPath
10
311.625
20
203
11
294.375
21
203
0
LINE
8
left_outsideCutPath
10
294.375
20
203
11
294.375
21
197
0
LINE
8
left_outsideCutPath
10
294.375
20
197
11
277.125
21
197
0
LINE
8
left_outsideCutPath
10
277.125
20
197
11
277.125
21
203
0
LINE
8
left_outsideCutPath
10
277.125
20
203
11
259.875
21
203
0
LINE
8
left_outsideCutPath
10
259.875
20
203
11
259.875
21
197
0
LINE
8
left_outsideCutPath
10
259.875
20
197
11
242.625
21
197
0
LINE
8
left_outsideCutPath
10
242.625
20
197
11
242.625
21
203
0
LINE
8
left_outsideCutPath
10
242.625
20
203
11
225.375
21
203
0
LINE
8
left_outsideCutPath
10
225.375
20
203
11
225.375
21
197
0
LINE
8
left_outsideCutPath
10
225.375
20
197
11
208.125
21
197
0
LINE
8
left_outsideCutPath
10
208.125
20
197
11
208.125
21
203
0
LINE
8
left_outsideCutPath
10
208.125
20
203
11
190.875
21
203
0
LINE
8
left_outsideCutPath
10
190.875
20
203
11
190.875
21
197
0
LINE
8
left_outsideCutPath
10
190.875
20
197
11
173.625
21
197
0
LINE
8
left_outsideCutPath
10
173.625
20
197
11
173.625
21
203
0
LINE
8
left_outsideCutPath
10
173.625
20
203
11
159
21
203
0
LINE
8
top_outsideCutPath
10
462
20
297
11
462
21
282.375
0
LINE
8
top_outsideCutPath
10
462
20
282.375
11
456
21
282.375
0
LINE
8
top_outsideCutPath
10
456
20
282.375
11
456
21
265.125
0
LINE
8
top_outsideCutPath
10
456
20
265.125
11
462
21
265.125
0
LINE
8
top_outsideCutPath
10
462
20
265.125
11
462
21
247.875
0
LINE
8
top_outsideCutPath
10
462
20
247.875
11
456
21
247.875
0
LINE
8
top_outsideCutPath
10
456
20
247.875
11
456
21
230.625
0
LINE
8
top_outsideCutPath
10
456
20
230.625
11
462
21
230.625
0
LINE
8
top_outsideCutPath
10
462
20
230.625
11
462
21
213.375
0
LINE
8
top_outsideCutPath
10
462
20
213.375
11
456
21
213.375
0
LINE
8
top_outsideCutPath
10
456
20
213.375
11
456
21
196.125
0
LINE
8
top_outsideCutPath
10
456
20
196.125
11
462
21
196.125
0
LINE
8
top_outsideCutPath
10
462
20
196.125
11
462
21
178.875
0
LINE
8
top_outsideCutPath
10
462
20
178.875
11
456
21
178.875
0
LINE
8
top_outsideCutPath
10
456
20
178.875
11
456
21
161.625
0
LINE
8
top_outsideCutPath
10
456
20
161.625
11
462
21
161.625
0
LINE
8
top_outsideCutPath
10
462
20
161.625
11
462
21
144.375
0
LINE
8
top_outsideCutPath
10
462
20
144.375
11
456
21
144.375
0
LINE
8
top_outsideCutPath
10
456
20
144.375
11
456
21
127.125
0
LINE
8
top_outsideCutPath
10
456
20
127.125
11
462
21
127.125
0
LINE
8
top_outsideCutPath
10
462
20
127.125
11
462
21
109.875
0
LINE
8
top_outsideCutPath
10
462
20
109.875
11
456
21
109.875
0
LINE
8
top_outsideCutPath
10
456
20
109.875
11
456
21
92.625
0
LINE
8
top_outsideCutPath
10
456
20
92.625
11
462
21
92.625
0
LINE
8
top_outsideCutPath
10
462
20
92.625
11
462
21
75.375
0
LINE
8
top_outsideCutPath
10
462
20
75.375
11
456
21
75.375
0
LINE
8
top_outsideCutPath
10
456
20
75.375
11
456
21
58.125
0
LINE
8
top_outsideCutPath
10
456
20
58.125
11
462
21
58.125
0
LINE
8
top_outsideCutPath
10
462
20
58.125
11
462
21
40.875
0
LINE
8
top_outsideCutPath
10
462
20
40.875
11
456
21
40.875
0
LINE
8
top_outsideCutPath
10
456
20
40.875
11
456
21
23.625
0
LINE
8
top_outsideCutPath
10
456
20
23.625
11
462
21
23.625
0
LINE
8
top_outsideCutPath
10
462
20
23.625
11
462
21
9
0
LINE
8
top_outsideCutPath
10
462
20
9
11
470.625
21
9
0
LINE
8
top_outsideCutPath
10
470.625
20
9
11
470.625
21
3
0
LINE
8
top_outsideCutPath
10
470.625
20
3
11
487.875
21
3
0
LINE
8
top_outsideCutPath
10
487.875
20
3
11
487.875
21
9
0
LINE
8
top_outsideCutPath
10
487.875
20
9
11
505.125
21
9
0
LINE
8
top_outsideCutPath
10
505.125
20
9
11
505.125
21
3
0
LINE
8
top_outsideCutPath
10
505.125
20
3
11
522.375
21
3
0
LINE
8
top_outsideCutPath
10
522.375
20
3
11
522.375
21
9
0
LINE
8
top_outsideCutPath
10
522.375
20
9
11
539.625
21
9
0
LINE
8
top_outsideCutPath
10
539.625
20
9
11
539.625
21
3
0
LINE
8
top_outsideCutPath
10
539.625
20
3
11
556.875
21
3
0
LINE
8
top_outsideCutPath
10
556.875
20
3
11
556.875
21
9
0
LINE
8
top_outsideCutPath
10
556.875
20
9
11
574.125
21
9
0
LINE
8
top_outsideCutPath
10
574.125
20
9
11
574.125
21
3
0
LINE
8
top_outsideCutPath
10
574.125
20
3
11
591.375
21
3
0
LINE
8
top_outsideCutPath
10
591.375
20
3
11
591.375
21
9
0
LINE
8
top_outsideCutPath
10
591.375
20
9
11
600
21
9
0
LINE
8
top_outsideCutPath
10
600
20
9
11
600
21
23.625
0
LINE
8
top_outsideCutPath
10
600
20
23.625
11
606
21
23.625
0
LINE
8
top_outsideCutPath
10
606
20
23.625
11
606
21
40.875
0
LINE
8
top_outsideCutPath
10
606
20
40.875
11
600
21
40.875
0
LINE
8
top_outsideCutPath
10
600
20
40.875
11
600
21
58.125
0
LINE
8
top_outsideCutPath
10
600
20
58.125
11
606
21
58.125
0
LINE
8
top_outsideCutPath
10
606
20
58.125
11
606
21
75.375
0
LINE
8
top_outsideCutPath
10
606
20
75.375
11
600
21
75.375
0
LINE
8
top_outsideCutPath
10
600
20
75.375
11
600
21
92.625
0
LINE
8
top_outsideCutPath
10
600
20
92.625
11
606
21
92.625
0
LINE
8
top_outsideCutPath
10
606
20
92.625
11
606
21
109.875
0
LINE
8
top_outsideCutPath
10
606
20
109.875
11
600
21
109.875
0
LINE
8
top_outsideCutPath
10
600
20
109.875
11
600
21
127.125
0
LINE
8
top_outsideCutPath
10
600
20
127.125
11
606
21
127.125
0
LINE
8
top_outsideCutPath
10
606
20
127.125
11
606
21
144.375
0
LINE
8
top_outsideCutPath
10
606
20
144.375
11
600
21
144.375
0
LINE
8
top_outsideCutPath
10
600
20
144.375
11
600
21
161.625
0
LINE
8
top_outsideCutPath
10
600
20
161.625
11
606
21
161.625
0
LINE
8
top_outsideCutPath
10
606
20
161.625
11
606
21
178.875
0
LINE
8
top_outsideCutPath
10
606
20
178.875
11
600
21
178.875
0
LINE
8
top_outsideCutPath
10
600
20
178.875
11
600
21
196.125
0
LINE
8
top_outsideCutPath
10
600
20
196.125
11
606
21
196.125
0
LINE
8
top_outsideCutPath
10
606
20
196.125
11
606
21
213.375
0
LINE
8
top_outsideCutPath
10
606
20
213.375
11
600
21
213.375
0
LINE
8
top_outsideCutPath
10
600
20
213.375
11
600
21
230.625
0
LINE
8
top_outsideCutPath
10
600
20
230.625
11
606
21
230.625
0
LINE
8
top_outsideCutPath
10
606
20
230.625
11
606
21
247.875
0
LINE
8
top_outsideCutPath
10
606
20
247.875
11
600
21
247.875
0
LINE
8
top_outsideCutPath
10
600
20
247.875
11
600
21
265.125
0
LINE
8
top_outsideCutPath
10
600
20
265.125
11
606
21
265.125
0
LINE
8
top_outsideCutPath
10
606
20
265.125
11
606
21
282.375
0
LINE
8
top_outsideCutPath
10
606
20
282.375
11
600
21
282.375
0
LINE
8
top_outsideCutPath
10
600
20
282.375
11
600
21
297
0
LINE
8
top_outsideCutPath
10
600
20
297
11
591.375
21
297
0
LINE
8
top_outsideCutPath
10
591.375
20
297
11
591.375
21
303
0
LINE
8
top_outsideCutPath
10
591.375
20
303
11
574.125
21
303
0
LINE
8
top_outsideCutPath
10
574.125
20
303
11
574.125
21
297
0
LINE
8
top_outsideCutPath
10
574.125
20
297
11
556.875
21
297
0
LINE
8
top_outsideCutPath
10
556.875
20
297
11
556.875
21
303
0
LINE
8
top_outsideCutPath
10
556.875
20
303
11
539.625
21
303
0
LINE
8
top_outsideCutPath
10
539.625
20
303
11
539.625
21
297
0
LINE
8
top_outsideCutPath
10
539.625
20
297
11
522.375
21
297
0
LINE
8
top_outsideCutPath
10
522.375
20
297
11
522.375
21
303
0
LINE
8
top_outsideCutPath
10
522.375
20
303
11
505.125
21
303
0
LINE
8
top_outsideCutPath
10
505.125
20
303
11
505.125
21
297
0
LINE
8
top_outsideCutPath
10
505.125
20
297
11
487.875
21
297
0
LINE
8
top_outsideCutPath
10
487.875
20
297
11
487.875
21
303
0
LINE
8
top_outsideCutPath
10
487.875
20
303
11
470.625
21
303
0
LINE
8
top_outsideCutPath
10
470.625
20
303
11
470.625
21
297
0
LINE
8
top_outsideCutPath
10
470.625
20
297
11
462
21
297
0
LINE
8
back_outsideCutPath
10
0
20
406
11
0
21
383.625
0
LINE
8
back_outsideCutPath
10
0
20
383.625
11
6
21
383.625
0
LINE
8
back_outsideCutPath
10
6
20
383.625
11
6
21
366.375
0
LINE
8
back_outsideCutPath
10
6
20
366.375
11
0
21
366.375
0
LINE
8
back_outsideCutPath
10
0
20
366.375
11
0
21
349.125
0
LINE
8
back_outsideCutPath
10
0
20
349.125
11
6
21
349.125
0
LINE
8
back_outsideCutPath
10
6
20
349.125
11
6
21
331.875
0
LINE
8
back_outsideCutPath
10
6
20
331.875
11
0
21
331.875
0
LINE
8
back_outsideCutPath
10
0
20
331.875
11
0
21
314.625
0
LINE
8
back_outsideCutPath
10
0
20
314.625
11
6
21
314.625
0
LINE
8
back_outsideCutPath
10
6
20
314.625
11
6
21
297.375
0
LINE
8
back_outsideCutPath
10
6
20
297.375
11
0
21
297.375
0
LINE
8
back_outsideCutPath
10
0
20
297.375
11
0
21
280.125
0
LINE
8
back_outsideCutPath
10
0
20
280.125
11
6
21
280.125
0
LINE
8
back_outsideCutPath
10
6
20
280.125
11
6
21
262.875
0
LINE
8
back_outsideCutPath
10
6
20
262.875
11
0
21
262.875
0
LINE
8
back_outsideCutPath
10
0
20
262.875
11
0
21
245.625
0
LINE
8
back_outsideCutPath
10
0
20
245.625
11
6
21
245.625
0
LINE
8
back_outsideCutPath
10
6
20
245.625
11
6
21
228.375
0
LINE
8
back_outsideCutPath
10
6
20
228.375
11
0
21
228.375
0
LINE
8
back_outsideCutPath
10
0
20
228.375
11
0
21
211.125
0
LINE
8
back_outsideCutPath
10
0
20
211.125
11
0
21
206
0
LINE
8
back_outsideCutPath
10
0
20
206
11
14.625
21
206
0
LINE
8
back_outsideCutPath
10
14.625
20
206
11
14.625
21
212
0
LINE
8
back_outsideCutPath
10
14.625
20
212
11
31.875
21
212
0
LINE
8
back_outsideCutPath
10
31.875
20
212
11
31.875
21
206
0
LINE
8
back_outsideCutPath
10
31.875
20
206
11
49.125
21
206
0
LINE
8
back_outsideCutPath
10
49.125
20
206
11
49.125
21
212
0
LINE
8
back_outsideCutPath
10
49.125
20
212
11
66.375
21
212
0
LINE
8
back_outsideCutPath
10
66.375
20
212
11
66.375
21
206
0
LINE
8
back_outsideCutPath
10
66.375
20
206
11
83.625
21
206
0
LINE
8
back_outsideCutPath
10
83.625
20
206
11
83.625
21
212
0
LINE
8
back_outsideCutPath
10
83.625
20
212
11
100.875
21
212
0
LINE
8
back_outsideCutPath
10
100.875
20
212
11
100.875
21
206
0
LINE
8
back_outsideCutPath
10
100.875
20
206
11
118.125
21
206
0
LINE
8
back_outsideCutPath
10
118.125
20
206
11
118.125
21
212
0
LINE
8
back_outsideCutPath
10
118.125
20
212
11
135.375
21
212
0
LINE
8
back_outsideCutPath
10
135.375
20
212
11
135.375
21
206
0
LINE
8
back_outsideCutPath
10
135.375
20
206
11
150
21
206
0
LINE
8
back_outsideCutPath
10
150
20
206
11
150
21
228.375
0
LINE
8
back_outsideCutPath
10
150
20
228.375
11
144
21
228.375
0
LINE
8
back_outsideCutPath
10
144
20
228.375
11
144
21
245.625
0
LINE
8
back_outsideCutPath
10
144
20
245.625
11
150
21
245.625
0
LINE
8
back_outsideCutPath
10
150
20
245.625
11
150
21
262.875
0
LINE
8
back_outsideCutPath
10
150
20
262.875
11
144
21
262.875
0
LINE
8
back_outsideCutPath
10
144
20
262.875
11
144
21
280.125
0
LINE
8
back_outsideCutPath
10
144
20
280.125
11
150
21
280.125
0
LINE
8
back_outsideCutPath
10
150
20
280.125
11
150
21
297.375
0
LINE
8
back_outsideCutPath
10
150
20
297.375
11
144
21
297.375
0
LINE
8
back_outsideCutPath
10
144
20
297.375
11
144
21
314.625
0
LINE
8
back_outsideCutPath
10
144
20
314.625
11
150
21
314.625
0
LINE
8
back_outsideCutPath
10
150
20
314.625
11
150
21
331.875
0
LINE
8
back_outsideCutPath
10
150
20
331.875
11
144
21
331.875
0
LINE
8
back_outsideCutPath
10
144
20
331.875
11
144
21
349.125
0
LINE
8
back_outsideCutPath
10
144
20
349.125
11
150
21
349.125
0
LINE
8
back_outsideCutPath
10
150
20
349.125
11
150
21
366.375
0
LINE
8
back_outsideCutPath
10
150
20
366.375
11
144
21
366.375
0
LINE
8
back_outsideCutPath
10
144
20
366.375
11
144
21
383.625
0
LINE
8
back_outsideCutPath
10
144
20
383.625
11
150
21
383.625
0
LINE
8
back_outsideCutPath
10
150
20
383.625
11
150
21
400.875
0
LINE
8
back_outsideCutPath
10
150
20
400.875
11
150
21
406
0
LINE
8
back_outsideCutPath
10
150
20
406
11
135.375
21
406
0
LINE
8
back_outsideCutPath
10
135.375
20
406
11
135.375
21
400
0
LINE
8
back_outsideCutPath
10
135.375
20
400
11
118.125
21
400
0
LINE
8
back_outsideCutPath
10
118.125
20
400
11
118.125
21
406
0
LINE
8
back_outsideCutPath
10
118.125
20
406
11
100.875
21
406
0
LINE
8
back_outsideCutPath
10
100.875
20
406
11
100.875
21
400
0
LINE
8
back_outsideCutPath
10
100.875
20
400
11
83.625
21
400
0
LINE
8
back_outsideCutPath
10
83.625
20
400
11
83.625
21
406
0
LINE
8
back_outsideCutPath
10
83.625
20
406
11
66.375
21
406
0
LINE
8
back_outsideCutPath
10
66.375
20
406
11
66.375
21
400
0
LINE
8
back_outsideCutPath
10
66.375
20
400
11
49.125
21
400
0
LINE
8
back_outsideCutPath
10
49.125
20
400
11
49.125
21
406
0
LINE
8
back_outsideCutPath
10
49.125
20
406
11
31.875
21
406
0
LINE
8
back_outsideCutPath
10
31.875
20
406
11
31.875
21
400
0
LINE
8
back_outsideCutPath
10
31.875
20
400
11
14.625
21
400
0
LINE
8
back_outsideCutPath
10
14.625
20
400
11
14.625
21
406
0
LINE
8
back_outsideCutPath
10
14.625
20
406
11
0
21
406
0
LINE
8
right_outsideCutPath
10
159
20
406
11
159
21
383.625
0
LINE
8
right_outsideCutPath
10
159
20
383.625
11
153
21
383.625
0
LINE
8
right_outsideCutPath
10
153
20
383.625
11
153
21
366.375
0
LINE
8
right_outsideCutPath
10
153
20
366.375
11
159
21
366.375
0
LINE
8
right_outsideCutPath
10
159
20
366.375
11
159
21
349.125
0
LINE
8
right_outsideCutPath
10
159
20
349.125
11
153
21
349.125
0
LINE
8
right_outsideCutPath
10
153
20
349.125
11
153
21
331.875
0
LINE
8
right_outsideCutPath
10
153
20
331.875
11
159
21
331.875
0
LINE
8
right_outsideCutPath
10
159
20
331.875
11
159
21
314.625
0
LINE
8
right_outsideCutPath
10
159
20
314.625
11
153
21
314.625
0
LINE
8
right_outsideCutPath
10
153
20
314.625
11
153
21
297.375
0
LINE
8
right_outsideCutPath
10
153
20
297.375
11
159
21
297.375
0
LINE
8
right_outsideCutPath
10
159
20
297.375
11
159
21
280.125
0
LINE
8
right_outsideCutPath
10
159
20
280.125
11
153
21
280.125
0
LINE
8
right_outsideCutPath
10
153
20
280.125
11
153
21
262.875
0
LINE
8
right_outsideCutPath
10
153
20
262.875
11
159
21
262.875
0
LINE
8
right_outsideCutPath
10
159
20
262.875
11
159
21
245.625
0
LINE
8
right_outsideCutPath
10
159
20
245.625
11
153
21
245.625
0
LINE
8
right_outsideCutPath
10
153
20
245.625
11
153
21
228.375
0
LINE
8
right_outsideCutPath
10
153
20
228.375
11
159
21
228.375
0
LINE
8
right_outsideCutPath
10
159
20
228.375
11
159
21
211.125
0
LINE
8
right_outsideCutPath
10
159
20
211.125
11
159
21
206
0
LINE
8
right_outsideCutPath
10
159
20
206
11
173.625
21
206
0
LINE
8
right_outsideCutPath
10
173.625
20
206
11
173.625
21
212
0
LINE
8
right_outsideCutPath
10
173.625
20
212
11
190.875
21
212
0
LINE
8
right_outsideCutPath
10
190.875
20
212
11
190.875
21
206
0
LINE
8
right_outsideCutPath
10
190.875
20
206
11
208.125
21
206
0
LINE
8
right_outsideCutPath
10
208.125
20
206
11
208.125
21
212
0
LINE
8
right_outsideCutPath
10
208.125
20
212
11
225.375
21
212
0
LINE
8
right_outsideCutPath
10
225.375
20
212
11
225.375
21
206
0
LINE
8
right_outsideCutPath
10
225.375
20
206
11
242.625
21
206
0
LINE
8
right_outsideCutPath
10
242.625
20
206
11
242.625
21
212
0
LINE
8
right_outsideCutPath
10
242.625
20
212
11
259.875
21
212
0
LINE
8
right_outsideCutPath
10
259.875
20
212
11
259.875
21
206
0
LINE
8
right_outsideCutPath
10
259.875
20
206
11
277.125
21
206
0
LINE
8
right_outsideCutPath
10
277.125
20
206
11
277.125
21
212
0
LINE
8
right_outsideCutPath
10
277.125
20
212
11
294.375
21
212
0
LINE
8
right_outsideCutPath
10
294.375
20
212
11
294.375
21
206
0
LINE
8
right_outsideCutPath
10
294.375
20
206
11
311.625
21
206
0
LINE
8
right_outsideCutPath
10
311.625
20
206
11
311.625
21
212
0
LINE
8
right_outsideCutPath
10
311.625
20
212
11
328.875
21
212
0
LINE
8
right_outsideCutPath
10
328.875
20
212
11
328.875
21
206
0
LINE
8
right_outsideCutPath
10
328.875
20
206
11
346.125
21
206
0
LINE
8
right_outsideCutPath
10
346.125
20
206
11
346.125
21
212
0
LINE
8
right_outsideCutPath
10
346.125
20
212
11
363.375
21
212
0
LINE
8
right_outsideCutPath
10
363.375
20
212
11
363.375
21
206
0
LINE
8
right_outsideCutPath
10
363.375
20
206
11
380.625
21
206
0
LINE
8
right_outsideCutPath
10
380.625
20
206
11
380.625
21
212
0
LINE
8
right_outsideCutPath
10
380.625
20
212
11
397.875
21
212
0
LINE
8
right_outsideCutPath
10
397.875
20
212
11
397.875
21
206
0
LINE
8
right_outsideCutPath
10
397.875
20
206
11
415.125
21
206
0
LINE
8
right_outsideCutPath
10
415.125
20
206
11
415.125
21
212
0
LINE
8
right_outsideCutPath
10
415.125
20
212
11
432.375
21
212
0
LINE
8
right_outsideCutPath
10
432.375
20
212
11
432.375
21
206
0
LINE
8
right_outsideCutPath
10
432.375
20
206
11
447
21
206
0
LINE
8
right_outsideCutPath
10
447
20
206
11
447
21
228.375
0
LINE
8
right_outsideCutPath
10
447
20
228.375
11
453
21
228.375
0
LINE
8
right_outsideCutPath
10
453
20
228.375
11
453
21
245.625
0
LINE
8
right_outsideCutPath
10
453
20
245.625
11
447
21
245.625
0
LINE
8
right_outsideCutPath
10
447
20
245.625
11
447
21
262.875
0
LINE
8
right_outsideCutPath
10
447
20
262.875
11
453
21
262.875
0
LINE
8
right_outsideCutPath
10
453
20
262.875
11
453
21
280.125
0
LINE
8
right_outsideCutPath
10
453
20
280.125
11
447
21
280.125
0
LINE
8
right_outsideCutPath
10
447
20
280.125
11
447
21
297.375
0
LINE
8
right_outsideCutPath
10
447
20
297.375
11
453
21
297.375
0
LINE
8
right_outsideCutPath
10
453
20
297.375
11
453
21
314.625
0
LINE
8
right_outsideCutPath
10
453
20
314.625
11
447
21
314.625
0
LINE
8
right_outsideCutPath
10
447
20
314.625
11
447
21
331.875
0
LINE
8
right_outsideCutPath
10
447
20
331.875
11
453
21
331.875
0
LINE
8
right_outsideCutPath
10
453
20
331.875
11
453
21
349.125
0
LINE
8
right_outsideCutPath
10
453
20
349.125
11
447
21
349.125
0
LINE
8
right_outsideCutPath
10
447
20
349.125
11
447
21
366.375
0
LINE
8
right_outsideCutPath
10
447
20
366.375
11
453
21
366.375
0
LINE
8
right_outsideCutPath
10
453
20
366.375
11
453
21
383.625
0
LINE
8
right_outsideCutPath
10
453
20
383.625
11
447
21
383.625
0
LINE
8
right_outsideCutPath
10
447
20
383.625
11
447
21
400.875
0
LINE
8
right_outsideCutPath
10
447
20
400.875
11
447
21
406
0
LINE
8
right_outsideCutPath
10
447
20
406
11
432.375
21
406
0
LINE
8
right_outsideCutPath
10
432.375
20
406
11
432.375
21
400
0
LINE
8
right_outsideCutPath
10
432.375
20
400
11
415.125
21
400
0
LINE
8
right_outsideCutPath
10
415.125
20
400
11
415.125
21
406
0
LINE
8
right_outsideCutPath
10
415.125
20
406
11
397.875
21
406
0
LINE
8
right_outsideCutPath
10
397.875
20
406
11
397.875
21
400
0
LINE
8
right_outsideCutPath
10
397.875
20
400
11
380.625
21
400
0
LINE
8
right_outsideCutPath
10
380.625
20
400
11
380.625
21
406
0
LINE
8
right_outsideCutPath
10
380.625
20
406
11
363.375
21
406
0
LINE
8
right_outsideCutPath
10
363.375
20
406
11
363.375
21
400
0
LINE
8
right_outsideCutPath
10
363.375
20
400
11
346.125
21
400
0
LINE
8
right_outsideCutPath
10
346.125
20
400
11
346.125
21
406
0
LINE
8
right_outsideCutPath
10
346.125
20
406
11
328.875
21
406
0
LINE
8
right_outsideCutPath
10
328.875
20
406
11
328.875
21
400
0
LINE
8
right_outsideCutPath
10
328.875
20
400
11
311.625
21
400
0
LINE
8
right_outsideCutPath
10
311.625
20
400
11
311.625
21
406
0
LINE
8
right_outsideCutPath
10
311.625
20
406
11
294.375
21
406
0
LINE
8
right_outsideCutPath
10
294.375
20
406
11
294.375
21
400
0
LINE
8
right_outsideCutPath
10
294.375
20
400
11
277.125
21
400
0
LINE
8
right_outsideCutPath
10
277.125
20
400
11
277.125
21
406
0
LINE
8
right_outsideCutPath
10
277.125
20
406
11
259.875
21
406
0
LINE
8
right_outsideCutPath
10
259.875
20
406
11
259.875
21
400
0
LINE
8
right_outsideCutPath
10
259.875
20
400
11
242.625
21
400
0
LINE
8
right_outsideCutPath
10
242.625
20
400
11
242.625
21
406
0
LINE
8
right_outsideCutPath
10
242.625
20
406
11
225.375
21
406
0
LINE
8
right_outsideCutPath
10
225.375
20
406
11
225.375
21
400
0
LINE
8
right_outsideCutPath
10
225.375
20
400
11
208.125
21
400
0
LINE
8
right_outsideCutPath
10
208.125
20
400
11
208.125
21
406
0
LINE
8
right_outsideCutPath
10
208.125
20
406
11
190.875
21
406
0
LINE
8
right_outsideCutPath
10
190.875
20
406
11
190.875
21
400
0
LINE
8
right_outsideCutPath
10
190.875
20
400
11
173.625
21
400
0
LINE
8
right_outsideCutPath
10
173.625
20
400
11
173.625
21
406
0
LINE
8
right_outsideCutPath
10
173.625
20
406
11
159
21
406
0
LINE
8
bottom_outsideCutPath
10
462
20
600
11
462
21
585.375
0
LINE
8
bottom_outsideCutPath
10
462
20
585.375
11
456
21
585.375
0
LINE
8
bottom_outsideCutPath
10
456
20
585.375
11
456
21
568.125
0
LINE
8
bottom_outsideCutPath
10
456
20
568.125
11
462
21
568.125
0
LINE
8
bottom_outsideCutPath
10
462
20
568.125
11
462
21
550.875
0
LINE
8
bottom_outsideCutPath
10
462
20
550.875
11
456
21
550.875
0
LINE
8
bottom_outsideCutPath
10
456
20
550.875
11
456
21
533.625
0
LINE
8
bottom_outsideCutPath
10
456
20
533.625
11
462
21
533.625
0
LINE
8
bottom_outsideCutPath
10
462
20
533.625
11
462
21
516.375
0
LINE
8
bottom_outsideCutPath
10
462
20
516.375
11
456
21
516.375
0
LINE
8
bottom_outsideCutPath
10
456
20
516.375
11
456
21
499.125
0
LINE
8
bottom_outsideCutPath
10
456
20
499.125
11
462
21
499.125
0
LINE
8
bottom_outsideCutPath
10
462
20
499.125
11
462
21
481.875
0
LINE
8
bottom_outsideCutPath
10
462
20
481.875
11
456
21
481.875
0
LINE
8
bottom_outsideCutPath
10
456
20
481.875
11
456
21
464.625
0
LINE
8
bottom_outsideCutPath
10
456
20
464.625
11
462
21
464.625
0
LINE
8
bottom_outsideCutPath
10
462
20
464.625
11
462
21
447.375
0
LINE
8
bottom_outsideCutPath
10
462
20
447.375
11
456
21
447.375
0
LINE
8
bottom_outsideCutPath
10
456
20
447.375
11
456
21
430.125
0
LINE
8
bottom_outsideCutPath
10
456
20
430.125
11
462
21
430.125
0
LINE
8
bottom_outsideCutPath
10
462
20
430.125
11
462
21
412.875
0
LINE
8
bottom_outsideCutPath
10
462
20
412.875
11
456
21
412.875
0
LINE
8
bottom_outsideCutPath
10
456
20
412.875
11
456
21
395.625
0
LINE
8
bottom_outsideCutPath
10
456
20
395.625
11
462
21
395.625
0
LINE
8
bottom_outsideCutPath
10
462
20
395.625
11
462
21
378.375
0
LINE
8
bottom_outsideCutPath
10
462
20
378.375
11
456
21
378.375
0
LINE
8
bottom_outsideCutPath
10
456
20
378.375
11
456
21
361.125
0
LINE
8
bottom_outsideCutPath
10
456
20
361.125
11
462
21
361.125
0
LINE
8
bottom_outsideCutPath
10
462
20
361.125
11
462
21
343.875
0
LINE
8
bottom_outsideCutPath
10
462
20
343.875
11
456
21
343.875
0
LINE
8
bottom_outsideCutPath
10
456
20
343.875
11
456
21
326.625
0
LINE
8
bottom_outsideCutPath
10
456
20
326.625
11
462
21
326.625
0
LINE
8
bottom_outsideCutPath
10
462
20
326.625
11
462
21
312
0
LINE
8
bottom_outsideCutPath
10
462
20
312
11
470.625
21
312
0
LINE
8
bottom_outsideCutPath
10
470.625
20
312
11
470.625
21
306
0
LINE
8
bottom_outsideCutPath
10
470.625
20
306
11
487.875
21
306
0
LINE
8
bottom_outsideCutPath
10
487.875
20
306
11
487.875
21
312
0
LINE
8
bottom_outsideCutPath
10
487.875
20
312
11
505.125
21
312
0
LINE
8
bottom_outsideCutPath
10
505.125
20
312
11
505.125
21
306
0
LINE
8
bottom_outsideCutPath
10
505.125
20
306
11
522.375
21
306
0
LINE
8
bottom_outsideCutPath
10
522.375
20
306
11
522.375
21
312
0
LINE
8
bottom_outsideCutPath
10
522.375
20
312
11
539.625
21
312
0
LINE
8
bottom_outsideCutPath
10
539.625
20
312
11
539.625
21
306
0
LINE
8
bottom_outsideCutPath
10
539.625
20
306
11
556.875
21
306
0
LINE
8
bottom_outsideCutPath
10
556.875
20
306
11
556.875
21
312
0
LINE
8
bottom_outsideCutPath
10
556.875
20
312
11
574.125
21
312
0
LINE
8
bottom_outsideCutPath
10
574.125
20
312
11
574.125
21
306
0
LINE
8
bottom_outsideCutPath
10
574.125
20
306
11
591.375
21
306
0
LINE
8
bottom_outsideCutPath
10
591.375
20
306
11
591.375
21
312
0
LINE
8
bottom_outsideCutPath
10
591.375
20
312
11
600
21
312
0
LINE
8
bottom_outsideCutPath
10
600
20
312
11
600
21
326.625
0
LINE
8
bottom_outsideCutPath
10
600
20
326.625
11
606
21
326.625
0
LINE
8
bottom_outsideCutPath
10
606
20
326.625
11
606
21
343.875
0
LINE
8
bottom_outsideCutPath
10
606
20
343.875
11
600
21
343.875
0
LINE
8
bottom_outsideCutPath
10
600
20
343.875
11
600
21
361.125
0
LINE
8
bottom_outsideCutPath
10
600
20
361.125
11
606
21
361.125
0
LINE
8
bottom_outsideCutPath
10
606
20
361.125
11
606
21
378.375
0
LINE
8
bottom_outsideCutPath
10
606
20
378.375
11
600
21
378.375
0
LINE
8
bottom_outsideCutPath
10
600
20
378.375
11
600
21
395.625
0
LINE
8
bottom_outsideCutPath
10
600
20
395.625
11
606
21
395.625
0
LINE
8
bottom_outsideCutPath
10
606
20
395.625
11
606
21
412.875
0
LINE
8
bottom_outsideCutPath
10
606
20
412.875
11
600
21
412.875
0
LINE
8
bottom_outsideCutPath
10
600
20
412.875
11
600
21
430.125
0
LINE
8
bottom_outsideCutPath
10
600
20
430.125
11
606
21
430.125
0
LINE
8
bottom_outsideCutPath
10
606
20
430.125
11
606
21
447.375
0
LINE
8
bottom_outsideCutPath
10
606
20
447.375
11
600
21
447.375
0
LINE
8
bottom_outsideCutPath
10
600
20
447.375
11
600
21
464.625
0
LINE
8
bottom_outsideCutPath
10
600
20
464.625
11
606
21
464.625
0
LINE
8
bottom_outsideCutPath
10
606
20
464.625
11
606
21
481.875
0
LINE
8
bottom_outsideCutPath
10
606
20
481.875
11
600
21
481.875
0
LINE
8
bottom_outsideCutPath
10
600
20
481.875
11
600
21
499.125
0
LINE
8
bottom_outsideCutPath
10
600
20
499.125
11
606
21
499.125
0
LINE
8
bottom_outsideCutPath
10
606
20
499.125
11
606
21
516.375
0
LINE
8
bottom_outsideCutPath
10
606
20
516.375
11
600
21
516.375
0
LINE
8
bottom_outsideCutPath
10
600
20
516.375
11
600
21
533.625
0
LINE
8
bottom_outsideCutPath
10
600
20
533.625
11
606
21
533.625
0
LINE
8
bottom_outsideCutPath
10
606
20
533.625
11
606
21
550.875
0
LINE
8
bottom_outsideCutPath
10
606
20
550.875
11
600
21
550.875
0
LINE
8
bottom_outsideCutPath
10
600
20
550.875
11
600
21
568.125
0
LINE
8
bottom_outsideCutPath
10
600
20
568.125
11
606
21
568.125
0
LINE
8
bottom_outsideCutPath
10
606
20
568.125
11
606
21
585.375
0
LINE
8
bottom_outsideCutPath
10
606
20
585.375
11
600
21
585.375
0
LINE
8
bottom_outsideCutPath
10
600
20
585.375
11
600
21
600
0
LINE
8
bottom_outsideCutPath
10
600
20
600
11
591.375
21
600
0
LINE
8
bottom_outsideCutPath
10
591.375
20
600
11
591.375
21
606
0
LINE
8
bottom_outsideCutPath
10
591.375
20
606
11
574.125
21
606
0
LINE
8
bottom_outsideCutPath
10
574.125
20
606
11
574.125
21
600
0
LINE
8
bottom_outsideCutPath
10
574.125
20
600
11
556.875
21
600
0
LINE
8
bottom_outsideCutPath
10
556.875
20
600
11
556.875
21
606
0
LINE
8
bottom_outsideCutPath
10
556.875
20
606
11
539.625
21
606
0
LINE
8
bottom_outsideCutPath
10
539.625
20
606
11
539.625
21
600
0
LINE
8
bottom_outsideCutPath
10
539.625
20
600
11
522.375
21
600
0
LINE
8
bottom_outsideCutPath
10
522.375
20
600
11
522.375
21
606
0
LINE
8
bottom_outsideCutPath
10
522.375
20
606
11
505.125
21
606
0
LINE
8
bottom_outsideCutPath
10
505.125
20
606
11
505.125
21
600
0
LINE
8
bottom_outsideCutPath
10
505.125
20
600
11
487.875
21
600
0
LINE
8
bottom_outsideCutPath
10
487.875
20
600
11
487.875
21
606
0
LINE
8
bottom_outsideCutPath
10
487.875
20
606
11
470.625
21
606
0
LINE
8
bottom_outsideCutPath
10
470.625
20
606
11
470.625
21
600
0
LINE
8
bottom_outsideCutPath
10
470.625
20
600
11
462
21
600
0
ENDSEC
0
EOF