0
SECTION
2
HEADER
9
$INSUNITS
70
4
0
ENDSEC
0
SECTION
2
TABLES
0
TABLE
2
LTYPE
0
LTYPE
72
65
70
64
2
CONTINUOUS
3
______
73
0
40
0
0
ENDTAB
0
TABLE
2
LAYER
0
ENDTAB
0
ENDSEC
0
SECTION
2
ENTITIES
0
LINE
8
front_outsideCutPath
10
0
20
33.25
11
0
21
66.75
0
LINE
8
front_outsideCutPath
10
0
20
33.25
11
6
21
33.25
0
LINE
8
front_outsideCutPath
10
6
20
33.25
11
6
21
16.75
0
LINE
8
front_outsideCutPath
10
6
20
16.75
11
0
21
16.75
0
LINE
8
front_outsideCutPath
10
0
20
16.75
11
0
21
0
0
LINE
8
front_outsideCutPath
10
0
20
0
11
16.75
21
0
0
LINE
8
front_outsideCutPath
10
16.75
20
0
11
16.75
21
6
0
LINE
8
front_outsideCutPath
10
16.75
20
6
11
33.25
21
6
0
LINE
8
front_outsideCutPath
10
33.25
20
6
11
33.25
21
0
0
LINE
8
front_outsideCutPath
10
33.25
20
0
11
50
21
0
0
LINE
8
front_outsideCutPath
10
50
20
0
11
50
21
33.25
0
LINE
8
front_outsideCutPath
10
44
20
16.75
11
56
21
16.75
0
LINE
8
front_outsideCutPath
10
44
20
16.75
11
44
21
33.25
0
LINE
8
front_outsideCutPath
10
44
20
33.25
11
56
21
33.25
0
LINE
8
front_outsideCutPath
10
50
20
33.25
11
50
21
83.25
0
LINE
8
front_outsideCutPath
10
33.25
20
50
11
50
21
50
0
LINE
8
front_outsideCutPath
10
33.25
20
44
11
33.25
21
56
0
LINE
8
front_outsideCutPath
10
33.25
20
44
11
16.75
21
44
0
LINE
8
front_outsideCutPath
10
16.75
20
44
11
16.75
21
56
0
LINE
8
front_outsideCutPath
10
0
20
50
11
16.75
21
50
0
LINE
8
left_outsideCutPath
10
56
20
33.25
11
56
21
66.75
0
LINE
8
left_outsideCutPath
10
56
20
16.75
11
56
21
0
0
LINE
8
left_outsideCutPath
10
56
20
0
11
76.25
21
0
0
LINE
8
left_outsideCutPath
10
76.25
20
0
11
76.25
21
6
0
LINE
8
left_outsideCutPath
10
76.25
20
6
11
92.75
21
6
0
LINE
8
left_outsideCutPath
10
92.75
20
6
11
92.75
21
0
0
LINE
8
left_outsideCutPath
10
92.75
20
0
11
109.25
21
0
0
LINE
8
left_outsideCutPath
10
109.25
20
0
11
109.25
21
6
0
LINE
8
left_outsideCutPath
10
109.25
20
6
11
125.75
21
6
0
LINE
8
left_outsideCutPath
10
125.75
20
6
11
125.75
21
0
0
LINE
8
left_outsideCutPath
10
125.75
20
0
11
142.25
21
0
0
LINE
8
left_outsideCutPath
10
142.25
20
0
11
142.25
21
6
0
LINE
8
left_outsideCutPath
10
142.25
20
6
11
158.75
21
6
0
LINE
8
left_outsideCutPath
10
158.75
20
6
11
158.75
21
0
0
LINE
8
left_outsideCutPath
10
158.75
20
0
11
175.25
21
0
0
LINE
8
left_outsideCutPath
10
175.25
20
0
11
175.25
21
6
0
LINE
8
left_outsideCutPath
10
175.25
20
6
11
191.75
21
6
0
LINE
8
left_outsideCutPath
10
191.75
20
6
11
191.75
21
0
0
LINE
8
left_outsideCutPath
10
191.75
20
0
11
208.25
21
0
0
LINE
8
left_outsideCutPath
10
208.25
20
0
11
208.25
21
6
0
LINE
8
left_outsideCutPath
10
208.25
20
6
11
224.75
21
6
0
LINE
8
left_outsideCutPath
10
224.75
20
6
11
224.75
21
0
0
LINE
8
left_outsideCutPath
10
224.75
20
0
11
241.25
21
0
0
LINE
8
left_outsideCutPath
10
241.25
20
0
11
241.25
21
6
0
LINE
8
left_outsideCutPath
10
241.25
20
6
11
257.75
21
6
0
LINE
8
left_outsideCutPath
10
257.75
20
6
11
257.75
21
0
0
LINE
8
left_outsideCutPath
10
257.75
20
0
11
274.25
21
0
0
LINE
8
left_outsideCutPath
10
274.25
20
0
11
274.25
21
6
0
LINE
8
left_outsideCutPath
10
274.25
20
6
11
290.75
21
6
0
LINE
8
left_outsideCutPath
10
290.75
20
6
11
290.75
21
0
0
LINE
8
left_outsideCutPath
10
290.75
20
0
11
307.25
21
0
0
LINE
8
left_outsideCutPath
10
307.25
20
0
11
307.25
21
6
0
LINE
8
left_outsideCutPath
10
307.25
20
6
11
323.75
21
6
0
LINE
8
left_outsideCutPath
10
323.75
20
6
11
323.75
21
0
0
LINE
8
left_outsideCutPath
10
323.75
20
0
11
340.25
21
0
0
LINE
8
left_outsideCutPath
10
340.25
20
0
11
344
21
0
0
LINE
8
left_outsideCutPath
10
344
20
0
11
344
21
16.75
0
LINE
8
left_outsideCutPath
10
344
20
16.75
11
350
21
16.75
0
LINE
8
left_outsideCutPath
10
350
20
16.75
11
350
21
42.75
0
LINE
8
left_outsideCutPath
10
350
20
33.25
11
344
21
33.25
0
LINE
8
left_outsideCutPath
10
344
20
33.25
11
344
21
66.75
0
LINE
8
left_outsideCutPath
10
323.75
20
50
11
344
21
50
0
LINE
8
left_outsideCutPath
10
323.75
20
44
11
323.75
21
56
0
LINE
8
left_outsideCutPath
10
323.75
20
44
11
307.25
21
44
0
LINE
8
left_outsideCutPath
10
307.25
20
44
11
307.25
21
56
0
LINE
8
left_outsideCutPath
10
290.75
20
50
11
307.25
21
50
0
LINE
8
left_outsideCutPath
10
290.75
20
44
11
290.75
21
56
0
LINE
8
left_outsideCutPath
10
290.75
20
44
11
274.25
21
44
0
LINE
8
left_outsideCutPath
10
274.25
20
44
11
274.25
21
56
0
LINE
8
left_outsideCutPath
10
257.75
20
50
11
274.25
21
50
0
LINE
8
left_outsideCutPath
10
257.75
20
44
11
257.75
21
56
0
LINE
8
left_outsideCutPath
10
257.75
20
44
11
241.25
21
44
0
LINE
8
left_outsideCutPath
10
241.25
20
44
11
241.25
21
56
0
LINE
8
left_outsideCutPath
10
224.75
20
50
11
241.25
21
50
0
LINE
8
left_outsideCutPath
10
224.75
20
44
11
224.75
21
56
0
LINE
8
left_outsideCutPath
10
224.75
20
44
11
208.25
21
44
0
LINE
8
left_outsideCutPath
10
208.25
20
44
11
208.25
21
56
0
LINE
8
left_outsideCutPath
10
191.75
20
50
11
208.25
21
50
0
LINE
8
left_outsideCutPath
10
191.75
20
44
11
191.75
21
56
0
LINE
8
left_outsideCutPath
10
191.75
20
44
11
175.25
21
44
0
LINE
8
left_outsideCutPath
10
175.25
20
44
11
175.25
21
56
0
LINE
8
left_outsideCutPath
10
158.75
20
50
11
175.25
21
50
0
LINE
8
left_outsideCutPath
10
158.75
20
44
11
158.75
21
56
0
LINE
8
left_outsideCutPath
10
158.75
20
44
11
142.25
21
44
0
LINE
8
left_outsideCutPath
10
142.25
20
44
11
142.25
21
56
0
LINE
8
left_outsideCutPath
10
125.75
20
50
11
142.25
21
50
0
LINE
8
left_outsideCutPath
10
125.75
20
44
11
125.75
21
56
0
LINE
8
left_outsideCutPath
10
125.75
20
44
11
109.25
21
44
0
LINE
8
left_outsideCutPath
10
109.25
20
44
11
109.25
21
56
0
LINE
8
left_outsideCutPath
10
92.75
20
50
11
109.25
21
50
0
LINE
8
left_outsideCutPath
10
92.75
20
44
11
92.75
21
56
0
LINE
8
left_outsideCutPath
10
92.75
20
44
11
76.25
21
44
0
LINE
8
left_outsideCutPath
10
76.25
20
44
11
76.25
21
56
0
LINE
8
left_outsideCutPath
10
56
20
50
11
76.25
21
50
0
LINE
8
left_outsideCutPath
10
59.75
20
50
11
56
21
50
0
LINE
8
top_outsideCutPath
10
356
20
294
11
356
21
273.75
0
LINE
8
top_outsideCutPath
10
356
20
273.75
11
350
21
273.75
0
LINE
8
top_outsideCutPath
10
350
20
273.75
11
350
21
257.25
0
LINE
8
top_outsideCutPath
10
350
20
257.25
11
356
21
257.25
0
LINE
8
top_outsideCutPath
10
356
20
257.25
11
356
21
240.75
0
LINE
8
top_outsideCutPath
10
356
20
240.75
11
350
21
240.75
0
LINE
8
top_outsideCutPath
10
350
20
240.75
11
350
21
224.25
0
LINE
8
top_outsideCutPath
10
350
20
224.25
11
356
21
224.25
0
LINE
8
top_outsideCutPath
10
356
20
224.25
11
356
21
207.75
0
LINE
8
top_outsideCutPath
10
356
20
207.75
11
350
21
207.75
0
LINE
8
top_outsideCutPath
10
350
20
207.75
11
350
21
191.25
0
LINE
8
top_outsideCutPath
10
350
20
191.25
11
356
21
191.25
0
LINE
8
top_outsideCutPath
10
356
20
191.25
11
356
21
174.75
0
LINE
8
top_outsideCutPath
10
356
20
174.75
11
350
21
174.75
0
LINE
8
top_outsideCutPath
10
350
20
174.75
11
350
21
158.25
0
LINE
8
top_outsideCutPath
10
350
20
158.25
11
356
21
158.25
0
LINE
8
top_outsideCutPath
10
356
20
158.25
11
356
21
141.75
0
LINE
8
top_outsideCutPath
10
356
20
141.75
11
350
21
141.75
0
LINE
8
top_outsideCutPath
10
350
20
141.75
11
350
21
125.25
0
LINE
8
top_outsideCutPath
10
350
20
125.25
11
356
21
125.25
0
LINE
8
top_outsideCutPath
10
356
20
125.25
11
356
21
108.75
0
LINE
8
top_outsideCutPath
10
356
20
108.75
11
350
21
108.75
0
LINE
8
top_outsideCutPath
10
350
20
108.75
11
350
21
92.25
0
LINE
8
top_outsideCutPath
10
350
20
92.25
11
356
21
92.25
0
LINE
8
top_outsideCutPath
10
356
20
92.25
11
356
21
75.75
0
LINE
8
top_outsideCutPath
10
356
20
75.75
11
350
21
75.75
0
LINE
8
top_outsideCutPath
10
350
20
59.25
11
350
21
83.25
0
LINE
8
top_outsideCutPath
10
350
20
59.25
11
356
21
59.25
0
LINE
8
top_outsideCutPath
10
356
20
59.25
11
356
21
42.75
0
LINE
8
top_outsideCutPath
10
356
20
42.75
11
350
21
42.75
0
LINE
8
top_outsideCutPath
10
350
20
26.25
11
356
21
26.25
0
LINE
8
top_outsideCutPath
10
356
20
26.25
11
356
21
9.75
0
LINE
8
top_outsideCutPath
10
356
20
9.75
11
356
21
6
0
LINE
8
top_outsideCutPath
10
356
20
6
11
366.75
21
6
0
LINE
8
top_outsideCutPath
10
366.75
20
6
11
366.75
21
0
0
LINE
8
top_outsideCutPath
10
366.75
20
0
11
383.25
21
0
0
LINE
8
top_outsideCutPath
10
383.25
20
0
11
383.25
21
6
0
LINE
8
top_outsideCutPath
10
383.25
20
6
11
394
21
6
0
LINE
8
top_outsideCutPath
10
394
20
6
11
394
21
26.25
0
LINE
8
top_outsideCutPath
10
394
20
26.25
11
400
21
26.25
0
LINE
8
top_outsideCutPath
10
400
20
26.25
11
400
21
42.75
0
LINE
8
top_outsideCutPath
10
400
20
42.75
11
394
21
42.75
0
LINE
8
top_outsideCutPath
10
394
20
42.75
11
394
21
59.25
0
LINE
8
top_outsideCutPath
10
394
20
59.25
11
400
21
59.25
0
LINE
8
top_outsideCutPath
10
400
20
59.25
11
400
21
75.75
0
LINE
8
top_outsideCutPath
10
400
20
75.75
11
394
21
75.75
0
LINE
8
top_outsideCutPath
10
394
20
75.75
11
394
21
92.25
0
LINE
8
top_outsideCutPath
10
394
20
92.25
11
400
21
92.25
0
LINE
8
top_outsideCutPath
10
400
20
92.25
11
400
21
108.75
0
LINE
8
top_outsideCutPath
10
400
20
108.75
11
394
21
108.75
0
LINE
8
top_outsideCutPath
10
394
20
108.75
11
394
21
125.25
0
LINE
8
top_outsideCutPath
10
394
20
125.25
11
400
21
125.25
0
LINE
8
top_outsideCutPath
10
400
20
125.25
11
400
21
141.75
0
LINE
8
top_outsideCutPath
10
400
20
141.75
11
394
21
141.75
0
LINE
8
top_outsideCutPath
10
394
20
141.75
11
394
21
158.25
0
LINE
8
top_outsideCutPath
10
394
20
158.25
11
400
21
158.25
0
LINE
8
top_outsideCutPath
10
400
20
158.25
11
400
21
174.75
0
LINE
8
top_outsideCutPath
10
400
20
174.75
11
394
21
174.75
0
LINE
8
top_outsideCutPath
10
394
20
174.75
11
394
21
191.25
0
LINE
8
top_outsideCutPath
10
394
20
191.25
11
400
21
191.25
0
LINE
8
top_outsideCutPath
10
400
20
191.25
11
400
21
207.75
0
LINE
8
top_outsideCutPath
10
400
20
207.75
11
394
21
207.75
0
LINE
8
top_outsideCutPath
10
394
20
207.75
11
394
21
224.25
0
LINE
8
top_outsideCutPath
10
394
20
224.25
11
400
21
224.25
0
LINE
8
top_outsideCutPath
10
400
20
224.25
11
400
21
240.75
0
LINE
8
top_outsideCutPath
10
400
20
240.75
11
394
21
240.75
0
LINE
8
top_outsideCutPath
10
394
20
240.75
11
394
21
257.25
0
LINE
8
top_outsideCutPath
10
394
20
257.25
11
400
21
257.25
0
LINE
8
top_outsideCutPath
10
400
20
257.25
11
400
21
273.75
0
LINE
8
top_outsideCutPath
10
400
20
273.75
11
394
21
273.75
0
LINE
8
top_outsideCutPath
10
394
20
273.75
11
394
21
290.25
0
LINE
8
top_outsideCutPath
10
394
20
290.25
11
394
21
294
0
LINE
8
top_outsideCutPath
10
394
20
294
11
383.25
21
294
0
LINE
8
top_outsideCutPath
10
383.25
20
294
11
383.25
21
306
0
LINE
8
top_outsideCutPath
10
366.75
20
300
11
383.25
21
300
0
LINE
8
top_outsideCutPath
10
366.75
20
294
11
366.75
21
306
0
LINE
8
top_outsideCutPath
10
366.75
20
294
11
356
21
294
0
LINE
8
back_outsideCutPath
10
0
20
100
11
0
21
83.25
0
LINE
8
back_outsideCutPath
10
0
20
83.25
11
6
21
83.25
0
LINE
8
back_outsideCutPath
10
6
20
83.25
11
6
21
66.75
0
LINE
8
back_outsideCutPath
10
6
20
66.75
11
0
21
66.75
0
LINE
8
back_outsideCutPath
10
16.75
20
56
11
33.25
21
56
0
LINE
8
back_outsideCutPath
10
44
20
66.75
11
56
21
66.75
0
LINE
8
back_outsideCutPath
10
44
20
66.75
11
44
21
83.25
0
LINE
8
back_outsideCutPath
10
44
20
83.25
11
56
21
83.25
0
LINE
8
back_outsideCutPath
10
50
20
83.25
11
50
21
100
0
LINE
8
back_outsideCutPath
10
50
20
100
11
33.25
21
100
0
LINE
8
back_outsideCutPath
10
33.25
20
100
11
33.25
21
94
0
LINE
8
back_outsideCutPath
10
33.25
20
94
11
16.75
21
94
0
LINE
8
back_outsideCutPath
10
16.75
20
94
11
16.75
21
100
0
LINE
8
back_outsideCutPath
10
16.75
20
100
11
0
21
100
0
LINE
8
right_outsideCutPath
10
56
20
100
11
56
21
83.25
0
LINE
8
right_outsideCutPath
10
76.25
20
56
11
92.75
21
56
0
LINE
8
right_outsideCutPath
10
109.25
20
56
11
125.75
21
56
0
LINE
8
right_outsideCutPath
10
142.25
20
56
11
158.75
21
56
0
LINE
8
right_outsideCutPath
10
175.25
20
56
11
191.75
21
56
0
LINE
8
right_outsideCutPath
10
208.25
20
56
11
224.75
21
56
0
LINE
8
right_outsideCutPath
10
241.25
20
56
11
257.75
21
56
0
LINE
8
right_outsideCutPath
10
274.25
20
56
11
290.75
21
56
0
LINE
8
right_outsideCutPath
10
307.25
20
56
11
323.75
21
56
0
LINE
8
right_outsideCutPath
10
344
20
66.75
11
350
21
66.75
0
LINE
8
right_outsideCutPath
10
350
20
83.25
11
344
21
83.25
0
LINE
8
right_outsideCutPath
10
344
20
83.25
11
344
21
100
0
LINE
8
right_outsideCutPath
10
344
20
100
11
323.75
21
100
0
LINE
8
right_outsideCutPath
10
323.75
20
100
11
323.75
21
94
0
LINE
8
right_outsideCutPath
10
323.75
20
94
11
307.25
21
94
0
LINE
8
right_outsideCutPath
10
307.25
20
94
11
307.25
21
100
0
LINE
8
right_outsideCutPath
10
307.25
20
100
11
290.75
21
100
0
LINE
8
right_outsideCutPath
10
290.75
20
100
11
290.75
21
94
0
LINE
8
right_outsideCutPath
10
290.75
20
94
11
274.25
21
94
0
LINE
8
right_outsideCutPath
10
274.25
20
94
11
274.25
21
100
0
LINE
8
right_outsideCutPath
10
274.25
20
100
11
257.75
21
100
0
LINE
8
right_outsideCutPath
10
257.75
20
100
11
257.75
21
94
0
LINE
8
right_outsideCutPath
10
257.75
20
94
11
241.25
21
94
0
LINE
8
right_outsideCutPath
10
241.25
20
94
11
241.25
21
100
0
LINE
8
right_outsideCutPath
10
241.25
20
100
11
224.75
21
100
0
LINE
8
right_outsideCutPath
10
224.75
20
100
11
224.75
21
94
0
LINE
8
right_outsideCutPath
10
224.75
20
94
11
208.25
21
94
0
LINE
8
right_outsideCutPath
10
208.25
20
94
11
208.25
21
100
0
LINE
8
right_outsideCutPath
10
208.25
20
100
11
191.75
21
100
0
LINE
8
right_outsideCutPath
10
191.75
20
100
11
191.75
21
94
0
LINE
8
right_outsideCutPath
10
191.75
20
94
11
175.25
21
94
0
LINE
8
right_outsideCutPath
10
175.25
20
94
11
175.25
21
100
0
LINE
8
right_outsideCutPath
10
175.25
20
100
11
158.75
21
100
0
LINE
8
right_outsideCutPath
10
158.75
20
100
11
158.75
21
94
0
LINE
8
right_outsideCutPath
10
158.75
20
94
11
142.25
21
94
0
LINE
8
right_outsideCutPath
10
142.25
20
94
11
142.25
21
100
0
LINE
8
right_outsideCutPath
10
142.25
20
100
11
125.75
21
100
0
LINE
8
right_outsideCutPath
10
125.75
20
100
11
125.75
21
94
0
LINE
8
right_outsideCutPath
10
125.75
20
94
11
109.25
21
94
0
LINE
8
right_outsideCutPath
10
109.25
20
94
11
109.25
21
100
0
LINE
8
right_outsideCutPath
10
109.25
20
100
11
92.75
21
100
0
LINE
8
right_outsideCutPath
10
92.75
20
100
11
92.75
21
94
0
LINE
8
right_outsideCutPath
10
92.75
20
94
11
76.25
21
94
0
LINE
8
right_outsideCutPath
10
76.25
20
94
11
76.25
21
100
0
LINE
8
right_outsideCutPath
10
76.25
20
100
11
59.75
21
100
0
LINE
8
right_outsideCutPath
10
59.75
20
100
11
56
21
100
0
LINE
8
bottom_outsideCutPath
10
356
20
594
11
356
21
573.75
0
LINE
8
bottom_outsideCutPath
10
356
20
573.75
11
350
21
573.75
0
LINE
8
bottom_outsideCutPath
10
350
20
573.75
11
350
21
557.25
0
LINE
8
bottom_outsideCutPath
10
350
20
557.25
11
356
21
557.25
0
LINE
8
bottom_outsideCutPath
10
356
20
557.25
11
356
21
540.75
0
LINE
8
bottom_outsideCutPath
10
356
20
540.75
11
350
21
540.75
0
LINE
8
bottom_outsideCutPath
10
350
20
540.75
11
350
21
524.25
0
LINE
8
bottom_outsideCutPath
10
350
20
524.25
11
356
21
524.25
0
LINE
8
bottom_outsideCutPath
10
356
20
524.25
11
356
21
507.75
0
LINE
8
bottom_outsideCutPath
10
356
20
507.75
11
350
21
507.75
0
LINE
8
bottom_outsideCutPath
10
350
20
507.75
11
350
21
491.25
0
LINE
8
bottom_outsideCutPath
10
350
20
491.25
11
356
21
491.25
0
LINE
8
bottom_outsideCutPath
10
356
20
491.25
11
356
21
474.75
0
LINE
8
bottom_outsideCutPath
10
356
20
474.75
11
350
21
474.75
0
LINE
8
bottom_outsideCutPath
10
350
20
474.75
11
350
21
458.25
0
LINE
8
bottom_outsideCutPath
10
350
20
458.25
11
356
21
458.25
0
LINE
8
bottom_outsideCutPath
10
356
20
458.25
11
356
21
441.75
0
LINE
8
bottom_outsideCutPath
10
356
20
441.75
11
350
21
441.75
0
LINE
8
bottom_outsideCutPath
10
350
20
441.75
11
350
21
425.25
0
LINE
8
bottom_outsideCutPath
10
350
20
425.25
11
356
21
425.25
0
LINE
8
bottom_outsideCutPath
10
356
20
425.25
11
356
21
408.75
0
LINE
8
bottom_outsideCutPath
10
356
20
408.75
11
350
21
408.75
0
LINE
8
bottom_outsideCutPath
10
350
20
408.75
11
350
21
392.25
0
LINE
8
bottom_outsideCutPath
10
350
20
392.25
11
356
21
392.25
0
LINE
8
bottom_outsideCutPath
10
356
20
392.25
11
356
21
375.75
0
LINE
8
bottom_outsideCutPath
10
356
20
375.75
11
350
21
375.75
0
LINE
8
bottom_outsideCutPath
10
350
20
375.75
11
350
21
359.25
0
LINE
8
bottom_outsideCutPath
10
350
20
359.25
11
356
21
359.25
0
LINE
8
bottom_outsideCutPath
10
356
20
359.25
11
356
21
342.75
0
LINE
8
bottom_outsideCutPath
10
356
20
342.75
11
350
21
342.75
0
LINE
8
bottom_outsideCutPath
10
350
20
342.75
11
350
21
326.25
0
LINE
8
bottom_outsideCutPath
10
350
20
326.25
11
356
21
326.25
0
LINE
8
bottom_outsideCutPath
10
356
20
326.25
11
356
21
309.75
0
LINE
8
bottom_outsideCutPath
10
356
20
309.75
11
356
21
306
0
LINE
8
bottom_outsideCutPath
10
356
20
306
11
366.75
21
306
0
LINE
8
bottom_outsideCutPath
10
383.25
20
306
11
394
21
306
0
LINE
8
bottom_outsideCutPath
10
394
20
306
11
394
21
326.25
0
LINE
8
bottom_outsideCutPath
10
394
20
326.25
11
400
21
326.25
0
LINE
8
bottom_outsideCutPath
10
400
20
326.25
11
400
21
342.75
0
LINE
8
bottom_outsideCutPath
10
400
20
342.75
11
394
21
342.75
0
LINE
8
bottom_outsideCutPath
10
394
20
342.75
11
394
21
359.25
0
LINE
8
bottom_outsideCutPath
10
394
20
359.25
11
400
21
359.25
0
LINE
8
bottom_outsideCutPath
10
400
20
359.25
11
400
21
375.75
0
LINE
8
bottom_outsideCutPath
10
400
20
375.75
11
394
21
375.75
0
LINE
8
bottom_outsideCutPath
10
394
20
375.75
11
394
21
392.25
0
LINE
8
bottom_outsideCutPath
10
394
20
392.25
11
400
21
392.25
0
LINE
8
bottom_outsideCutPath
10
400
20
392.25
11
400
21
408.75
0
LINE
8
bottom_outsideCutPath
10
400
20
408.75
11
394
21
408.75
0
LINE
8
bottom_outsideCutPath
10
394
20
408.75
11
394
21
425.25
0
LINE
8
bottom_outsideCutPath
10
394
20
425.25
11
400
21
425.25
0
LINE
8
bottom_outsideCutPath
10
400
20
425.25
11
400
21
441.75
0
LINE
8
bottom_outsideCutPath
10
400
20
441.75
11
394
21
441.75
0
LINE
8
bottom_outsideCutPath
10
394
20
441.75
11
394
21
458.25
0
LINE
8
bottom_outsideCutPath
10
394
20
458.25
11
400
21
458.25
0
LINE
8
bottom_outsideCutPath
10
400
20
458.25
11
400
21
474.75
0
LINE
8
bottom_outsideCutPath
10
400
20
474.75
11
394
21
474.75
0
LINE
8
bottom_outsideCutPath
10
394
20
474.75
11
394
21
491.25
0
LINE
8
bottom_outsideCutPath
10
394
20
491.25
11
400
21
491.25
0
LINE
8
bottom_outsideCutPath
10
400
20
491.25
11
400
21
507.75
0
LINE
8
bottom_outsideCutPath
10
400
20
507.75
11
394
21
507.75
0
LINE
8
bottom_outsideCutPath
10
394
20
507.75
11
394
21
524.25
0
LINE
8
bottom_outsideCutPath
10
394
20
524.25
11
400
21
524.25
0
LINE
8
bottom_outsideCutPath
10
400
20
524.25
11
400
21
540.75
0
LINE
8
bottom_outsideCutPath
10
400
20
540.75
11
394
21
540.75
0
LINE
8
bottom_outsideCutPath
10
394
20
540.75
11
394
21
557.25
0
LINE
8
bottom_outsideCutPath
10
394
20
557.25
11
400
21
557.25
0
LINE
8
bottom_outsideCutPath
10
400
20
557.25
11
400
21
573.75
0
LINE
8
bottom_outsideCutPath
10
400
20
573.75
11
394
21
573.75
0
LINE
8
bottom_outsideCutPath
10
394
20
573.75
11
394
21
590.25
0
LINE
8
bottom_outsideCutPath
10
394
20
590.25
11
394
21
594
0
LINE
8
bottom_outsideCutPath
10
394
20
594
11
383.25
21
594
0
LINE
8
bottom_outsideCutPath
10
383.25
20
594
11
383.25
21
600
0
LINE
8
bottom_outsideCutPath
10
383.25
20
600
11
366.75
21
600
0
LINE
8
bottom_outsideCutPath
10
366.75
20
600
11
366.75
21
594
0
LINE
8
bottom_outsideCutPath
10
366.75
20
594
11
356
21
594
0
ENDSEC
0
EOF