0
SECTION
2
HEADER
9
$INSUNITS
70
4
0
ENDSEC
0
SECTION
2
TABLES
0
TABLE
2
LTYPE
0
LTYPE
72
65
70
64
2
CONTINUOUS
3
______
73
0
40
0
0
ENDTAB
0
TABLE
2
LAYER
0
ENDTAB
0
ENDSEC
0
SECTION
2
ENTITIES
0
LINE
8
front_outsideCutPath
10
0
20
33.625
11
0
21
66.375
0
LINE
8
front_outsideCutPath
10
0
20
33.625
11
6
21
33.625
0
LINE
8
front_outsideCutPath
10
6
20
33.625
11
6
21
16.375
0
LINE
8
front_outsideCutPath
10
6
20
16.375
11
0
21
16.375
0
LINE
8
front_outsideCutPath
10
0
20
16.375
11
0
21
0
0
LINE
8
front_outsideCutPath
10
0
20
0
11
16.375
21
0
0
LINE
8
front_outsideCutPath
10
16.375
20
0
11
16.375
21
6
0
LINE
8
front_outsideCutPath
10
16.375
20
6
11
33.625
21
6
0
LINE
8
front_outsideCutPath
10
33.625
20
6
11
33.625
21
0
0
LINE
8
front_outsideCutPath
10
33.625
20
0
11
50
21
0
0
LINE
8
front_outsideCutPath
10
50
20
0
11
50
21
33.625
0
LINE
8
front_outsideCutPath
10
44
20
16.375
11
56
21
16.375
0
LINE
8
front_outsideCutPath
10
44
20
16.375
11
44
21
33.625
0
LINE
8
front_outsideCutPath
10
44
20
33.625
11
56
21
33.625
0
LINE
8
front_outsideCutPath
10
50
20
33.625
11
50
21
83.625
0
LINE
8
front_outsideCutPath
10
33.625
20
50
11
50
21
50
0
LINE
8
front_outsideCutPath
10
33.625
20
44
11
33.625
21
56
0
LINE
8
front_outsideCutPath
10
33.625
20
44
11
16.375
21
44
0
LINE
8
front_outsideCutPath
10
16.375
20
44
11
16.375
21
56
0
LINE
8
front_outsideCutPath
10
0
20
50
11
16.375
21
50
0
LINE
8
left_outsideCutPath
10
56
20
33.625
11
56
21
66.375
0
LINE
8
left_outsideCutPath
10
56
20
16.375
11
56
21
0
0
LINE
8
left_outsideCutPath
10
56
20
0
11
72.375
21
0
0
LINE
8
left_outsideCutPath
10
72.375
20
0
11
72.375
21
6
0
LINE
8
left_outsideCutPath
10
72.375
20
6
11
89.625
21
6
0
LINE
8
left_outsideCutPath
10
89.625
20
6
11
89.625
21
0
0
LINE
8
left_outsideCutPath
10
89.625
20
0
11
106.875
21
0
0
LINE
8
left_outsideCutPath
10
106.875
20
0
11
106.875
21
6
0
LINE
8
left_outsideCutPath
10
106.875
20
6
11
124.125
21
6
0
LINE
8
left_outsideCutPath
10
124.125
20
6
11
124.125
21
0
0
LINE
8
left_outsideCutPath
10
124.125
20
0
11
141.375
21
0
0
LINE
8
left_outsideCutPath
10
141.375
20
0
11
141.375
21
6
0
LINE
8
left_outsideCutPath
10
141.375
20
6
11
158.625
21
6
0
LINE
8
left_outsideCutPath
10
158.625
20
6
11
158.625
21
0
0
LINE
8
left_outsideCutPath
10
158.625
20
0
11
175.875
21
0
0
LINE
8
left_outsideCutPath
10
175.875
20
0
11
175.875
21
6
0
LINE
8
left_outsideCutPath
10
175.875
20
6
11
193.125
21
6
0
LINE
8
left_outsideCutPath
10
193.125
20
6
11
193.125
21
0
0
LINE
8
left_outsideCutPath
10
193.125
20
0
11
210.375
21
0
0
LINE
8
left_outsideCutPath
10
210.375
20
0
11
210.375
21
6
0
LINE
8
left_outsideCutPath
10
210.375
20
6
11
227.625
21
6
0
LINE
8
left_outsideCutPath
10
227.625
20
6
11
227.625
21
0
0
LINE
8
left_outsideCutPath
10
227.625
20
0
11
244
21
0
0
LINE
8
left_outsideCutPath
10
244
20
0
11
244
21
16.375
0
LINE
8
left_outsideCutPath
10
244
20
16.375
11
250
21
16.375
0
LINE
8
left_outsideCutPath
10
250
20
16.375
11
250
21
39.625
0
LINE
8
left_outsideCutPath
10
250
20
33.625
11
244
21
33.625
0
LINE
8
left_outsideCutPath
10
244
20
33.625
11
244
21
66.375
0
LINE
8
left_outsideCutPath
10
227.625
20
50
11
244
21
50
0
LINE
8
left_outsideCutPath
10
227.625
20
44
11
227.625
21
56
0
LINE
8
left_outsideCutPath
10
227.625
20
44
11
210.375
21
44
0
LINE
8
left_outsideCutPath
10
210.375
20
44
11
210.375
21
56
0
LINE
8
left_outsideCutPath
10
193.125
20
50
11
210.375
21
50
0
LINE
8
left_outsideCutPath
10
193.125
20
44
11
193.125
21
56
0
LINE
8
left_outsideCutPath
10
193.125
20
44
11
175.875
21
44
0
LINE
8
left_outsideCutPath
10
175.875
20
44
11
175.875
21
56
0
LINE
8
left_outsideCutPath
10
158.625
20
50
11
175.875
21
50
0
LINE
8
left_outsideCutPath
10
158.625
20
44
11
158.625
21
56
0
LINE
8
left_outsideCutPath
10
158.625
20
44
11
141.375
21
44
0
LINE
8
left_outsideCutPath
10
141.375
20
44
11
141.375
21
56
0
LINE
8
left_outsideCutPath
10
124.125
20
50
11
141.375
21
50
0
LINE
8
left_outsideCutPath
10
124.125
20
44
11
124.125
21
56
0
LINE
8
left_outsideCutPath
10
124.125
20
44
11
106.875
21
44
0
LINE
8
left_outsideCutPath
10
106.875
20
44
11
106.875
21
56
0
LINE
8
left_outsideCutPath
10
89.625
20
50
11
106.875
21
50
0
LINE
8
left_outsideCutPath
10
89.625
20
44
11
89.625
21
56
0
LINE
8
left_outsideCutPath
10
89.625
20
44
11
72.375
21
44
0
LINE
8
left_outsideCutPath
10
72.375
20
44
11
72.375
21
56
0
LINE
8
left_outsideCutPath
10
56
20
50
11
72.375
21
50
0
LINE
8
top_outsideCutPath
10
256
20
194
11
256
21
177.625
0
LINE
8
top_outsideCutPath
10
256
20
177.625
11
250
21
177.625
0
LINE
8
top_outsideCutPath
10
250
20
177.625
11
250
21
160.375
0
LINE
8
top_outsideCutPath
10
250
20
160.375
11
256
21
160.375
0
LINE
8
top_outsideCutPath
10
256
20
160.375
11
256
21
143.125
0
LINE
8
top_outsideCutPath
10
256
20
143.125
11
250
21
143.125
0
LINE
8
top_outsideCutPath
10
250
20
143.125
11
250
21
125.875
0
LINE
8
top_outsideCutPath
10
250
20
125.875
11
256
21
125.875
0
LINE
8
top_outsideCutPath
10
256
20
125.875
11
256
21
108.625
0
LINE
8
top_outsideCutPath
10
256
20
108.625
11
250
21
108.625
0
LINE
8
top_outsideCutPath
10
250
20
108.625
11
250
21
91.375
0
LINE
8
top_outsideCutPath
10
250
20
91.375
11
256
21
91.375
0
LINE
8
top_outsideCutPath
10
256
20
91.375
11
256
21
74.125
0
LINE
8
top_outsideCutPath
10
256
20
74.125
11
250
21
74.125
0
LINE
8
top_outsideCutPath
10
250
20
56.875
11
250
21
83.625
0
LINE
8
top_outsideCutPath
10
250
20
56.875
11
256
21
56.875
0
LINE
8
top_outsideCutPath
10
256
20
56.875
11
256
21
39.625
0
LINE
8
top_outsideCutPath
10
256
20
39.625
11
250
21
39.625
0
LINE
8
top_outsideCutPath
10
250
20
22.375
11
256
21
22.375
0
LINE
8
top_outsideCutPath
10
256
20
22.375
11
256
21
6
0
LINE
8
top_outsideCutPath
10
256
20
6
11
266.375
21
6
0
LINE
8
top_outsideCutPath
10
266.375
20
6
11
266.375
21
0
0
LINE
8
top_outsideCutPath
10
266.375
20
0
11
283.625
21
0
0
LINE
8
top_outsideCutPath
10
283.625
20
0
11
283.625
21
6
0
LINE
8
top_outsideCutPath
10
283.625
20
6
11
294
21
6
0
LINE
8
top_outsideCutPath
10
294
20
6
11
294
21
22.375
0
LINE
8
top_outsideCutPath
10
294
20
22.375
11
300
21
22.375
0
LINE
8
top_outsideCutPath
10
300
20
22.375
11
300
21
39.625
0
LINE
8
top_outsideCutPath
10
300
20
39.625
11
294
21
39.625
0
LINE
8
top_outsideCutPath
10
294
20
39.625
11
294
21
56.875
0
LINE
8
top_outsideCutPath
10
294
20
56.875
11
300
21
56.875
0
LINE
8
top_outsideCutPath
10
300
20
56.875
11
300
21
74.125
0
LINE
8
top_outsideCutPath
10
300
20
74.125
11
294
21
74.125
0
LINE
8
top_outsideCutPath
10
294
20
74.125
11
294
21
91.375
0
LINE
8
top_outsideCutPath
10
294
20
91.375
11
300
21
91.375
0
LINE
8
top_outsideCutPath
10
300
20
91.375
11
300
21
108.625
0
LINE
8
top_outsideCutPath
10
300
20
108.625
11
294
21
108.625
0
LINE
8
top_outsideCutPath
10
294
20
108.625
11
294
21
125.875
0
LINE
8
top_outsideCutPath
10
294
20
125.875
11
300
21
125.875
0
LINE
8
top_outsideCutPath
10
300
20
125.875
11
300
21
143.125
0
LINE
8
top_outsideCutPath
10
300
20
143.125
11
294
21
143.125
0
LINE
8
top_outsideCutPath
10
294
20
143.125
11
294
21
160.375
0
LINE
8
top_outsideCutPath
10
294
20
160.375
11
300
21
160.375
0
LINE
8
top_outsideCutPath
10
300
20
160.375
11
300
21
177.625
0
LINE
8
top_outsideCutPath
10
300
20
177.625
11
294
21
177.625
0
LINE
8
top_outsideCutPath
10
294
20
177.625
11
294
21
194
0
LINE
8
top_outsideCutPath
10
294
20
194
11
283.625
21
194
0
LINE
8
top_outsideCutPath
10
283.625
20
194
11
283.625
21
206
0
LINE
8
top_outsideCutPath
10
266.375
20
200
11
283.625
21
200
0
LINE
8
top_outsideCutPath
10
266.375
20
194
11
266.375
21
206
0
LINE
8
top_outsideCutPath
10
266.375
20
194
11
256
21
194
0
LINE
8
back_outsideCutPath
10
0
20
100
11
0
21
83.625
0
LINE
8
back_outsideCutPath
10
0
20
83.625
11
6
21
83.625
0
LINE
8
back_outsideCutPath
10
6
20
83.625
11
6
21
66.375
0
LINE
8
back_outsideCutPath
10
6
20
66.375
11
0
21
66.375
0
LINE
8
back_outsideCutPath
10
16.375
20
56
11
33.625
21
56
0
LINE
8
back_outsideCutPath
10
44
20
66.375
11
56
21
66.375
0
LINE
8
back_outsideCutPath
10
44
20
66.375
11
44
21
83.625
0
LINE
8
back_outsideCutPath
10
44
20
83.625
11
56
21
83.625
0
LINE
8
back_outsideCutPath
10
50
20
83.625
11
50
21
100
0
LINE
8
back_outsideCutPath
10
50
20
100
11
33.625
21
100
0
LINE
8
back_outsideCutPath
10
33.625
20
100
11
33.625
21
94
0
LINE
8
back_outsideCutPath
10
33.625
20
94
11
16.375
21
94
0
LINE
8
back_outsideCutPath
10
16.375
20
94
11
16.375
21
100
0
LINE
8
back_outsideCutPath
10
16.375
20
100
11
0
21
100
0
LINE
8
right_outsideCutPath
10
56
20
100
11
56
21
83.625
0
LINE
8
right_outsideCutPath
10
72.375
20
56
11
89.625
21
56
0
LINE
8
right_outsideCutPath
10
106.875
20
56
11
124.125
21
56
0
LINE
8
right_outsideCutPath
10
141.375
20
56
11
158.625
21
56
0
LINE
8
right_outsideCutPath
10
175.875
20
56
11
193.125
21
56
0
LINE
8
right_outsideCutPath
10
210.375
20
56
11
227.625
21
56
0
LINE
8
right_outsideCutPath
10
244
20
66.375
11
250
21
66.375
0
LINE
8
right_outsideCutPath
10
250
20
83.625
11
244
21
83.625
0
LINE
8
right_outsideCutPath
10
244
20
83.625
11
244
21
100
0
LINE
8
right_outsideCutPath
10
244
20
100
11
227.625
21
100
0
LINE
8
right_outsideCutPath
10
227.625
20
100
11
227.625
21
94
0
LINE
8
right_outsideCutPath
10
227.625
20
94
11
210.375
21
94
0
LINE
8
right_outsideCutPath
10
210.375
20
94
11
210.375
21
100
0
LINE
8
right_outsideCutPath
10
210.375
20
100
11
193.125
21
100
0
LINE
8
right_outsideCutPath
10
193.125
20
100
11
193.125
21
94
0
LINE
8
right_outsideCutPath
10
193.125
20
94
11
175.875
21
94
0
LINE
8
right_outsideCutPath
10
175.875
20
94
11
175.875
21
100
0
LINE
8
right_outsideCutPath
10
175.875
20
100
11
158.625
21
100
0
LINE
8
right_outsideCutPath
10
158.625
20
100
11
158.625
21
94
0
LINE
8
right_outsideCutPath
10
158.625
20
94
11
141.375
21
94
0
LINE
8
right_outsideCutPath
10
141.375
20
94
11
141.375
21
100
0
LINE
8
right_outsideCutPath
10
141.375
20
100
11
124.125
21
100
0
LINE
8
right_outsideCutPath
10
124.125
20
100
11
124.125
21
94
0
LINE
8
right_outsideCutPath
10
124.125
20
94
11
106.875
21
94
0
LINE
8
right_outsideCutPath
10
106.875
20
94
11
106.875
21
100
0
LINE
8
right_outsideCutPath
10
106.875
20
100
11
89.625
21
100
0
LINE
8
right_outsideCutPath
10
89.625
20
100
11
89.625
21
94
0
LINE
8
right_outsideCutPath
10
89.625
20
94
11
72.375
21
94
0
LINE
8
right_outsideCutPath
10
72.375
20
94
11
72.375
21
100
0
LINE
8
right_outsideCutPath
10
72.375
20
100
11
56
21
100
0
LINE
8
bottom_outsideCutPath
10
256
20
394
11
256
21
377.625
0
LINE
8
bottom_outsideCutPath
10
256
20
377.625
11
250
21
377.625
0
LINE
8
bottom_outsideCutPath
10
250
20
377.625
11
250
21
360.375
0
LINE
8
bottom_outsideCutPath
10
250
20
360.375
11
256
21
360.375
0
LINE
8
bottom_outsideCutPath
10
256
20
360.375
11
256
21
343.125
0
LINE
8
bottom_outsideCutPath
10
256
20
343.125
11
250
21
343.125
0
LINE
8
bottom_outsideCutPath
10
250
20
343.125
11
250
21
325.875
0
LINE
8
bottom_outsideCutPath
10
250
20
325.875
11
256
21
325.875
0
LINE
8
bottom_outsideCutPath
10
256
20
325.875
11
256
21
308.625
0
LINE
8
bottom_outsideCutPath
10
256
20
308.625
11
250
21
308.625
0
LINE
8
bottom_outsideCutPath
10
250
20
308.625
11
250
21
291.375
0
LINE
8
bottom_outsideCutPath
10
250
20
291.375
11
256
21
291.375
0
LINE
8
bottom_outsideCutPath
10
256
20
291.375
11
256
21
274.125
0
LINE
8
bottom_outsideCutPath
10
256
20
274.125
11
250
21
274.125
0
LINE
8
bottom_outsideCutPath
10
250
20
274.125
11
250
21
256.875
0
LINE
8
bottom_outsideCutPath
10
250
20
256.875
11
256
21
256.875
0
LINE
8
bottom_outsideCutPath
10
256
20
256.875
11
256
21
239.625
0
LINE
8
bottom_outsideCutPath
10
256
20
239.625
11
250
21
239.625
0
LINE
8
bottom_outsideCutPath
10
250
20
239.625
11
250
21
222.375
0
LINE
8
bottom_outsideCutPath
10
250
20
222.375
11
256
21
222.375
0
LINE
8
bottom_outsideCutPath
10
256
20
222.375
11
256
21
206
0
LINE
8
bottom_outsideCutPath
10
256
20
206
11
266.375
21
206
0
LINE
8
bottom_outsideCutPath
10
283.625
20
206
11
294
21
206
0
LINE
8
bottom_outsideCutPath
10
294
20
206
11
294
21
222.375
0
LINE
8
bottom_outsideCutPath
10
294
20
222.375
11
300
21
222.375
0
LINE
8
bottom_outsideCutPath
10
300
20
222.375
11
300
21
239.625
0
LINE
8
bottom_outsideCutPath
10
300
20
239.625
11
294
21
239.625
0
LINE
8
bottom_outsideCutPath
10
294
20
239.625
11
294
21
256.875
0
LINE
8
bottom_outsideCutPath
10
294
20
256.875
11
300
21
256.875
0
LINE
8
bottom_outsideCutPath
10
300
20
256.875
11
300
21
274.125
0
LINE
8
bottom_outsideCutPath
10
300
20
274.125
11
294
21
274.125
0
LINE
8
bottom_outsideCutPath
10
294
20
274.125
11
294
21
291.375
0
LINE
8
bottom_outsideCutPath
10
294
20
291.375
11
300
21
291.375
0
LINE
8
bottom_outsideCutPath
10
300
20
291.375
11
300
21
308.625
0
LINE
8
bottom_outsideCutPath
10
300
20
308.625
11
294
21
308.625
0
LINE
8
bottom_outsideCutPath
10
294
20
308.625
11
294
21
325.875
0
LINE
8
bottom_outsideCutPath
10
294
20
325.875
11
300
21
325.875
0
LINE
8
bottom_outsideCutPath
10
300
20
325.875
11
300
21
343.125
0
LINE
8
bottom_outsideCutPath
10
300
20
343.125
11
294
21
343.125
0
LINE
8
bottom_outsideCutPath
10
294
20
343.125
11
294
21
360.375
0
LINE
8
bottom_outsideCutPath
10
294
20
360.375
11
300
21
360.375
0
LINE
8
bottom_outsideCutPath
10
300
20
360.375
11
300
21
377.625
0
LINE
8
bottom_outsideCutPath
10
300
20
377.625
11
294
21
377.625
0
LINE
8
bottom_outsideCutPath
10
294
20
377.625
11
294
21
394
0
LINE
8
bottom_outsideCutPath
10
294
20
394
11
283.625
21
394
0
LINE
8
bottom_outsideCutPath
10
283.625
20
394
11
283.625
21
400
0
LINE
8
bottom_outsideCutPath
10
283.625
20
400
11
266.375
21
400
0
LINE
8
bottom_outsideCutPath
10
266.375
20
400
11
266.375
21
394
0
LINE
8
bottom_outsideCutPath
10
266.375
20
394
11
256
21
394
0
ENDSEC
0
EOF