0
SECTION
2
HEADER
9
$INSUNITS
70
4
0
ENDSEC
0
SECTION
2
TABLES
0
TABLE
2
LTYPE
0
LTYPE
72
65
70
64
2
CONTINUOUS
3
______
73
0
40
0
0
ENDTAB
0
TABLE
2
LAYER
0
ENDTAB
0
ENDSEC
0
SECTION
2
ENTITIES
0
LINE
8
front_outsideCutPath
10
0
20
176.875
11
0
21
223.125
0
LINE
8
front_outsideCutPath
10
0
20
176.875
11
6
21
176.875
0
LINE
8
front_outsideCutPath
10
6
20
176.875
11
6
21
146.125
0
LINE
8
front_outsideCutPath
10
6
20
146.125
11
0
21
146.125
0
LINE
8
front_outsideCutPath
10
0
20
146.125
11
0
21
115.375
0
LINE
8
front_outsideCutPath
10
0
20
115.375
11
6
21
115.375
0
LINE
8
front_outsideCutPath
10
6
20
115.375
11
6
21
84.625
0
LINE
8
front_outsideCutPath
10
6
20
84.625
11
0
21
84.625
0
LINE
8
front_outsideCutPath
10
0
20
84.625
11
0
21
53.875
0
LINE
8
front_outsideCutPath
10
0
20
53.875
11
6
21
53.875
0
LINE
8
front_outsideCutPath
10
6
20
53.875
11
6
21
23.125
0
LINE
8
front_outsideCutPath
10
6
20
23.125
11
0
21
23.125
0
LINE
8
front_outsideCutPath
10
0
20
23.125
11
0
21
0
0
LINE
8
front_outsideCutPath
10
0
20
0
11
23.125
21
0
0
LINE
8
front_outsideCutPath
10
23.125
20
0
11
23.125
21
6
0
LINE
8
front_outsideCutPath
10
23.125
20
6
11
53.875
21
6
0
LINE
8
front_outsideCutPath
10
53.875
20
6
11
53.875
21
0
0
LINE
8
front_outsideCutPath
10
53.875
20
0
11
84.625
21
0
0
LINE
8
front_outsideCutPath
10
84.625
20
0
11
84.625
21
6
0
LINE
8
front_outsideCutPath
10
84.625
20
6
11
115.375
21
6
0
LINE
8
front_outsideCutPath
10
115.375
20
6
11
115.375
21
0
0
LINE
8
front_outsideCutPath
10
115.375
20
0
11
146.125
21
0
0
LINE
8
front_outsideCutPath
10
146.125
20
0
11
146.125
21
6
0
LINE
8
front_outsideCutPath
10
146.125
20
6
11
176.875
21
6
0
LINE
8
front_outsideCutPath
10
176.875
20
6
11
176.875
21
0
0
LINE
8
front_outsideCutPath
10
176.875
20
0
11
200
21
0
0
LINE
8
front_outsideCutPath
10
200
20
0
11
200
21
53.875
0
LINE
8
front_outsideCutPath
10
194
20
23.125
11
206
21
23.125
0
LINE
8
front_outsideCutPath
10
194
20
23.125
11
194
21
53.875
0
LINE
8
front_outsideCutPath
10
194
20
53.875
11
206
21
53.875
0
LINE
8
front_outsideCutPath
10
200
20
53.875
11
200
21
115.375
0
LINE
8
front_outsideCutPath
10
194
20
84.625
11
206
21
84.625
0
LINE
8
front_outsideCutPath
10
194
20
84.625
11
194
21
115.375
0
LINE
8
front_outsideCutPath
10
194
20
115.375
11
206
21
115.375
0
LINE
8
front_outsideCutPath
10
200
20
115.375
11
200
21
176.875
0
LINE
8
front_outsideCutPath
10
194
20
146.125
11
206
21
146.125
0
LINE
8
front_outsideCutPath
10
194
20
146.125
11
194
21
176.875
0
LINE
8
front_outsideCutPath
10
194
20
176.875
11
206
21
176.875
0
LINE
8
front_outsideCutPath
10
200
20
176.875
11
200
21
253.875
0
LINE
8
front_outsideCutPath
10
176.875
20
200
11
200
21
200
0
LINE
8
front_outsideCutPath
10
176.875
20
194
11
176.875
21
206
0
LINE
8
front_outsideCutPath
10
176.875
20
194
11
146.125
21
194
0
LINE
8
front_outsideCutPath
10
146.125
20
194
11
146.125
21
206
0
LINE
8
front_outsideCutPath
10
115.375
20
200
11
146.125
21
200
0
LINE
8
front_outsideCutPath
10
115.375
20
194
11
115.375
21
206
0
LINE
8
front_outsideCutPath
10
115.375
20
194
11
84.625
21
194
0
LINE
8
front_outsideCutPath
10
84.625
20
194
11
84.625
21
206
0
LINE
8
front_outsideCutPath
10
53.875
20
200
11
84.625
21
200
0
LINE
8
front_outsideCutPath
10
53.875
20
194
11
53.875
21
206
0
LINE
8
front_outsideCutPath
10
53.875
20
194
11
23.125
21
194
0
LINE
8
front_outsideCutPath
10
23.125
20
194
11
23.125
21
206
0
LINE
8
front_outsideCutPath
10
0
20
200
11
23.125
21
200
0
LINE
8
left_outsideCutPath
10
206
20
176.875
11
206
21
223.125
0
LINE
8
left_outsideCutPath
10
206
20
146.125
11
206
21
115.375
0
LINE
8
left_outsideCutPath
10
206
20
84.625
11
206
21
53.875
0
LINE
8
left_outsideCutPath
10
206
20
23.125
11
206
21
0
0
LINE
8
left_outsideCutPath
10
206
20
0
11
242.375
21
0
0
LINE
8
left_outsideCutPath
10
242.375
20
0
11
242.375
21
6
0
LINE
8
left_outsideCutPath
10
242.375
20
6
11
273.125
21
6
0
LINE
8
left_outsideCutPath
10
273.125
20
6
11
273.125
21
0
0
LINE
8
left_outsideCutPath
10
273.125
20
0
11
303.875
21
0
0
LINE
8
left_outsideCutPath
10
303.875
20
0
11
303.875
21
6
0
LINE
8
left_outsideCutPath
10
303.875
20
6
11
334.625
21
6
0
LINE
8
left_outsideCutPath
10
334.625
20
6
11
334.625
21
0
0
LINE
8
left_outsideCutPath
10
334.625
20
0
11
365.375
21
0
0
LINE
8
left_outsideCutPath
10
365.375
20
0
11
365.375
21
6
0
LINE
8
left_outsideCutPath
10
365.375
20
6
11
396.125
21
6
0
LINE
8
left_outsideCutPath
10
396.125
20
6
11
396.125
21
0
0
LINE
8
left_outsideCutPath
10
396.125
20
0
11
426.875
21
0
0
LINE
8
left_outsideCutPath
10
426.875
20
0
11
426.875
21
6
0
LINE
8
left_outsideCutPath
10
426.875
20
6
11
457.625
21
6
0
LINE
8
left_outsideCutPath
10
457.625
20
6
11
457.625
21
0
0
LINE
8
left_outsideCutPath
10
457.625
20
0
11
488.375
21
0
0
LINE
8
left_outsideCutPath
10
488.375
20
0
11
494
21
0
0
LINE
8
left_outsideCutPath
10
494
20
0
11
494
21
23.125
0
LINE
8
left_outsideCutPath
10
494
20
23.125
11
500
21
23.125
0
LINE
8
left_outsideCutPath
10
500
20
23.125
11
500
21
73.125
0
LINE
8
left_outsideCutPath
10
500
20
53.875
11
494
21
53.875
0
LINE
8
left_outsideCutPath
10
494
20
53.875
11
494
21
84.625
0
LINE
8
left_outsideCutPath
10
494
20
84.625
11
500
21
84.625
0
LINE
8
left_outsideCutPath
10
500
20
84.625
11
500
21
134.625
0
LINE
8
left_outsideCutPath
10
500
20
115.375
11
494
21
115.375
0
LINE
8
left_outsideCutPath
10
494
20
115.375
11
494
21
146.125
0
LINE
8
left_outsideCutPath
10
494
20
146.125
11
500
21
146.125
0
LINE
8
left_outsideCutPath
10
500
20
146.125
11
500
21
196.125
0
LINE
8
left_outsideCutPath
10
500
20
176.875
11
494
21
176.875
0
LINE
8
left_outsideCutPath
10
494
20
176.875
11
494
21
223.125
0
LINE
8
left_outsideCutPath
10
457.625
20
200
11
494
21
200
0
LINE
8
left_outsideCutPath
10
457.625
20
194
11
457.625
21
206
0
LINE
8
left_outsideCutPath
10
457.625
20
194
11
426.875
21
194
0
LINE
8
left_outsideCutPath
10
426.875
20
194
11
426.875
21
206
0
LINE
8
left_outsideCutPath
10
396.125
20
200
11
426.875
21
200
0
LINE
8
left_outsideCutPath
10
396.125
20
194
11
396.125
21
206
0
LINE
8
left_outsideCutPath
10
396.125
20
194
11
365.375
21
194
0
LINE
8
left_outsideCutPath
10
365.375
20
194
11
365.375
21
206
0
LINE
8
left_outsideCutPath
10
334.625
20
200
11
365.375
21
200
0
LINE
8
left_outsideCutPath
10
334.625
20
194
11
334.625
21
206
0
LINE
8
left_outsideCutPath
10
334.625
20
194
11
303.875
21
194
0
LINE
8
left_outsideCutPath
10
303.875
20
194
11
303.875
21
206
0
LINE
8
left_outsideCutPath
10
273.125
20
200
11
303.875
21
200
0
LINE
8
left_outsideCutPath
10
273.125
20
194
11
273.125
21
206
0
LINE
8
left_outsideCutPath
10
273.125
20
194
11
242.375
21
194
0
LINE
8
left_outsideCutPath
10
242.375
20
194
11
242.375
21
206
0
LINE
8
left_outsideCutPath
10
206
20
200
11
242.375
21
200
0
LINE
8
left_outsideCutPath
10
211.625
20
200
11
206
21
200
0
LINE
8
top_outsideCutPath
10
506
20
294
11
506
21
257.625
0
LINE
8
top_outsideCutPath
10
506
20
257.625
11
500
21
257.625
0
LINE
8
top_outsideCutPath
10
500
20
223.125
11
500
21
257.625
0
LINE
8
top_outsideCutPath
10
500
20
226.875
11
506
21
226.875
0
LINE
8
top_outsideCutPath
10
506
20
226.875
11
506
21
196.125
0
LINE
8
top_outsideCutPath
10
506
20
196.125
11
500
21
196.125
0
LINE
8
top_outsideCutPath
10
500
20
165.375
11
506
21
165.375
0
LINE
8
top_outsideCutPath
10
506
20
165.375
11
506
21
134.625
0
LINE
8
top_outsideCutPath
10
506
20
134.625
11
500
21
134.625
0
LINE
8
top_outsideCutPath
10
500
20
103.875
11
506
21
103.875
0
LINE
8
top_outsideCutPath
10
506
20
103.875
11
506
21
73.125
0
LINE
8
top_outsideCutPath
10
506
20
73.125
11
500
21
73.125
0
LINE
8
top_outsideCutPath
10
500
20
42.375
11
506
21
42.375
0
LINE
8
top_outsideCutPath
10
506
20
42.375
11
506
21
11.625
0
LINE
8
top_outsideCutPath
10
506
20
11.625
11
506
21
6
0
LINE
8
top_outsideCutPath
10
506
20
6
11
523.125
21
6
0
LINE
8
top_outsideCutPath
10
523.125
20
6
11
523.125
21
0
0
LINE
8
top_outsideCutPath
10
523.125
20
0
11
553.875
21
0
0
LINE
8
top_outsideCutPath
10
553.875
20
0
11
553.875
21
6
0
LINE
8
top_outsideCutPath
10
553.875
20
6
11
584.625
21
6
0
LINE
8
top_outsideCutPath
10
584.625
20
6
11
584.625
21
0
0
LINE
8
top_outsideCutPath
10
584.625
20
0
11
615.375
21
0
0
LINE
8
top_outsideCutPath
10
615.375
20
0
11
615.375
21
6
0
LINE
8
top_outsideCutPath
10
615.375
20
6
11
646.125
21
6
0
LINE
8
top_outsideCutPath
10
646.125
20
6
11
646.125
21
0
0
LINE
8
top_outsideCutPath
10
646.125
20
0
11
676.875
21
0
0
LINE
8
top_outsideCutPath
10
676.875
20
0
11
676.875
21
6
0
LINE
8
top_outsideCutPath
10
676.875
20
6
11
694
21
6
0
LINE
8
top_outsideCutPath
10
694
20
6
11
694
21
42.375
0
LINE
8
top_outsideCutPath
10
694
20
42.375
11
700
21
42.375
0
LINE
8
top_outsideCutPath
10
700
20
42.375
11
700
21
73.125
0
LINE
8
top_outsideCutPath
10
700
20
73.125
11
694
21
73.125
0
LINE
8
top_outsideCutPath
10
694
20
73.125
11
694
21
103.875
0
LINE
8
top_outsideCutPath
10
694
20
103.875
11
700
21
103.875
0
LINE
8
top_outsideCutPath
10
700
20
103.875
11
700
21
134.625
0
LINE
8
top_outsideCutPath
10
700
20
134.625
11
694
21
134.625
0
LINE
8
top_outsideCutPath
10
694
20
134.625
11
694
21
165.375
0
LINE
8
top_outsideCutPath
10
694
20
165.375
11
700
21
165.375
0
LINE
8
top_outsideCutPath
10
700
20
165.375
11
700
21
196.125
0
LINE
8
top_outsideCutPath
10
700
20
196.125
11
694
21
196.125
0
LINE
8
top_outsideCutPath
10
694
20
196.125
11
694
21
226.875
0
LINE
8
top_outsideCutPath
10
694
20
226.875
11
700
21
226.875
0
LINE
8
top_outsideCutPath
10
700
20
226.875
11
700
21
257.625
0
LINE
8
top_outsideCutPath
10
700
20
257.625
11
694
21
257.625
0
LINE
8
top_outsideCutPath
10
694
20
257.625
11
694
21
288.375
0
LINE
8
top_outsideCutPath
10
694
20
288.375
11
694
21
294
0
LINE
8
top_outsideCutPath
10
694
20
294
11
676.875
21
294
0
LINE
8
top_outsideCutPath
10
676.875
20
294
11
676.875
21
306
0
LINE
8
top_outsideCutPath
10
646.125
20
300
11
676.875
21
300
0
LINE
8
top_outsideCutPath
10
646.125
20
294
11
646.125
21
306
0
LINE
8
top_outsideCutPath
10
646.125
20
294
11
615.375
21
294
0
LINE
8
top_outsideCutPath
10
615.375
20
294
11
615.375
21
306
0
LINE
8
top_outsideCutPath
10
584.625
20
300
11
615.375
21
300
0
LINE
8
top_outsideCutPath
10
584.625
20
294
11
584.625
21
306
0
LINE
8
top_outsideCutPath
10
584.625
20
294
11
553.875
21
294
0
LINE
8
top_outsideCutPath
10
553.875
20
294
11
553.875
21
306
0
LINE
8
top_outsideCutPath
10
523.125
20
300
11
553.875
21
300
0
LINE
8
top_outsideCutPath
10
523.125
20
294
11
523.125
21
306
0
LINE
8
top_outsideCutPath
10
523.125
20
294
11
506
21
294
0
LINE
8
back_outsideCutPath
10
0
20
400
11
0
21
376.875
0
LINE
8
back_outsideCutPath
10
0
20
376.875
11
6
21
376.875
0
LINE
8
back_outsideCutPath
10
6
20
376.875
11
6
21
346.125
0
LINE
8
back_outsideCutPath
10
6
20
346.125
11
0
21
346.125
0
LINE
8
back_outsideCutPath
10
0
20
346.125
11
0
21
315.375
0
LINE
8
back_outsideCutPath
10
0
20
315.375
11
6
21
315.375
0
LINE
8
back_outsideCutPath
10
6
20
315.375
11
6
21
284.625
0
LINE
8
back_outsideCutPath
10
6
20
284.625
11
0
21
284.625
0
LINE
8
back_outsideCutPath
10
0
20
284.625
11
0
21
253.875
0
LINE
8
back_outsideCutPath
10
0
20
253.875
11
6
21
253.875
0
LINE
8
back_outsideCutPath
10
6
20
253.875
11
6
21
223.125
0
LINE
8
back_outsideCutPath
10
6
20
223.125
11
0
21
223.125
0
LINE
8
back_outsideCutPath
10
23.125
20
206
11
53.875
21
206
0
LINE
8
back_outsideCutPath
10
84.625
20
206
11
115.375
21
206
0
LINE
8
back_outsideCutPath
10
146.125
20
206
11
176.875
21
206
0
LINE
8
back_outsideCutPath
10
194
20
223.125
11
206
21
223.125
0
LINE
8
back_outsideCutPath
10
194
20
223.125
11
194
21
253.875
0
LINE
8
back_outsideCutPath
10
194
20
253.875
11
206
21
253.875
0
LINE
8
back_outsideCutPath
10
200
20
253.875
11
200
21
315.375
0
LINE
8
back_outsideCutPath
10
194
20
284.625
11
206
21
284.625
0
LINE
8
back_outsideCutPath
10
194
20
284.625
11
194
21
315.375
0
LINE
8
back_outsideCutPath
10
194
20
315.375
11
206
21
315.375
0
LINE
8
back_outsideCutPath
10
200
20
315.375
11
200
21
376.875
0
LINE
8
back_outsideCutPath
10
194
20
346.125
11
206
21
346.125
0
LINE
8
back_outsideCutPath
10
194
20
346.125
11
194
21
376.875
0
LINE
8
back_outsideCutPath
10
194
20
376.875
11
206
21
376.875
0
LINE
8
back_outsideCutPath
10
200
20
376.875
11
200
21
400
0
LINE
8
back_outsideCutPath
10
200
20
400
11
176.875
21
400
0
LINE
8
back_outsideCutPath
10
176.875
20
400
11
176.875
21
394
0
LINE
8
back_outsideCutPath
10
176.875
20
394
11
146.125
21
394
0
LINE
8
back_outsideCutPath
10
146.125
20
394
11
146.125
21
400
0
LINE
8
back_outsideCutPath
10
146.125
20
400
11
115.375
21
400
0
LINE
8
back_outsideCutPath
10
115.375
20
400
11
115.375
21
394
0
LINE
8
back_outsideCutPath
10
115.375
20
394
11
84.625
21
394
0
LINE
8
back_outsideCutPath
10
84.625
20
394
11
84.625
21
400
0
LINE
8
back_outsideCutPath
10
84.625
20
400
11
53.875
21
400
0
LINE
8
back_outsideCutPath
10
53.875
20
400
11
53.875
21
394
0
LINE
8
back_outsideCutPath
10
53.875
20
394
11
23.125
21
394
0
LINE
8
back_outsideCutPath
10
23.125
20
394
11
23.125
21
400
0
LINE
8
back_outsideCutPath
10
23.125
20
400
11
0
21
400
0
LINE
8
right_outsideCutPath
10
206
20
400
11
206
21
376.875
0
LINE
8
right_outsideCutPath
10
206
20
346.125
11
206
21
315.375
0
LINE
8
right_outsideCutPath
10
206
20
284.625
11
206
21
253.875
0
LINE
8
right_outsideCutPath
10
242.375
20
206
11
273.125
21
206
0
LINE
8
right_outsideCutPath
10
303.875
20
206
11
334.625
21
206
0
LINE
8
right_outsideCutPath
10
365.375
20
206
11
396.125
21
206
0
LINE
8
right_outsideCutPath
10
426.875
20
206
11
457.625
21
206
0
LINE
8
right_outsideCutPath
10
494
20
223.125
11
500
21
223.125
0
LINE
8
right_outsideCutPath
10
500
20
253.875
11
494
21
253.875
0
LINE
8
right_outsideCutPath
10
494
20
253.875
11
494
21
284.625
0
LINE
8
right_outsideCutPath
10
494
20
284.625
11
500
21
284.625
0
LINE
8
right_outsideCutPath
10
500
20
284.625
11
500
21
315.375
0
LINE
8
right_outsideCutPath
10
500
20
315.375
11
494
21
315.375
0
LINE
8
right_outsideCutPath
10
494
20
315.375
11
494
21
346.125
0
LINE
8
right_outsideCutPath
10
494
20
346.125
11
500
21
346.125
0
LINE
8
right_outsideCutPath
10
500
20
342.375
11
500
21
376.875
0
LINE
8
right_outsideCutPath
10
500
20
376.875
11
494
21
376.875
0
LINE
8
right_outsideCutPath
10
494
20
376.875
11
494
21
400
0
LINE
8
right_outsideCutPath
10
494
20
400
11
457.625
21
400
0
LINE
8
right_outsideCutPath
10
457.625
20
400
11
457.625
21
394
0
LINE
8
right_outsideCutPath
10
457.625
20
394
11
426.875
21
394
0
LINE
8
right_outsideCutPath
10
426.875
20
394
11
426.875
21
400
0
LINE
8
right_outsideCutPath
10
426.875
20
400
11
396.125
21
400
0
LINE
8
right_outsideCutPath
10
396.125
20
400
11
396.125
21
394
0
LINE
8
right_outsideCutPath
10
396.125
20
394
11
365.375
21
394
0
LINE
8
right_outsideCutPath
10
365.375
20
394
11
365.375
21
400
0
LINE
8
right_outsideCutPath
10
365.375
20
400
11
334.625
21
400
0
LINE
8
right_outsideCutPath
10
334.625
20
400
11
334.625
21
394
0
LINE
8
right_outsideCutPath
10
334.625
20
394
11
303.875
21
394
0
LINE
8
right_outsideCutPath
10
303.875
20
394
11
303.875
21
400
0
LINE
8
right_outsideCutPath
10
303.875
20
400
11
273.125
21
400
0
LINE
8
right_outsideCutPath
10
273.125
20
400
11
273.125
21
394
0
LINE
8
right_outsideCutPath
10
273.125
20
394
11
242.375
21
394
0
LINE
8
right_outsideCutPath
10
242.375
20
394
11
242.375
21
400
0
LINE
8
right_outsideCutPath
10
242.375
20
400
11
211.625
21
400
0
LINE
8
right_outsideCutPath
10
211.625
20
400
11
206
21
400
0
LINE
8
bottom_outsideCutPath
10
506
20
594
11
506
21
557.625
0
LINE
8
bottom_outsideCutPath
10
506
20
557.625
11
500
21
557.625
0
LINE
8
bottom_outsideCutPath
10
500
20
557.625
11
500
21
526.875
0
LINE
8
bottom_outsideCutPath
10
500
20
526.875
11
506
21
526.875
0
LINE
8
bottom_outsideCutPath
10
506
20
526.875
11
506
21
496.125
0
LINE
8
bottom_outsideCutPath
10
506
20
496.125
11
500
21
496.125
0
LINE
8
bottom_outsideCutPath
10
500
20
496.125
11
500
21
465.375
0
LINE
8
bottom_outsideCutPath
10
500
20
465.375
11
506
21
465.375
0
LINE
8
bottom_outsideCutPath
10
506
20
465.375
11
506
21
434.625
0
LINE
8
bottom_outsideCutPath
10
506
20
434.625
11
500
21
434.625
0
LINE
8
bottom_outsideCutPath
10
500
20
434.625
11
500
21
403.875
0
LINE
8
bottom_outsideCutPath
10
500
20
403.875
11
506
21
403.875
0
LINE
8
bottom_outsideCutPath
10
506
20
403.875
11
506
21
373.125
0
LINE
8
bottom_outsideCutPath
10
506
20
373.125
11
500
21
373.125
0
LINE
8
bottom_outsideCutPath
10
500
20
342.375
11
506
21
342.375
0
LINE
8
bottom_outsideCutPath
10
506
20
342.375
11
506
21
311.625
0
LINE
8
bottom_outsideCutPath
10
506
20
311.625
11
506
21
306
0
LINE
8
bottom_outsideCutPath
10
506
20
306
11
523.125
21
306
0
LINE
8
bottom_outsideCutPath
10
553.875
20
306
11
584.625
21
306
0
LINE
8
bottom_outsideCutPath
10
615.375
20
306
11
646.125
21
306
0
LINE
8
bottom_outsideCutPath
10
676.875
20
306
11
694
21
306
0
LINE
8
bottom_outsideCutPath
10
694
20
306
11
694
21
342.375
0
LINE
8
bottom_outsideCutPath
10
694
20
342.375
11
700
21
342.375
0
LINE
8
bottom_outsideCutPath
10
700
20
342.375
11
700
21
373.125
0
LINE
8
bottom_outsideCutPath
10
700
20
373.125
11
694
21
373.125
0
LINE
8
bottom_outsideCutPath
10
694
20
373.125
11
694
21
403.875
0
LINE
8
bottom_outsideCutPath
10
694
20
403.875
11
700
21
403.875
0
LINE
8
bottom_outsideCutPath
10
700
20
403.875
11
700
21
434.625
0
LINE
8
bottom_outsideCutPath
10
700
20
434.625
11
694
21
434.625
0
LINE
8
bottom_outsideCutPath
10
694
20
434.625
11
694
21
465.375
0
LINE
8
bottom_outsideCutPath
10
694
20
465.375
11
700
21
465.375
0
LINE
8
bottom_outsideCutPath
10
700
20
465.375
11
700
21
496.125
0
LINE
8
bottom_outsideCutPath
10
700
20
496.125
11
694
21
496.125
0
LINE
8
bottom_outsideCutPath
10
694
20
496.125
11
694
21
526.875
0
LINE
8
bottom_outsideCutPath
10
694
20
526.875
11
700
21
526.875
0
LINE
8
bottom_outsideCutPath
10
700
20
526.875
11
700
21
557.625
0
LINE
8
bottom_outsideCutPath
10
700
20
557.625
11
694
21
557.625
0
LINE
8
bottom_outsideCutPath
10
694
20
557.625
11
694
21
588.375
0
LINE
8
bottom_outsideCutPath
10
694
20
588.375
11
694
21
594
0
LINE
8
bottom_outsideCutPath
10
694
20
594
11
676.875
21
594
0
LINE
8
bottom_outsideCutPath
10
676.875
20
594
11
676.875
21
600
0
LINE
8
bottom_outsideCutPath
10
676.875
20
600
11
646.125
21
600
0
LINE
8
bottom_outsideCutPath
10
646.125
20
600
11
646.125
21
594
0
LINE
8
bottom_outsideCutPath
10
646.125
20
594
11
615.375
21
594
0
LINE
8
bottom_outsideCutPath
10
615.375
20
594
11
615.375
21
600
0
LINE
8
bottom_outsideCutPath
10
615.375
20
600
11
584.625
21
600
0
LINE
8
bottom_outsideCutPath
10
584.625
20
600
11
584.625
21
594
0
LINE
8
bottom_outsideCutPath
10
584.625
20
594
11
553.875
21
594
0
LINE
8
bottom_outsideCutPath
10
553.875
20
594
11
553.875
21
600
0
LINE
8
bottom_outsideCutPath
10
553.875
20
600
11
523.125
21
600
0
LINE
8
bottom_outsideCutPath
10
523.125
20
600
11
523.125
21
594
0
LINE
8
bottom_outsideCutPath
10
523.125
20
594
11
506
21
594
0
ENDSEC
0
EOF