0
SECTION
2
HEADER
9
$INSUNITS
70
4
0
ENDSEC
0
SECTION
2
TABLES
0
TABLE
2
LTYPE
0
LTYPE
72
65
70
64
2
CONTINUOUS
3
______
73
0
40
0
0
ENDTAB
0
TABLE
2
LAYER
0
ENDTAB
0
ENDSEC
0
SECTION
2
ENTITIES
0
LINE
8
side1_outsideCutPath
10
10.3923048
20
44
11
10.3923048
21
32.875
0
LINE
8
side1_outsideCutPath
10
10.3923048
20
32.875
11
0
21
32.875
0
LINE
8
side1_outsideCutPath
10
0
20
32.875
11
0
21
17.125
0
LINE
8
side1_outsideCutPath
10
0
20
17.125
11
10.3923048
21
17.125
0
LINE
8
side1_outsideCutPath
10
10.3923048
20
17.125
11
10.3923048
21
6
0
LINE
8
side1_outsideCutPath
10
10.3923048
20
6
11
22.1128037
21
6
0
LINE
8
side1_outsideCutPath
10
22.1128037
20
6
11
22.1128037
21
0
0
LINE
8
side1_outsideCutPath
10
22.1128037
20
0
11
37.8628037
21
0
0
LINE
8
side1_outsideCutPath
10
37.8628037
20
0
11
37.8628037
21
6
0
LINE
8
side1_outsideCutPath
10
37.8628037
20
6
11
53.6128037
21
6
0
LINE
8
side1_outsideCutPath
10
53.6128037
20
6
11
53.6128037
21
0
0
LINE
8
side1_outsideCutPath
10
53.6128037
20
0
11
69.3628037
21
0
0
LINE
8
side1_outsideCutPath
10
69.3628037
20
0
11
69.3628037
21
6
0
LINE
8
side1_outsideCutPath
10
69.3628037
20
6
11
85.1128037
21
6
0
LINE
8
side1_outsideCutPath
10
85.1128037
20
6
11
85.1128037
21
0
0
LINE
8
side1_outsideCutPath
10
85.1128037
20
0
11
100.8628037
21
0
0
LINE
8
side1_outsideCutPath
10
100.8628037
20
0
11
100.8628037
21
6
0
LINE
8
side1_outsideCutPath
10
100.8628037
20
6
11
116.6128037
21
6
0
LINE
8
side1_outsideCutPath
10
116.6128037
20
6
11
122.9756073
21
6
0
LINE
8
side1_outsideCutPath
10
122.9756073
20
6
11
122.9756073
21
32.875
0
LINE
8
side1_outsideCutPath
10
112.5833025
20
17.125
11
133.3679122
21
17.125
0
LINE
8
side1_outsideCutPath
10
112.5833025
20
17.125
11
112.5833025
21
32.875
0
LINE
8
side1_outsideCutPath
10
112.5833025
20
32.875
11
133.3679122
21
32.875
0
LINE
8
side1_outsideCutPath
10
122.9756073
20
32.875
11
122.9756073
21
44
0
LINE
8
side1_outsideCutPath
10
122.9756073
20
44
11
100.8628037
21
44
0
LINE
8
side1_outsideCutPath
10
100.8628037
20
44
11
100.8628037
21
56
0
LINE
8
side1_outsideCutPath
10
85.1128037
20
50
11
100.8628037
21
50
0
LINE
8
side1_outsideCutPath
10
85.1128037
20
44
11
85.1128037
21
56
0
LINE
8
side1_outsideCutPath
10
85.1128037
20
44
11
69.3628037
21
44
0
LINE
8
side1_outsideCutPath
10
69.3628037
20
44
11
69.3628037
21
56
0
LINE
8
side1_outsideCutPath
10
53.6128037
20
50
11
69.3628037
21
50
0
LINE
8
side1_outsideCutPath
10
53.6128037
20
44
11
53.6128037
21
56
0
LINE
8
side1_outsideCutPath
10
53.6128037
20
44
11
37.8628037
21
44
0
LINE
8
side1_outsideCutPath
10
37.8628037
20
44
11
37.8628037
21
56
0
LINE
8
side1_outsideCutPath
10
22.1128037
20
50
11
37.8628037
21
50
0
LINE
8
side1_outsideCutPath
10
22.1128037
20
44
11
22.1128037
21
56
0
LINE
8
side1_outsideCutPath
10
22.1128037
20
44
11
10.3923048
21
44
0
LINE
8
side0_outsideCutPath
10
10.3923048
20
94
11
10.3923048
21
82.875
0
LINE
8
side0_outsideCutPath
10
10.3923048
20
82.875
11
0
21
82.875
0
LINE
8
side0_outsideCutPath
10
0
20
82.875
11
0
21
67.125
0
LINE
8
side0_outsideCutPath
10
0
20
67.125
11
10.3923048
21
67.125
0
LINE
8
side0_outsideCutPath
10
10.3923048
20
67.125
11
10.3923048
21
56
0
LINE
8
side0_outsideCutPath
10
10.3923048
20
56
11
22.1128037
21
56
0
LINE
8
side0_outsideCutPath
10
37.8628037
20
56
11
53.6128037
21
56
0
LINE
8
side0_outsideCutPath
10
69.3628037
20
56
11
85.1128037
21
56
0
LINE
8
side0_outsideCutPath
10
100.8628037
20
56
11
116.6128037
21
56
0
LINE
8
side0_outsideCutPath
10
116.6128037
20
56
11
122.9756073
21
56
0
LINE
8
side0_outsideCutPath
10
122.9756073
20
56
11
122.9756073
21
67.125
0
LINE
8
side0_outsideCutPath
10
122.9756073
20
67.125
11
112.5833025
21
67.125
0
LINE
8
side0_outsideCutPath
10
112.5833025
20
67.125
11
112.5833025
21
82.875
0
LINE
8
side0_outsideCutPath
10
112.5833025
20
82.875
11
122.9756073
21
82.875
0
LINE
8
side0_outsideCutPath
10
122.9756073
20
82.875
11
122.9756073
21
94
0
LINE
8
side0_outsideCutPath
10
122.9756073
20
94
11
100.8628037
21
94
0
LINE
8
side0_outsideCutPath
10
100.8628037
20
94
11
100.8628037
21
100
0
LINE
8
side0_outsideCutPath
10
72.8269053
20
100
11
100.8628037
21
100
0
LINE
8
side0_outsideCutPath
10
85.1128037
20
100
11
85.1128037
21
94
0
LINE
8
side0_outsideCutPath
10
85.1128037
20
94
11
69.3628037
21
94
0
LINE
8
side0_outsideCutPath
10
69.3628037
20
94
11
69.3628037
21
100
0
LINE
8
side0_outsideCutPath
10
41.3269053
20
100
11
69.3628037
21
100
0
LINE
8
side0_outsideCutPath
10
53.6128037
20
100
11
53.6128037
21
94
0
LINE
8
side0_outsideCutPath
10
53.6128037
20
94
11
37.8628037
21
94
0
LINE
8
side0_outsideCutPath
10
37.8628037
20
94
11
37.8628037
21
100
0
LINE
8
side0_outsideCutPath
10
9.8269053
20
100
11
37.8628037
21
100
0
LINE
8
side0_outsideCutPath
10
22.1128037
20
100
11
22.1128037
21
94
0
LINE
8
side0_outsideCutPath
10
22.1128037
20
94
11
10.3923048
21
94
0
LINE
8
side2_outsideCutPath
10
133.3679122
20
44
11
133.3679122
21
32.875
0
LINE
8
side2_outsideCutPath
10
133.3679122
20
17.125
11
133.3679122
21
6
0
LINE
8
side2_outsideCutPath
10
133.3679122
20
6
11
145.088411
21
6
0
LINE
8
side2_outsideCutPath
10
145.088411
20
6
11
145.088411
21
0
0
LINE
8
side2_outsideCutPath
10
145.088411
20
0
11
160.838411
21
0
0
LINE
8
side2_outsideCutPath
10
160.838411
20
0
11
160.838411
21
6
0
LINE
8
side2_outsideCutPath
10
160.838411
20
6
11
176.588411
21
6
0
LINE
8
side2_outsideCutPath
10
176.588411
20
6
11
176.588411
21
0
0
LINE
8
side2_outsideCutPath
10
176.588411
20
0
11
192.338411
21
0
0
LINE
8
side2_outsideCutPath
10
192.338411
20
0
11
192.338411
21
6
0
LINE
8
side2_outsideCutPath
10
192.338411
20
6
11
208.088411
21
6
0
LINE
8
side2_outsideCutPath
10
208.088411
20
6
11
208.088411
21
0
0
LINE
8
side2_outsideCutPath
10
208.088411
20
0
11
223.838411
21
0
0
LINE
8
side2_outsideCutPath
10
223.838411
20
0
11
223.838411
21
6
0
LINE
8
side2_outsideCutPath
10
223.838411
20
6
11
239.588411
21
6
0
LINE
8
side2_outsideCutPath
10
239.588411
20
6
11
245.9512147
21
6
0
LINE
8
side2_outsideCutPath
10
245.9512147
20
6
11
245.9512147
21
17.125
0
LINE
8
side2_outsideCutPath
10
245.9512147
20
17.125
11
235.5589098
21
17.125
0
LINE
8
side2_outsideCutPath
10
235.5589098
20
17.125
11
235.5589098
21
32.875
0
LINE
8
side2_outsideCutPath
10
235.5589098
20
32.875
11
245.9512147
21
32.875
0
LINE
8
side2_outsideCutPath
10
245.9512147
20
32.875
11
245.9512147
21
44
0
LINE
8
side2_outsideCutPath
10
245.9512147
20
44
11
223.838411
21
44
0
LINE
8
side2_outsideCutPath
10
223.838411
20
44
11
223.838411
21
50
0
LINE
8
side2_outsideCutPath
10
202.7307159
20
50
11
223.838411
21
50
0
LINE
8
side2_outsideCutPath
10
208.088411
20
50
11
208.088411
21
44
0
LINE
8
side2_outsideCutPath
10
208.088411
20
44
11
192.338411
21
44
0
LINE
8
side2_outsideCutPath
10
192.338411
20
44
11
192.338411
21
50
0
LINE
8
side2_outsideCutPath
10
171.2307159
20
50
11
192.338411
21
50
0
LINE
8
side2_outsideCutPath
10
176.588411
20
50
11
176.588411
21
44
0
LINE
8
side2_outsideCutPath
10
176.588411
20
44
11
160.838411
21
44
0
LINE
8
side2_outsideCutPath
10
160.838411
20
44
11
160.838411
21
50
0
LINE
8
side2_outsideCutPath
10
139.7307159
20
50
11
160.838411
21
50
0
LINE
8
side2_outsideCutPath
10
145.088411
20
50
11
145.088411
21
44
0
LINE
8
side2_outsideCutPath
10
145.088411
20
44
11
133.3679122
21
44
0
LINE
8
top_outsideCutPath
10
64.9519053
20
212.5
11
77.7403579
21
190.3497503
0
LINE
8
top_outsideCutPath
10
77.7403579
20
190.3497503
11
72.5442055
21
187.3497503
0
LINE
8
top_outsideCutPath
10
72.5442055
20
187.3497503
11
80.4192055
21
173.7098502
0
LINE
8
top_outsideCutPath
10
80.4192055
20
173.7098502
11
85.6153579
21
176.7098502
0
LINE
8
top_outsideCutPath
10
85.6153579
20
176.7098502
11
93.4903579
21
163.0699501
0
LINE
8
top_outsideCutPath
10
93.4903579
20
163.0699501
11
88.2942055
21
160.0699501
0
LINE
8
top_outsideCutPath
10
88.2942055
20
160.0699501
11
96.1692055
21
146.4300499
0
LINE
8
top_outsideCutPath
10
96.1692055
20
146.4300499
11
101.3653579
21
149.4300499
0
LINE
8
top_outsideCutPath
10
101.3653579
20
149.4300499
11
109.2403579
21
135.7901498
0
LINE
8
top_outsideCutPath
10
109.2403579
20
135.7901498
11
104.0442055
21
132.7901498
0
LINE
8
top_outsideCutPath
10
104.0442055
20
132.7901498
11
111.9192055
21
119.1502497
0
LINE
8
top_outsideCutPath
10
111.9192055
20
119.1502497
11
117.1153579
21
122.1502497
0
LINE
8
top_outsideCutPath
10
117.1153579
20
122.1502497
11
124.9903579
21
108.5103496
0
LINE
8
top_outsideCutPath
10
124.9903579
20
108.5103496
11
129.9038106
21
100
0
LINE
8
top_outsideCutPath
10
129.9038106
20
100
11
104.3269053
21
100
0
LINE
8
top_outsideCutPath
10
104.3269053
20
100
11
104.3269053
21
106
0
LINE
8
top_outsideCutPath
10
104.3269053
20
106
11
88.5769053
21
106
0
LINE
8
top_outsideCutPath
10
88.5769053
20
106
11
88.5769053
21
100
0
LINE
8
top_outsideCutPath
10
72.8269053
20
100
11
72.8269053
21
106
0
LINE
8
top_outsideCutPath
10
72.8269053
20
106
11
57.0769053
21
106
0
LINE
8
top_outsideCutPath
10
57.0769053
20
106
11
57.0769053
21
100
0
LINE
8
top_outsideCutPath
10
41.3269053
20
100
11
41.3269053
21
106
0
LINE
8
top_outsideCutPath
10
41.3269053
20
106
11
25.5769053
21
106
0
LINE
8
top_outsideCutPath
10
25.5769053
20
106
11
25.5769053
21
100
0
LINE
8
top_outsideCutPath
10
9.8269053
20
100
11
0
21
100
0
LINE
8
top_outsideCutPath
10
0
20
100
11
12.7884526
21
122.1502497
0
LINE
8
top_outsideCutPath
10
12.7884526
20
122.1502497
11
17.9846051
21
119.1502497
0
LINE
8
top_outsideCutPath
10
17.9846051
20
119.1502497
11
25.8596051
21
132.7901498
0
LINE
8
top_outsideCutPath
10
25.8596051
20
132.7901498
11
20.6634526
21
135.7901498
0
LINE
8
top_outsideCutPath
10
20.6634526
20
135.7901498
11
28.5384526
21
149.4300499
0
LINE
8
top_outsideCutPath
10
28.5384526
20
149.4300499
11
33.7346051
21
146.4300499
0
LINE
8
top_outsideCutPath
10
33.7346051
20
146.4300499
11
41.6096051
21
160.0699501
0
LINE
8
top_outsideCutPath
10
41.6096051
20
160.0699501
11
36.4134526
21
163.0699501
0
LINE
8
top_outsideCutPath
10
36.4134526
20
163.0699501
11
44.2884526
21
176.7098502
0
LINE
8
top_outsideCutPath
10
44.2884526
20
176.7098502
11
49.4846051
21
173.7098502
0
LINE
8
top_outsideCutPath
10
49.4846051
20
173.7098502
11
57.3596051
21
187.3497503
0
LINE
8
top_outsideCutPath
10
57.3596051
20
187.3497503
11
52.1634526
21
190.3497503
0
LINE
8
top_outsideCutPath
10
52.1634526
20
190.3497503
11
60.0384526
21
203.9896504
0
LINE
8
top_outsideCutPath
10
60.0384526
20
203.9896504
11
64.9519053
21
212.5
0
LINE
8
bottom_outsideCutPath
10
194.8557159
20
162.5
11
207.6441685
21
140.3497503
0
LINE
8
bottom_outsideCutPath
10
207.6441685
20
140.3497503
11
202.4480161
21
137.3497503
0
LINE
8
bottom_outsideCutPath
10
202.4480161
20
137.3497503
11
210.3230161
21
123.7098502
0
LINE
8
bottom_outsideCutPath
10
210.3230161
20
123.7098502
11
215.5191685
21
126.7098502
0
LINE
8
bottom_outsideCutPath
10
215.5191685
20
126.7098502
11
223.3941685
21
113.0699501
0
LINE
8
bottom_outsideCutPath
10
223.3941685
20
113.0699501
11
218.1980161
21
110.0699501
0
LINE
8
bottom_outsideCutPath
10
218.1980161
20
110.0699501
11
226.0730161
21
96.4300499
0
LINE
8
bottom_outsideCutPath
10
226.0730161
20
96.4300499
11
231.2691685
21
99.4300499
0
LINE
8
bottom_outsideCutPath
10
231.2691685
20
99.4300499
11
239.1441685
21
85.7901498
0
LINE
8
bottom_outsideCutPath
10
239.1441685
20
85.7901498
11
233.9480161
21
82.7901498
0
LINE
8
bottom_outsideCutPath
10
233.9480161
20
82.7901498
11
241.8230161
21
69.1502497
0
LINE
8
bottom_outsideCutPath
10
241.8230161
20
69.1502497
11
247.0191685
21
72.1502497
0
LINE
8
bottom_outsideCutPath
10
247.0191685
20
72.1502497
11
254.8941685
21
58.5103496
0
LINE
8
bottom_outsideCutPath
10
254.8941685
20
58.5103496
11
259.8076211
21
50
0
LINE
8
bottom_outsideCutPath
10
259.8076211
20
50
11
234.2307159
21
50
0
LINE
8
bottom_outsideCutPath
10
234.2307159
20
50
11
234.2307159
21
56
0
LINE
8
bottom_outsideCutPath
10
234.2307159
20
56
11
218.4807159
21
56
0
LINE
8
bottom_outsideCutPath
10
218.4807159
20
56
11
218.4807159
21
50
0
LINE
8
bottom_outsideCutPath
10
202.7307159
20
50
11
202.7307159
21
56
0
LINE
8
bottom_outsideCutPath
10
202.7307159
20
56
11
186.9807159
21
56
0
LINE
8
bottom_outsideCutPath
10
186.9807159
20
56
11
186.9807159
21
50
0
LINE
8
bottom_outsideCutPath
10
171.2307159
20
50
11
171.2307159
21
56
0
LINE
8
bottom_outsideCutPath
10
171.2307159
20
56
11
155.4807159
21
56
0
LINE
8
bottom_outsideCutPath
10
155.4807159
20
56
11
155.4807159
21
50
0
LINE
8
bottom_outsideCutPath
10
139.7307159
20
50
11
129.9038106
21
50
0
LINE
8
bottom_outsideCutPath
10
129.9038106
20
50
11
142.6922632
21
72.1502497
0
LINE
8
bottom_outsideCutPath
10
142.6922632
20
72.1502497
11
147.8884156
21
69.1502497
0
LINE
8
bottom_outsideCutPath
10
147.8884156
20
69.1502497
11
155.7634156
21
82.7901498
0
LINE
8
bottom_outsideCutPath
10
155.7634156
20
82.7901498
11
150.5672632
21
85.7901498
0
LINE
8
bottom_outsideCutPath
10
150.5672632
20
85.7901498
11
158.4422632
21
99.4300499
0
LINE
8
bottom_outsideCutPath
10
158.4422632
20
99.4300499
11
163.6384156
21
96.4300499
0
LINE
8
bottom_outsideCutPath
10
163.6384156
20
96.4300499
11
171.5134156
21
110.0699501
0
LINE
8
bottom_outsideCutPath
10
171.5134156
20
110.0699501
11
166.3172632
21
113.0699501
0
LINE
8
bottom_outsideCutPath
10
166.3172632
20
113.0699501
11
174.1922632
21
126.7098502
0
LINE
8
bottom_outsideCutPath
10
174.1922632
20
126.7098502
11
179.3884156
21
123.7098502
0
LINE
8
bottom_outsideCutPath
10
179.3884156
20
123.7098502
11
187.2634156
21
137.3497503
0
LINE
8
bottom_outsideCutPath
10
187.2634156
20
137.3497503
11
182.0672632
21
140.3497503
0
LINE
8
bottom_outsideCutPath
10
182.0672632
20
140.3497503
11
189.9422632
21
153.9896504
0
LINE
8
bottom_outsideCutPath
10
189.9422632
20
153.9896504
11
194.8557159
21
162.5
0
ENDSEC
0
EOF