0
SECTION
2
HEADER
9
$INSUNITS
70
4
0
ENDSEC
0
SECTION
2
TABLES
0
TABLE
2
LTYPE
0
LTYPE
72
65
70
64
2
CONTINUOUS
3
______
73
0
40
0
0
ENDTAB
0
TABLE
2
LAYER
0
ENDTAB
0
ENDSEC
0
SECTION
2
ENTITIES
0
LINE
8
front_outsideCutPath
10
0
20
82.625
11
0
21
117.375
0
LINE
8
front_outsideCutPath
10
0
20
82.625
11
6
21
82.625
0
LINE
8
front_outsideCutPath
10
6
20
82.625
11
6
21
60.875
0
LINE
8
front_outsideCutPath
10
6
20
60.875
11
0
21
60.875
0
LINE
8
front_outsideCutPath
10
0
20
60.875
11
0
21
39.125
0
LINE
8
front_outsideCutPath
10
0
20
39.125
11
6
21
39.125
0
LINE
8
front_outsideCutPath
10
6
20
39.125
11
6
21
17.375
0
LINE
8
front_outsideCutPath
10
6
20
17.375
11
0
21
17.375
0
LINE
8
front_outsideCutPath
10
0
20
17.375
11
0
21
0
0
LINE
8
front_outsideCutPath
10
0
20
0
11
17.375
21
0
0
LINE
8
front_outsideCutPath
10
17.375
20
0
11
17.375
21
6
0
LINE
8
front_outsideCutPath
10
17.375
20
6
11
39.125
21
6
0
LINE
8
front_outsideCutPath
10
39.125
20
6
11
39.125
21
0
0
LINE
8
front_outsideCutPath
10
39.125
20
0
11
60.875
21
0
0
LINE
8
front_outsideCutPath
10
60.875
20
0
11
60.875
21
6
0
LINE
8
front_outsideCutPath
10
60.875
20
6
11
82.625
21
6
0
LINE
8
front_outsideCutPath
10
82.625
20
6
11
82.625
21
0
0
LINE
8
front_outsideCutPath
10
82.625
20
0
11
100
21
0
0
LINE
8
front_outsideCutPath
10
100
20
0
11
100
21
39.125
0
LINE
8
front_outsideCutPath
10
94
20
17.375
11
106
21
17.375
0
LINE
8
front_outsideCutPath
10
94
20
17.375
11
94
21
39.125
0
LINE
8
front_outsideCutPath
10
94
20
39.125
11
106
21
39.125
0
LINE
8
front_outsideCutPath
10
100
20
39.125
11
100
21
82.625
0
LINE
8
front_outsideCutPath
10
94
20
60.875
11
106
21
60.875
0
LINE
8
front_outsideCutPath
10
94
20
60.875
11
94
21
82.625
0
LINE
8
front_outsideCutPath
10
94
20
82.625
11
106
21
82.625
0
LINE
8
front_outsideCutPath
10
100
20
82.625
11
100
21
139.125
0
LINE
8
front_outsideCutPath
10
82.625
20
100
11
100
21
100
0
LINE
8
front_outsideCutPath
10
82.625
20
94
11
82.625
21
106
0
LINE
8
front_outsideCutPath
10
82.625
20
94
11
60.875
21
94
0
LINE
8
front_outsideCutPath
10
60.875
20
94
11
60.875
21
106
0
LINE
8
front_outsideCutPath
10
39.125
20
100
11
60.875
21
100
0
LINE
8
front_outsideCutPath
10
39.125
20
94
11
39.125
21
106
0
LINE
8
front_outsideCutPath
10
39.125
20
94
11
17.375
21
94
0
LINE
8
front_outsideCutPath
10
17.375
20
94
11
17.375
21
106
0
LINE
8
front_outsideCutPath
10
0
20
100
11
17.375
21
100
0
LINE
8
left_outsideCutPath
10
106
20
82.625
11
106
21
117.375
0
LINE
8
left_outsideCutPath
10
106
20
60.875
11
106
21
39.125
0
LINE
8
left_outsideCutPath
10
106
20
17.375
11
106
21
0
0
LINE
8
left_outsideCutPath
10
106
20
0
11
120.625
21
0
0
LINE
8
left_outsideCutPath
10
120.625
20
0
11
120.625
21
6
0
LINE
8
left_outsideCutPath
10
120.625
20
6
11
142.375
21
6
0
LINE
8
left_outsideCutPath
10
142.375
20
6
11
142.375
21
0
0
LINE
8
left_outsideCutPath
10
142.375
20
0
11
164.125
21
0
0
LINE
8
left_outsideCutPath
10
164.125
20
0
11
164.125
21
6
0
LINE
8
left_outsideCutPath
10
164.125
20
6
11
185.875
21
6
0
LINE
8
left_outsideCutPath
10
185.875
20
6
11
185.875
21
0
0
LINE
8
left_outsideCutPath
10
185.875
20
0
11
207.625
21
0
0
LINE
8
left_outsideCutPath
10
207.625
20
0
11
207.625
21
6
0
LINE
8
left_outsideCutPath
10
207.625
20
6
11
229.375
21
6
0
LINE
8
left_outsideCutPath
10
229.375
20
6
11
229.375
21
0
0
LINE
8
left_outsideCutPath
10
229.375
20
0
11
244
21
0
0
LINE
8
left_outsideCutPath
10
244
20
0
11
244
21
17.375
0
LINE
8
left_outsideCutPath
10
244
20
17.375
11
250
21
17.375
0
LINE
8
left_outsideCutPath
10
250
20
17.375
11
250
21
42.375
0
LINE
8
left_outsideCutPath
10
250
20
39.125
11
244
21
39.125
0
LINE
8
left_outsideCutPath
10
244
20
39.125
11
244
21
60.875
0
LINE
8
left_outsideCutPath
10
244
20
60.875
11
250
21
60.875
0
LINE
8
left_outsideCutPath
10
250
20
60.875
11
250
21
85.875
0
LINE
8
left_outsideCutPath
10
250
20
82.625
11
244
21
82.625
0
LINE
8
left_outsideCutPath
10
244
20
82.625
11
244
21
117.375
0
LINE
8
left_outsideCutPath
10
229.375
20
100
11
244
21
100
0
LINE
8
left_outsideCutPath
10
229.375
20
94
11
229.375
21
106
0
LINE
8
left_outsideCutPath
10
229.375
20
94
11
207.625
21
94
0
LINE
8
left_outsideCutPath
10
207.625
20
94
11
207.625
21
106
0
LINE
8
left_outsideCutPath
10
185.875
20
100
11
207.625
21
100
0
LINE
8
left_outsideCutPath
10
185.875
20
94
11
185.875
21
106
0
LINE
8
left_outsideCutPath
10
185.875
20
94
11
164.125
21
94
0
LINE
8
left_outsideCutPath
10
164.125
20
94
11
164.125
21
106
0
LINE
8
left_outsideCutPath
10
142.375
20
100
11
164.125
21
100
0
LINE
8
left_outsideCutPath
10
142.375
20
94
11
142.375
21
106
0
LINE
8
left_outsideCutPath
10
142.375
20
94
11
120.625
21
94
0
LINE
8
left_outsideCutPath
10
120.625
20
94
11
120.625
21
106
0
LINE
8
left_outsideCutPath
10
106
20
100
11
120.625
21
100
0
LINE
8
top_outsideCutPath
10
256
20
144
11
256
21
129.375
0
LINE
8
top_outsideCutPath
10
256
20
129.375
11
250
21
129.375
0
LINE
8
top_outsideCutPath
10
250
20
107.625
11
250
21
139.125
0
LINE
8
top_outsideCutPath
10
250
20
107.625
11
256
21
107.625
0
LINE
8
top_outsideCutPath
10
256
20
107.625
11
256
21
85.875
0
LINE
8
top_outsideCutPath
10
256
20
85.875
11
250
21
85.875
0
LINE
8
top_outsideCutPath
10
250
20
64.125
11
256
21
64.125
0
LINE
8
top_outsideCutPath
10
256
20
64.125
11
256
21
42.375
0
LINE
8
top_outsideCutPath
10
256
20
42.375
11
250
21
42.375
0
LINE
8
top_outsideCutPath
10
250
20
20.625
11
256
21
20.625
0
LINE
8
top_outsideCutPath
10
256
20
20.625
11
256
21
6
0
LINE
8
top_outsideCutPath
10
256
20
6
11
267.375
21
6
0
LINE
8
top_outsideCutPath
10
267.375
20
6
11
267.375
21
0
0
LINE
8
top_outsideCutPath
10
267.375
20
0
11
289.125
21
0
0
LINE
8
top_outsideCutPath
10
289.125
20
0
11
289.125
21
6
0
LINE
8
top_outsideCutPath
10
289.125
20
6
11
310.875
21
6
0
LINE
8
top_outsideCutPath
10
310.875
20
6
11
310.875
21
0
0
LINE
8
top_outsideCutPath
10
310.875
20
0
11
332.625
21
0
0
LINE
8
top_outsideCutPath
10
332.625
20
0
11
332.625
21
6
0
LINE
8
top_outsideCutPath
10
332.625
20
6
11
344
21
6
0
LINE
8
top_outsideCutPath
10
344
20
6
11
344
21
20.625
0
LINE
8
top_outsideCutPath
10
344
20
20.625
11
350
21
20.625
0
LINE
8
top_outsideCutPath
10
350
20
20.625
11
350
21
42.375
0
LINE
8
top_outsideCutPath
10
350
20
42.375
11
344
21
42.375
0
LINE
8
top_outsideCutPath
10
344
20
42.375
11
344
21
64.125
0
LINE
8
top_outsideCutPath
10
344
20
64.125
11
350
21
64.125
0
LINE
8
top_outsideCutPath
10
350
20
64.125
11
350
21
85.875
0
LINE
8
top_outsideCutPath
10
350
20
85.875
11
344
21
85.875
0
LINE
8
top_outsideCutPath
10
344
20
85.875
11
344
21
107.625
0
LINE
8
top_outsideCutPath
10
344
20
107.625
11
350
21
107.625
0
LINE
8
top_outsideCutPath
10
350
20
107.625
11
350
21
129.375
0
LINE
8
top_outsideCutPath
10
350
20
129.375
11
344
21
129.375
0
LINE
8
top_outsideCutPath
10
344
20
129.375
11
344
21
144
0
LINE
8
top_outsideCutPath
10
344
20
144
11
332.625
21
144
0
LINE
8
top_outsideCutPath
10
332.625
20
144
11
332.625
21
156
0
LINE
8
top_outsideCutPath
10
310.875
20
150
11
332.625
21
150
0
LINE
8
top_outsideCutPath
10
310.875
20
144
11
310.875
21
156
0
LINE
8
top_outsideCutPath
10
310.875
20
144
11
289.125
21
144
0
LINE
8
top_outsideCutPath
10
289.125
20
144
11
289.125
21
156
0
LINE
8
top_outsideCutPath
10
267.375
20
150
11
289.125
21
150
0
LINE
8
top_outsideCutPath
10
267.375
20
144
11
267.375
21
156
0
LINE
8
top_outsideCutPath
10
267.375
20
144
11
256
21
144
0
LINE
8
back_outsideCutPath
10
0
20
200
11
0
21
182.625
0
LINE
8
back_outsideCutPath
10
0
20
182.625
11
6
21
182.625
0
LINE
8
back_outsideCutPath
10
6
20
182.625
11
6
21
160.875
0
LINE
8
back_outsideCutPath
10
6
20
160.875
11
0
21
160.875
0
LINE
8
back_outsideCutPath
10
0
20
160.875
11
0
21
139.125
0
LINE
8
back_outsideCutPath
10
0
20
139.125
11
6
21
139.125
0
LINE
8
back_outsideCutPath
10
6
20
139.125
11
6
21
117.375
0
LINE
8
back_outsideCutPath
10
6
20
117.375
11
0
21
117.375
0
LINE
8
back_outsideCutPath
10
17.375
20
106
11
39.125
21
106
0
LINE
8
back_outsideCutPath
10
60.875
20
106
11
82.625
21
106
0
LINE
8
back_outsideCutPath
10
94
20
117.375
11
106
21
117.375
0
LINE
8
back_outsideCutPath
10
94
20
117.375
11
94
21
139.125
0
LINE
8
back_outsideCutPath
10
94
20
139.125
11
106
21
139.125
0
LINE
8
back_outsideCutPath
10
100
20
139.125
11
100
21
182.625
0
LINE
8
back_outsideCutPath
10
94
20
160.875
11
106
21
160.875
0
LINE
8
back_outsideCutPath
10
94
20
160.875
11
94
21
182.625
0
LINE
8
back_outsideCutPath
10
94
20
182.625
11
106
21
182.625
0
LINE
8
back_outsideCutPath
10
100
20
182.625
11
100
21
200
0
LINE
8
back_outsideCutPath
10
100
20
200
11
82.625
21
200
0
LINE
8
back_outsideCutPath
10
82.625
20
200
11
82.625
21
194
0
LINE
8
back_outsideCutPath
10
82.625
20
194
11
60.875
21
194
0
LINE
8
back_outsideCutPath
10
60.875
20
194
11
60.875
21
200
0
LINE
8
back_outsideCutPath
10
60.875
20
200
11
39.125
21
200
0
LINE
8
back_outsideCutPath
10
39.125
20
200
11
39.125
21
194
0
LINE
8
back_outsideCutPath
10
39.125
20
194
11
17.375
21
194
0
LINE
8
back_outsideCutPath
10
17.375
20
194
11
17.375
21
200
0
LINE
8
back_outsideCutPath
10
17.375
20
200
11
0
21
200
0
LINE
8
right_outsideCutPath
10
106
20
200
11
106
21
182.625
0
LINE
8
right_outsideCutPath
10
106
20
160.875
11
106
21
139.125
0
LINE
8
right_outsideCutPath
10
120.625
20
106
11
142.375
21
106
0
LINE
8
right_outsideCutPath
10
164.125
20
106
11
185.875
21
106
0
LINE
8
right_outsideCutPath
10
207.625
20
106
11
229.375
21
106
0
LINE
8
right_outsideCutPath
10
244
20
117.375
11
250
21
117.375
0
LINE
8
right_outsideCutPath
10
250
20
139.125
11
244
21
139.125
0
LINE
8
right_outsideCutPath
10
244
20
139.125
11
244
21
160.875
0
LINE
8
right_outsideCutPath
10
244
20
160.875
11
250
21
160.875
0
LINE
8
right_outsideCutPath
10
250
20
160.875
11
250
21
192.375
0
LINE
8
right_outsideCutPath
10
250
20
182.625
11
244
21
182.625
0
LINE
8
right_outsideCutPath
10
244
20
182.625
11
244
21
200
0
LINE
8
right_outsideCutPath
10
244
20
200
11
229.375
21
200
0
LINE
8
right_outsideCutPath
10
229.375
20
200
11
229.375
21
194
0
LINE
8
right_outsideCutPath
10
229.375
20
194
11
207.625
21
194
0
LINE
8
right_outsideCutPath
10
207.625
20
194
11
207.625
21
200
0
LINE
8
right_outsideCutPath
10
207.625
20
200
11
185.875
21
200
0
LINE
8
right_outsideCutPath
10
185.875
20
200
11
185.875
21
194
0
LINE
8
right_outsideCutPath
10
185.875
20
194
11
164.125
21
194
0
LINE
8
right_outsideCutPath
10
164.125
20
194
11
164.125
21
200
0
LINE
8
right_outsideCutPath
10
164.125
20
200
11
142.375
21
200
0
LINE
8
right_outsideCutPath
10
142.375
20
200
11
142.375
21
194
0
LINE
8
right_outsideCutPath
10
142.375
20
194
11
120.625
21
194
0
LINE
8
right_outsideCutPath
10
120.625
20
194
11
120.625
21
200
0
LINE
8
right_outsideCutPath
10
120.625
20
200
11
106
21
200
0
LINE
8
bottom_outsideCutPath
10
256
20
294
11
256
21
279.375
0
LINE
8
bottom_outsideCutPath
10
256
20
279.375
11
250
21
279.375
0
LINE
8
bottom_outsideCutPath
10
250
20
279.375
11
250
21
257.625
0
LINE
8
bottom_outsideCutPath
10
250
20
257.625
11
256
21
257.625
0
LINE
8
bottom_outsideCutPath
10
256
20
257.625
11
256
21
235.875
0
LINE
8
bottom_outsideCutPath
10
256
20
235.875
11
250
21
235.875
0
LINE
8
bottom_outsideCutPath
10
250
20
235.875
11
250
21
214.125
0
LINE
8
bottom_outsideCutPath
10
250
20
214.125
11
256
21
214.125
0
LINE
8
bottom_outsideCutPath
10
256
20
214.125
11
256
21
192.375
0
LINE
8
bottom_outsideCutPath
10
256
20
192.375
11
250
21
192.375
0
LINE
8
bottom_outsideCutPath
10
250
20
170.625
11
256
21
170.625
0
LINE
8
bottom_outsideCutPath
10
256
20
170.625
11
256
21
156
0
LINE
8
bottom_outsideCutPath
10
256
20
156
11
267.375
21
156
0
LINE
8
bottom_outsideCutPath
10
289.125
20
156
11
310.875
21
156
0
LINE
8
bottom_outsideCutPath
10
332.625
20
156
11
344
21
156
0
LINE
8
bottom_outsideCutPath
10
344
20
156
11
344
21
170.625
0
LINE
8
bottom_outsideCutPath
10
344
20
170.625
11
350
21
170.625
0
LINE
8
bottom_outsideCutPath
10
350
20
170.625
11
350
21
192.375
0
LINE
8
bottom_outsideCutPath
10
350
20
192.375
11
344
21
192.375
0
LINE
8
bottom_outsideCutPath
10
344
20
192.375
11
344
21
214.125
0
LINE
8
bottom_outsideCutPath
10
344
20
214.125
11
350
21
214.125
0
LINE
8
bottom_outsideCutPath
10
350
20
214.125
11
350
21
235.875
0
LINE
8
bottom_outsideCutPath
10
350
20
235.875
11
344
21
235.875
0
LINE
8
bottom_outsideCutPath
10
344
20
235.875
11
344
21
257.625
0
LINE
8
bottom_outsideCutPath
10
344
20
257.625
11
350
21
257.625
0
LINE
8
bottom_outsideCutPath
10
350
20
257.625
11
350
21
279.375
0
LINE
8
bottom_outsideCutPath
10
350
20
279.375
11
344
21
279.375
0
LINE
8
bottom_outsideCutPath
10
344
20
279.375
11
344
21
294
0
LINE
8
bottom_outsideCutPath
10
344
20
294
11
332.625
21
294
0
LINE
8
bottom_outsideCutPath
10
332.625
20
294
11
332.625
21
300
0
LINE
8
bottom_outsideCutPath
10
332.625
20
300
11
310.875
21
300
0
LINE
8
bottom_outsideCutPath
10
310.875
20
300
11
310.875
21
294
0
LINE
8
bottom_outsideCutPath
10
310.875
20
294
11
289.125
21
294
0
LINE
8
bottom_outsideCutPath
10
289.125
20
294
11
289.125
21
300
0
LINE
8
bottom_outsideCutPath
10
289.125
20
300
11
267.375
21
300
0
LINE
8
bottom_outsideCutPath
10
267.375
20
300
11
267.375
21
294
0
LINE
8
bottom_outsideCutPath
10
267.375
20
294
11
256
21
294
0
ENDSEC
0
EOF