0
SECTION
2
HEADER
9
$INSUNITS
70
4
0
ENDSEC
0
SECTION
2
TABLES
0
TABLE
2
LTYPE
0
LTYPE
72
65
70
64
2
CONTINUOUS
3
______
73
0
40
0
0
ENDTAB
0
TABLE
2
LAYER
0
ENDTAB
0
ENDSEC
0
SECTION
2
ENTITIES
0
LINE
8
front_outsideCutPath
10
0
20
33.625
11
0
21
66.375
0
LINE
8
front_outsideCutPath
10
0
20
33.625
11
6
21
33.625
0
LINE
8
front_outsideCutPath
10
6
20
33.625
11
6
21
16.375
0
LINE
8
front_outsideCutPath
10
6
20
16.375
11
0
21
16.375
0
LINE
8
front_outsideCutPath
10
0
20
16.375
11
0
21
0
0
LINE
8
front_outsideCutPath
10
0
20
0
11
16.375
21
0
0
LINE
8
front_outsideCutPath
10
16.375
20
0
11
16.375
21
6
0
LINE
8
front_outsideCutPath
10
16.375
20
6
11
33.625
21
6
0
LINE
8
front_outsideCutPath
10
33.625
20
6
11
33.625
21
0
0
LINE
8
front_outsideCutPath
10
33.625
20
0
11
50
21
0
0
LINE
8
front_outsideCutPath
10
50
20
0
11
50
21
33.625
0
LINE
8
front_outsideCutPath
10
44
20
16.375
11
56
21
16.375
0
LINE
8
front_outsideCutPath
10
44
20
16.375
11
44
21
33.625
0
LINE
8
front_outsideCutPath
10
44
20
33.625
11
56
21
33.625
0
LINE
8
front_outsideCutPath
10
50
20
33.625
11
50
21
83.625
0
LINE
8
front_outsideCutPath
10
33.625
20
50
11
50
21
50
0
LINE
8
front_outsideCutPath
10
33.625
20
44
11
33.625
21
56
0
LINE
8
front_outsideCutPath
10
33.625
20
44
11
16.375
21
44
0
LINE
8
front_outsideCutPath
10
16.375
20
44
11
16.375
21
56
0
LINE
8
front_outsideCutPath
10
0
20
50
11
16.375
21
50
0
LINE
8
left_outsideCutPath
10
56
20
33.625
11
56
21
66.375
0
LINE
8
left_outsideCutPath
10
56
20
16.375
11
56
21
0
0
LINE
8
left_outsideCutPath
10
56
20
0
11
64.625
21
0
0
LINE
8
left_outsideCutPath
10
64.625
20
0
11
64.625
21
6
0
LINE
8
left_outsideCutPath
10
64.625
20
6
11
81.875
21
6
0
LINE
8
left_outsideCutPath
10
81.875
20
6
11
81.875
21
0
0
LINE
8
left_outsideCutPath
10
81.875
20
0
11
99.125
21
0
0
LINE
8
left_outsideCutPath
10
99.125
20
0
11
99.125
21
6
0
LINE
8
left_outsideCutPath
10
99.125
20
6
11
116.375
21
6
0
LINE
8
left_outsideCutPath
10
116.375
20
6
11
116.375
21
0
0
LINE
8
left_outsideCutPath
10
116.375
20
0
11
133.625
21
0
0
LINE
8
left_outsideCutPath
10
133.625
20
0
11
133.625
21
6
0
LINE
8
left_outsideCutPath
10
133.625
20
6
11
150.875
21
6
0
LINE
8
left_outsideCutPath
10
150.875
20
6
11
150.875
21
0
0
LINE
8
left_outsideCutPath
10
150.875
20
0
11
168.125
21
0
0
LINE
8
left_outsideCutPath
10
168.125
20
0
11
168.125
21
6
0
LINE
8
left_outsideCutPath
10
168.125
20
6
11
185.375
21
6
0
LINE
8
left_outsideCutPath
10
185.375
20
6
11
185.375
21
0
0
LINE
8
left_outsideCutPath
10
185.375
20
0
11
194
21
0
0
LINE
8
left_outsideCutPath
10
194
20
0
11
194
21
16.375
0
LINE
8
left_outsideCutPath
10
194
20
16.375
11
200
21
16.375
0
LINE
8
left_outsideCutPath
10
200
20
14.625
11
200
21
33.625
0
LINE
8
left_outsideCutPath
10
200
20
33.625
11
194
21
33.625
0
LINE
8
left_outsideCutPath
10
194
20
33.625
11
194
21
66.375
0
LINE
8
left_outsideCutPath
10
185.375
20
50
11
194
21
50
0
LINE
8
left_outsideCutPath
10
185.375
20
44
11
185.375
21
56
0
LINE
8
left_outsideCutPath
10
185.375
20
44
11
168.125
21
44
0
LINE
8
left_outsideCutPath
10
168.125
20
44
11
168.125
21
56
0
LINE
8
left_outsideCutPath
10
150.875
20
50
11
168.125
21
50
0
LINE
8
left_outsideCutPath
10
150.875
20
44
11
150.875
21
56
0
LINE
8
left_outsideCutPath
10
150.875
20
44
11
133.625
21
44
0
LINE
8
left_outsideCutPath
10
133.625
20
44
11
133.625
21
56
0
LINE
8
left_outsideCutPath
10
116.375
20
50
11
133.625
21
50
0
LINE
8
left_outsideCutPath
10
116.375
20
44
11
116.375
21
56
0
LINE
8
left_outsideCutPath
10
116.375
20
44
11
99.125
21
44
0
LINE
8
left_outsideCutPath
10
99.125
20
44
11
99.125
21
56
0
LINE
8
left_outsideCutPath
10
81.875
20
50
11
99.125
21
50
0
LINE
8
left_outsideCutPath
10
81.875
20
44
11
81.875
21
56
0
LINE
8
left_outsideCutPath
10
81.875
20
44
11
64.625
21
44
0
LINE
8
left_outsideCutPath
10
64.625
20
44
11
64.625
21
56
0
LINE
8
left_outsideCutPath
10
56
20
50
11
64.625
21
50
0
LINE
8
top_outsideCutPath
10
206
20
144
11
206
21
135.375
0
LINE
8
top_outsideCutPath
10
206
20
135.375
11
200
21
135.375
0
LINE
8
top_outsideCutPath
10
200
20
135.375
11
200
21
118.125
0
LINE
8
top_outsideCutPath
10
200
20
118.125
11
206
21
118.125
0
LINE
8
top_outsideCutPath
10
206
20
118.125
11
206
21
100.875
0
LINE
8
top_outsideCutPath
10
206
20
100.875
11
200
21
100.875
0
LINE
8
top_outsideCutPath
10
200
20
66.375
11
200
21
100.875
0
LINE
8
top_outsideCutPath
10
194
20
83.625
11
206
21
83.625
0
LINE
8
top_outsideCutPath
10
206
20
83.625
11
206
21
66.375
0
LINE
8
top_outsideCutPath
10
194
20
66.375
11
206
21
66.375
0
LINE
8
top_outsideCutPath
10
200
20
66.375
11
200
21
49.125
0
LINE
8
top_outsideCutPath
10
200
20
49.125
11
206
21
49.125
0
LINE
8
top_outsideCutPath
10
206
20
49.125
11
206
21
31.875
0
LINE
8
top_outsideCutPath
10
206
20
31.875
11
200
21
31.875
0
LINE
8
top_outsideCutPath
10
200
20
14.625
11
206
21
14.625
0
LINE
8
top_outsideCutPath
10
206
20
14.625
11
206
21
6
0
LINE
8
top_outsideCutPath
10
206
20
6
11
216.375
21
6
0
LINE
8
top_outsideCutPath
10
216.375
20
6
11
216.375
21
0
0
LINE
8
top_outsideCutPath
10
216.375
20
0
11
233.625
21
0
0
LINE
8
top_outsideCutPath
10
233.625
20
0
11
233.625
21
6
0
LINE
8
top_outsideCutPath
10
233.625
20
6
11
244
21
6
0
LINE
8
top_outsideCutPath
10
244
20
6
11
244
21
14.625
0
LINE
8
top_outsideCutPath
10
244
20
14.625
11
250
21
14.625
0
LINE
8
top_outsideCutPath
10
250
20
14.625
11
250
21
31.875
0
LINE
8
top_outsideCutPath
10
250
20
31.875
11
244
21
31.875
0
LINE
8
top_outsideCutPath
10
244
20
31.875
11
244
21
49.125
0
LINE
8
top_outsideCutPath
10
244
20
49.125
11
250
21
49.125
0
LINE
8
top_outsideCutPath
10
250
20
49.125
11
250
21
66.375
0
LINE
8
top_outsideCutPath
10
250
20
66.375
11
244
21
66.375
0
LINE
8
top_outsideCutPath
10
244
20
66.375
11
244
21
83.625
0
LINE
8
top_outsideCutPath
10
244
20
83.625
11
250
21
83.625
0
LINE
8
top_outsideCutPath
10
250
20
83.625
11
250
21
100.875
0
LINE
8
top_outsideCutPath
10
250
20
100.875
11
244
21
100.875
0
LINE
8
top_outsideCutPath
10
244
20
100.875
11
244
21
118.125
0
LINE
8
top_outsideCutPath
10
244
20
118.125
11
250
21
118.125
0
LINE
8
top_outsideCutPath
10
250
20
118.125
11
250
21
135.375
0
LINE
8
top_outsideCutPath
10
250
20
135.375
11
244
21
135.375
0
LINE
8
top_outsideCutPath
10
244
20
135.375
11
244
21
144
0
LINE
8
top_outsideCutPath
10
244
20
144
11
233.625
21
144
0
LINE
8
top_outsideCutPath
10
233.625
20
144
11
233.625
21
156
0
LINE
8
top_outsideCutPath
10
216.375
20
150
11
233.625
21
150
0
LINE
8
top_outsideCutPath
10
216.375
20
144
11
216.375
21
156
0
LINE
8
top_outsideCutPath
10
216.375
20
144
11
206
21
144
0
LINE
8
back_outsideCutPath
10
0
20
100
11
0
21
83.625
0
LINE
8
back_outsideCutPath
10
0
20
83.625
11
6
21
83.625
0
LINE
8
back_outsideCutPath
10
6
20
83.625
11
6
21
66.375
0
LINE
8
back_outsideCutPath
10
6
20
66.375
11
0
21
66.375
0
LINE
8
back_outsideCutPath
10
16.375
20
56
11
33.625
21
56
0
LINE
8
back_outsideCutPath
10
44
20
66.375
11
56
21
66.375
0
LINE
8
back_outsideCutPath
10
44
20
66.375
11
44
21
83.625
0
LINE
8
back_outsideCutPath
10
44
20
83.625
11
56
21
83.625
0
LINE
8
back_outsideCutPath
10
50
20
83.625
11
50
21
100
0
LINE
8
back_outsideCutPath
10
50
20
100
11
33.625
21
100
0
LINE
8
back_outsideCutPath
10
33.625
20
100
11
33.625
21
94
0
LINE
8
back_outsideCutPath
10
33.625
20
94
11
16.375
21
94
0
LINE
8
back_outsideCutPath
10
16.375
20
94
11
16.375
21
100
0
LINE
8
back_outsideCutPath
10
16.375
20
100
11
0
21
100
0
LINE
8
right_outsideCutPath
10
56
20
100
11
56
21
83.625
0
LINE
8
right_outsideCutPath
10
64.625
20
56
11
81.875
21
56
0
LINE
8
right_outsideCutPath
10
99.125
20
56
11
116.375
21
56
0
LINE
8
right_outsideCutPath
10
133.625
20
56
11
150.875
21
56
0
LINE
8
right_outsideCutPath
10
168.125
20
56
11
185.375
21
56
0
LINE
8
right_outsideCutPath
10
194
20
83.625
11
194
21
100
0
LINE
8
right_outsideCutPath
10
194
20
100
11
185.375
21
100
0
LINE
8
right_outsideCutPath
10
185.375
20
100
11
185.375
21
94
0
LINE
8
right_outsideCutPath
10
185.375
20
94
11
168.125
21
94
0
LINE
8
right_outsideCutPath
10
168.125
20
94
11
168.125
21
100
0
LINE
8
right_outsideCutPath
10
168.125
20
100
11
150.875
21
100
0
LINE
8
right_outsideCutPath
10
150.875
20
100
11
150.875
21
94
0
LINE
8
right_outsideCutPath
10
150.875
20
94
11
133.625
21
94
0
LINE
8
right_outsideCutPath
10
133.625
20
94
11
133.625
21
100
0
LINE
8
right_outsideCutPath
10
133.625
20
100
11
116.375
21
100
0
LINE
8
right_outsideCutPath
10
116.375
20
100
11
116.375
21
94
0
LINE
8
right_outsideCutPath
10
116.375
20
94
11
99.125
21
94
0
LINE
8
right_outsideCutPath
10
99.125
20
94
11
99.125
21
100
0
LINE
8
right_outsideCutPath
10
99.125
20
100
11
81.875
21
100
0
LINE
8
right_outsideCutPath
10
81.875
20
100
11
81.875
21
94
0
LINE
8
right_outsideCutPath
10
81.875
20
94
11
64.625
21
94
0
LINE
8
right_outsideCutPath
10
64.625
20
94
11
64.625
21
100
0
LINE
8
right_outsideCutPath
10
64.625
20
100
11
56
21
100
0
LINE
8
bottom_outsideCutPath
10
206
20
294
11
206
21
285.375
0
LINE
8
bottom_outsideCutPath
10
206
20
285.375
11
200
21
285.375
0
LINE
8
bottom_outsideCutPath
10
200
20
285.375
11
200
21
268.125
0
LINE
8
bottom_outsideCutPath
10
200
20
268.125
11
206
21
268.125
0
LINE
8
bottom_outsideCutPath
10
206
20
268.125
11
206
21
250.875
0
LINE
8
bottom_outsideCutPath
10
206
20
250.875
11
200
21
250.875
0
LINE
8
bottom_outsideCutPath
10
200
20
250.875
11
200
21
233.625
0
LINE
8
bottom_outsideCutPath
10
200
20
233.625
11
206
21
233.625
0
LINE
8
bottom_outsideCutPath
10
206
20
233.625
11
206
21
216.375
0
LINE
8
bottom_outsideCutPath
10
206
20
216.375
11
200
21
216.375
0
LINE
8
bottom_outsideCutPath
10
200
20
216.375
11
200
21
199.125
0
LINE
8
bottom_outsideCutPath
10
200
20
199.125
11
206
21
199.125
0
LINE
8
bottom_outsideCutPath
10
206
20
199.125
11
206
21
181.875
0
LINE
8
bottom_outsideCutPath
10
206
20
181.875
11
200
21
181.875
0
LINE
8
bottom_outsideCutPath
10
200
20
181.875
11
200
21
164.625
0
LINE
8
bottom_outsideCutPath
10
200
20
164.625
11
206
21
164.625
0
LINE
8
bottom_outsideCutPath
10
206
20
164.625
11
206
21
156
0
LINE
8
bottom_outsideCutPath
10
206
20
156
11
216.375
21
156
0
LINE
8
bottom_outsideCutPath
10
233.625
20
156
11
244
21
156
0
LINE
8
bottom_outsideCutPath
10
244
20
156
11
244
21
164.625
0
LINE
8
bottom_outsideCutPath
10
244
20
164.625
11
250
21
164.625
0
LINE
8
bottom_outsideCutPath
10
250
20
164.625
11
250
21
181.875
0
LINE
8
bottom_outsideCutPath
10
250
20
181.875
11
244
21
181.875
0
LINE
8
bottom_outsideCutPath
10
244
20
181.875
11
244
21
199.125
0
LINE
8
bottom_outsideCutPath
10
244
20
199.125
11
250
21
199.125
0
LINE
8
bottom_outsideCutPath
10
250
20
199.125
11
250
21
216.375
0
LINE
8
bottom_outsideCutPath
10
250
20
216.375
11
244
21
216.375
0
LINE
8
bottom_outsideCutPath
10
244
20
216.375
11
244
21
233.625
0
LINE
8
bottom_outsideCutPath
10
244
20
233.625
11
250
21
233.625
0
LINE
8
bottom_outsideCutPath
10
250
20
233.625
11
250
21
250.875
0
LINE
8
bottom_outsideCutPath
10
250
20
250.875
11
244
21
250.875
0
LINE
8
bottom_outsideCutPath
10
244
20
250.875
11
244
21
268.125
0
LINE
8
bottom_outsideCutPath
10
244
20
268.125
11
250
21
268.125
0
LINE
8
bottom_outsideCutPath
10
250
20
268.125
11
250
21
285.375
0
LINE
8
bottom_outsideCutPath
10
250
20
285.375
11
244
21
285.375
0
LINE
8
bottom_outsideCutPath
10
244
20
285.375
11
244
21
294
0
LINE
8
bottom_outsideCutPath
10
244
20
294
11
233.625
21
294
0
LINE
8
bottom_outsideCutPath
10
233.625
20
294
11
233.625
21
300
0
LINE
8
bottom_outsideCutPath
10
233.625
20
300
11
216.375
21
300
0
LINE
8
bottom_outsideCutPath
10
216.375
20
300
11
216.375
21
294
0
LINE
8
bottom_outsideCutPath
10
216.375
20
294
11
206
21
294
0
ENDSEC
0
EOF